<?xml version="1.0" encoding="UTF-8" standalone="no"?>
<!DOCTYPE svg PUBLIC "-//W3C//DTD SVG 1.1//EN"
 "http://www.w3.org/Graphics/SVG/1.1/DTD/svg11.dtd">
<!-- Generated by graphviz version 5.0.0 (20220707.1540)
 -->
<!-- Title: StorageDiagram Pages: 1 -->
<svg width="1590pt" height="367pt"
 viewBox="0.00 0.00 1589.71 367.20" xmlns="http://www.w3.org/2000/svg" xmlns:xlink="http://www.w3.org/1999/xlink">
<g id="graph0" class="graph" transform="scale(1 1) rotate(0) translate(4 363.2)">
<title>StorageDiagram</title>
<polygon fill="white" stroke="transparent" points="-4,4 -4,-363.2 1585.71,-363.2 1585.71,4 -4,4"/>
<!-- 5 -->
<g id="node1" class="node">
<title>5</title>
<polygon fill="#f2f2f2" stroke="black" points="0,-143.5 0,-358.7 551.13,-358.7 551.13,-143.5 0,-143.5"/>
<text text-anchor="middle" x="275.56" y="-342.1" font-family="Times,serif" font-size="14.00">EmissionsController &lt;&lt;Contract&gt;&gt;</text>
<text text-anchor="middle" x="275.56" y="-325.3" font-family="Times,serif" font-size="14.00">0xebfd9cD78510c591eDa8735D0F8a87414eF27A83</text>
<polyline fill="none" stroke="black" points="0,-317.1 551.13,-317.1 "/>
<text text-anchor="middle" x="18.11" y="-300.5" font-family="Times,serif" font-size="14.00">slot</text>
<polyline fill="none" stroke="black" points="0,-292.3 36.23,-292.3 "/>
<text text-anchor="middle" x="18.11" y="-275.7" font-family="Times,serif" font-size="14.00">0</text>
<polyline fill="none" stroke="black" points="0,-267.5 36.23,-267.5 "/>
<text text-anchor="middle" x="18.11" y="-250.9" font-family="Times,serif" font-size="14.00">1</text>
<polyline fill="none" stroke="black" points="0,-242.7 36.23,-242.7 "/>
<text text-anchor="middle" x="18.11" y="-226.1" font-family="Times,serif" font-size="14.00">2</text>
<polyline fill="none" stroke="black" points="0,-217.9 36.23,-217.9 "/>
<text text-anchor="middle" x="18.11" y="-201.3" font-family="Times,serif" font-size="14.00">3</text>
<polyline fill="none" stroke="black" points="0,-193.1 36.23,-193.1 "/>
<text text-anchor="middle" x="18.11" y="-176.5" font-family="Times,serif" font-size="14.00">4</text>
<polyline fill="none" stroke="black" points="0,-168.3 36.23,-168.3 "/>
<text text-anchor="middle" x="18.11" y="-151.7" font-family="Times,serif" font-size="14.00">5</text>
<polyline fill="none" stroke="black" points="36.23,-143.5 36.23,-317.1 "/>
<text text-anchor="middle" x="293.68" y="-300.5" font-family="Times,serif" font-size="14.00">type: &lt;inherited contract&gt;.variable (bytes)</text>
<polyline fill="none" stroke="black" points="36.23,-292.3 551.13,-292.3 "/>
<text text-anchor="middle" x="89.9" y="-275.7" font-family="Times,serif" font-size="14.00">unallocated (30)</text>
<polyline fill="none" stroke="black" points="143.58,-267.5 143.58,-292.3 "/>
<text text-anchor="middle" x="246.63" y="-275.7" font-family="Times,serif" font-size="14.00">bool: Initializable._initializing (1)</text>
<polyline fill="none" stroke="black" points="349.69,-267.5 349.69,-292.3 "/>
<text text-anchor="middle" x="450.41" y="-275.7" font-family="Times,serif" font-size="14.00">bool: Initializable._initialized (1)</text>
<polyline fill="none" stroke="black" points="36.23,-267.5 551.13,-267.5 "/>
<text text-anchor="middle" x="293.66" y="-250.9" font-family="Times,serif" font-size="14.00">EpochHistory: epochs (32)</text>
<polyline fill="none" stroke="black" points="36.23,-242.7 551.13,-242.7 "/>
<text text-anchor="middle" x="293.42" y="-226.1" font-family="Times,serif" font-size="14.00">mapping(address=&gt;uint32): stakingContractAddTime (32)</text>
<polyline fill="none" stroke="black" points="36.23,-217.9 551.13,-217.9 "/>
<text text-anchor="middle" x="293.21" y="-201.3" font-family="Times,serif" font-size="14.00">IVotes[]: stakingContracts (32)</text>
<polyline fill="none" stroke="black" points="36.23,-193.1 551.13,-193.1 "/>
<text text-anchor="middle" x="293.48" y="-176.5" font-family="Times,serif" font-size="14.00">DialData[]: dials (32)</text>
<polyline fill="none" stroke="black" points="36.23,-168.3 551.13,-168.3 "/>
<text text-anchor="middle" x="293.49" y="-151.7" font-family="Times,serif" font-size="14.00">mapping(address=&gt;VoterPreferences): voterPreferences (32)</text>
</g>
<!-- 1 -->
<g id="node2" class="node">
<title>1</title>
<polygon fill="#f2f2f2" stroke="black" points="668.83,-261.9 668.83,-336.3 1085.47,-336.3 1085.47,-261.9 668.83,-261.9"/>
<text text-anchor="middle" x="877.15" y="-319.7" font-family="Times,serif" font-size="14.00">EpochHistory &lt;&lt;Struct&gt;&gt;</text>
<polyline fill="none" stroke="black" points="668.83,-311.5 1085.47,-311.5 "/>
<text text-anchor="middle" x="686.94" y="-294.9" font-family="Times,serif" font-size="14.00">slot</text>
<polyline fill="none" stroke="black" points="668.83,-286.7 705.06,-286.7 "/>
<text text-anchor="middle" x="686.94" y="-270.1" font-family="Times,serif" font-size="14.00">0</text>
<polyline fill="none" stroke="black" points="705.06,-261.9 705.06,-311.5 "/>
<text text-anchor="middle" x="895.26" y="-294.9" font-family="Times,serif" font-size="14.00">type: variable (bytes)</text>
<polyline fill="none" stroke="black" points="705.06,-286.7 1085.47,-286.7 "/>
<text text-anchor="middle" x="758.73" y="-270.1" font-family="Times,serif" font-size="14.00">unallocated (24)</text>
<polyline fill="none" stroke="black" points="812.41,-261.9 812.41,-286.7 "/>
<text text-anchor="middle" x="879.51" y="-270.1" font-family="Times,serif" font-size="14.00">uint32: lastEpoch (4)</text>
<polyline fill="none" stroke="black" points="946.61,-261.9 946.61,-286.7 "/>
<text text-anchor="middle" x="1016.04" y="-270.1" font-family="Times,serif" font-size="14.00">uint32: startEpoch (4)</text>
</g>
<!-- 5&#45;&gt;1 -->
<g id="edge1" class="edge">
<title>5:5&#45;&gt;1</title>
<path fill="none" stroke="black" d="M551.13,-255.1C586,-255.1 622.79,-257.62 658.58,-261.45"/>
<polygon fill="black" stroke="black" points="658.32,-264.94 668.65,-262.56 659.09,-257.98 658.32,-264.94"/>
</g>
<!-- 3 -->
<g id="node4" class="node">
<title>3</title>
<polygon fill="#f2f2f2" stroke="black" points="587.13,-119.1 587.13,-243.1 1167.17,-243.1 1167.17,-119.1 587.13,-119.1"/>
<text text-anchor="middle" x="877.15" y="-226.5" font-family="Times,serif" font-size="14.00">DialData &lt;&lt;Struct&gt;&gt;</text>
<polyline fill="none" stroke="black" points="587.13,-218.3 1167.17,-218.3 "/>
<text text-anchor="middle" x="605.24" y="-201.7" font-family="Times,serif" font-size="14.00">slot</text>
<polyline fill="none" stroke="black" points="587.13,-193.5 623.36,-193.5 "/>
<text text-anchor="middle" x="605.24" y="-176.9" font-family="Times,serif" font-size="14.00">0</text>
<polyline fill="none" stroke="black" points="587.13,-168.7 623.36,-168.7 "/>
<text text-anchor="middle" x="605.24" y="-152.1" font-family="Times,serif" font-size="14.00">1</text>
<polyline fill="none" stroke="black" points="587.13,-143.9 623.36,-143.9 "/>
<text text-anchor="middle" x="605.24" y="-127.3" font-family="Times,serif" font-size="14.00">2</text>
<polyline fill="none" stroke="black" points="623.36,-119.1 623.36,-218.3 "/>
<text text-anchor="middle" x="895.26" y="-201.7" font-family="Times,serif" font-size="14.00">type: variable (bytes)</text>
<polyline fill="none" stroke="black" points="623.36,-193.5 1167.17,-193.5 "/>
<text text-anchor="middle" x="677.03" y="-176.9" font-family="Times,serif" font-size="14.00">unallocated (17)</text>
<polyline fill="none" stroke="black" points="730.71,-168.7 730.71,-193.5 "/>
<text text-anchor="middle" x="795.07" y="-176.9" font-family="Times,serif" font-size="14.00">uint96: balance (12)</text>
<polyline fill="none" stroke="black" points="859.44,-168.7 859.44,-193.5 "/>
<text text-anchor="middle" x="905.15" y="-176.9" font-family="Times,serif" font-size="14.00">uint8: cap (1)</text>
<polyline fill="none" stroke="black" points="950.86,-168.7 950.86,-193.5 "/>
<text text-anchor="middle" x="1001.64" y="-176.9" font-family="Times,serif" font-size="14.00">bool: notify (1)</text>
<polyline fill="none" stroke="black" points="1052.41,-168.7 1052.41,-193.5 "/>
<text text-anchor="middle" x="1109.79" y="-176.9" font-family="Times,serif" font-size="14.00">bool: disabled (1)</text>
<polyline fill="none" stroke="black" points="623.36,-168.7 1167.17,-168.7 "/>
<text text-anchor="middle" x="750.53" y="-152.1" font-family="Times,serif" font-size="14.00">unallocated (12)</text>
<polyline fill="none" stroke="black" points="877.71,-143.9 877.71,-168.7 "/>
<text text-anchor="middle" x="1022.29" y="-152.1" font-family="Times,serif" font-size="14.00">address: recipient (20)</text>
<polyline fill="none" stroke="black" points="623.36,-143.9 1167.17,-143.9 "/>
<text text-anchor="middle" x="895.06" y="-127.3" font-family="Times,serif" font-size="14.00">HistoricVotes[]: voteHistory (32)</text>
</g>
<!-- 5&#45;&gt;3 -->
<g id="edge2" class="edge">
<title>5:16&#45;&gt;3</title>
<path fill="none" stroke="black" d="M551.13,-181.1C559.54,-181.1 568.08,-181.1 576.7,-181.1"/>
<polygon fill="black" stroke="black" points="576.85,-184.6 586.85,-181.1 576.85,-177.6 576.85,-184.6"/>
</g>
<!-- 4 -->
<g id="node5" class="node">
<title>4</title>
<polygon fill="#f2f2f2" stroke="black" points="648.99,-0.5 648.99,-99.7 1105.31,-99.7 1105.31,-0.5 648.99,-0.5"/>
<text text-anchor="middle" x="877.15" y="-83.1" font-family="Times,serif" font-size="14.00">VoterPreferences &lt;&lt;Struct&gt;&gt;</text>
<polyline fill="none" stroke="black" points="648.99,-74.9 1105.31,-74.9 "/>
<text text-anchor="middle" x="667.1" y="-58.3" font-family="Times,serif" font-size="14.00">slot</text>
<polyline fill="none" stroke="black" points="648.99,-50.1 685.22,-50.1 "/>
<text text-anchor="middle" x="667.1" y="-33.5" font-family="Times,serif" font-size="14.00">0</text>
<polyline fill="none" stroke="black" points="648.99,-25.3 685.22,-25.3 "/>
<text text-anchor="middle" x="667.1" y="-8.7" font-family="Times,serif" font-size="14.00">1</text>
<polyline fill="none" stroke="black" points="685.22,-0.5 685.22,-74.9 "/>
<text text-anchor="middle" x="895.26" y="-58.3" font-family="Times,serif" font-size="14.00">type: variable (bytes)</text>
<polyline fill="none" stroke="black" points="685.22,-50.1 1105.31,-50.1 "/>
<text text-anchor="middle" x="895.04" y="-33.5" font-family="Times,serif" font-size="14.00">uint256: dialWeights (32)</text>
<polyline fill="none" stroke="black" points="685.22,-25.3 1105.31,-25.3 "/>
<text text-anchor="middle" x="738.89" y="-8.7" font-family="Times,serif" font-size="14.00">unallocated (12)</text>
<polyline fill="none" stroke="black" points="792.56,-0.5 792.56,-25.3 "/>
<text text-anchor="middle" x="875.22" y="-8.7" font-family="Times,serif" font-size="14.00">uint32: lastSourcePoke (4)</text>
<polyline fill="none" stroke="black" points="957.87,-0.5 957.87,-25.3 "/>
<text text-anchor="middle" x="1031.59" y="-8.7" font-family="Times,serif" font-size="14.00">uint128: votesCast (16)</text>
</g>
<!-- 5&#45;&gt;4 -->
<g id="edge3" class="edge">
<title>5:20&#45;&gt;4</title>
<path fill="none" stroke="black" d="M551.13,-156.1C577.09,-156.1 565.07,-123.8 587.13,-110.1 603.35,-100.03 620.97,-91.62 639.24,-84.6"/>
<polygon fill="black" stroke="black" points="640.68,-87.8 648.85,-81.05 638.25,-81.23 640.68,-87.8"/>
</g>
<!-- 2 -->
<g id="node3" class="node">
<title>2</title>
<polygon fill="#f2f2f2" stroke="black" points="1203.17,-93.9 1203.17,-168.3 1581.71,-168.3 1581.71,-93.9 1203.17,-93.9"/>
<text text-anchor="middle" x="1392.44" y="-151.7" font-family="Times,serif" font-size="14.00">HistoricVotes &lt;&lt;Struct&gt;&gt;</text>
<polyline fill="none" stroke="black" points="1203.17,-143.5 1581.71,-143.5 "/>
<text text-anchor="middle" x="1221.28" y="-126.9" font-family="Times,serif" font-size="14.00">slot</text>
<polyline fill="none" stroke="black" points="1203.17,-118.7 1239.4,-118.7 "/>
<text text-anchor="middle" x="1221.28" y="-102.1" font-family="Times,serif" font-size="14.00">0</text>
<polyline fill="none" stroke="black" points="1239.4,-93.9 1239.4,-143.5 "/>
<text text-anchor="middle" x="1410.55" y="-126.9" font-family="Times,serif" font-size="14.00">type: variable (bytes)</text>
<polyline fill="none" stroke="black" points="1239.4,-118.7 1581.71,-118.7 "/>
<text text-anchor="middle" x="1293.07" y="-102.1" font-family="Times,serif" font-size="14.00">unallocated (12)</text>
<polyline fill="none" stroke="black" points="1346.74,-93.9 1346.74,-118.7 "/>
<text text-anchor="middle" x="1402.95" y="-102.1" font-family="Times,serif" font-size="14.00">uint32: epoch (4)</text>
<polyline fill="none" stroke="black" points="1459.17,-93.9 1459.17,-118.7 "/>
<text text-anchor="middle" x="1520.44" y="-102.1" font-family="Times,serif" font-size="14.00">uint128: votes (16)</text>
</g>
<!-- 3&#45;&gt;2 -->
<g id="edge4" class="edge">
<title>3:15&#45;&gt;2</title>
<path fill="none" stroke="black" d="M1167.17,-131.1C1175.56,-131.1 1184.14,-131.1 1192.8,-131.1"/>
<polygon fill="black" stroke="black" points="1193,-134.6 1203,-131.1 1193,-127.6 1193,-134.6"/>
</g>
</g>
</svg>
