<?xml version="1.0" encoding="UTF-8" standalone="no"?>
<!DOCTYPE svg PUBLIC "-//W3C//DTD SVG 1.1//EN"
 "http://www.w3.org/Graphics/SVG/1.1/DTD/svg11.dtd">
<!-- Generated by graphviz version 5.0.0 (20220707.1540)
 -->
<!-- Title: StorageDiagram Pages: 1 -->
<svg width="2068pt" height="367pt"
 viewBox="0.00 0.00 2067.71 367.20" xmlns="http://www.w3.org/2000/svg" xmlns:xlink="http://www.w3.org/1999/xlink">
<g id="graph0" class="graph" transform="scale(1 1) rotate(0) translate(4 363.2)">
<title>StorageDiagram</title>
<polygon fill="white" stroke="transparent" points="-4,4 -4,-363.2 2063.71,-363.2 2063.71,4 -4,4"/>
<!-- 5 -->
<g id="node1" class="node">
<title>5</title>
<polygon fill="#f2f2f2" stroke="black" points="0,-143.5 0,-358.7 1029.13,-358.7 1029.13,-143.5 0,-143.5"/>
<text text-anchor="middle" x="514.56" y="-342.1" font-family="Times,serif" font-size="14.00">EmissionsController &lt;&lt;Contract&gt;&gt;</text>
<text text-anchor="middle" x="514.56" y="-325.3" font-family="Times,serif" font-size="14.00">0xebfd9cD78510c591eDa8735D0F8a87414eF27A83</text>
<polyline fill="none" stroke="black" points="0,-317.1 1029.13,-317.1 "/>
<text text-anchor="middle" x="18.11" y="-300.5" font-family="Times,serif" font-size="14.00">slot</text>
<polyline fill="none" stroke="black" points="0,-292.3 36.23,-292.3 "/>
<text text-anchor="middle" x="18.11" y="-275.7" font-family="Times,serif" font-size="14.00">0</text>
<polyline fill="none" stroke="black" points="0,-267.5 36.23,-267.5 "/>
<text text-anchor="middle" x="18.11" y="-250.9" font-family="Times,serif" font-size="14.00">1</text>
<polyline fill="none" stroke="black" points="0,-242.7 36.23,-242.7 "/>
<text text-anchor="middle" x="18.11" y="-226.1" font-family="Times,serif" font-size="14.00">2</text>
<polyline fill="none" stroke="black" points="0,-217.9 36.23,-217.9 "/>
<text text-anchor="middle" x="18.11" y="-201.3" font-family="Times,serif" font-size="14.00">3</text>
<polyline fill="none" stroke="black" points="0,-193.1 36.23,-193.1 "/>
<text text-anchor="middle" x="18.11" y="-176.5" font-family="Times,serif" font-size="14.00">4</text>
<polyline fill="none" stroke="black" points="0,-168.3 36.23,-168.3 "/>
<text text-anchor="middle" x="18.11" y="-151.7" font-family="Times,serif" font-size="14.00">5</text>
<polyline fill="none" stroke="black" points="36.23,-143.5 36.23,-317.1 "/>
<text text-anchor="middle" x="275.23" y="-300.5" font-family="Times,serif" font-size="14.00">value</text>
<polyline fill="none" stroke="black" points="36.23,-292.3 514.23,-292.3 "/>
<text text-anchor="middle" x="275.23" y="-275.7" font-family="Times,serif" font-size="14.00">0x0000000000000000000000000000000000000000000000000000000000000001</text>
<polyline fill="none" stroke="black" points="36.23,-267.5 514.23,-267.5 "/>
<text text-anchor="middle" x="275.23" y="-250.9" font-family="Times,serif" font-size="14.00">0x00000000000000000000000000000000000000000000000000000ab700000a96</text>
<polyline fill="none" stroke="black" points="36.23,-242.7 514.23,-242.7 "/>
<text text-anchor="middle" x="275.23" y="-226.1" font-family="Times,serif" font-size="14.00">0x0000000000000000000000000000000000000000000000000000000000000000</text>
<polyline fill="none" stroke="black" points="36.23,-217.9 514.23,-217.9 "/>
<text text-anchor="middle" x="275.23" y="-201.3" font-family="Times,serif" font-size="14.00">0x0000000000000000000000000000000000000000000000000000000000000002</text>
<polyline fill="none" stroke="black" points="36.23,-193.1 514.23,-193.1 "/>
<text text-anchor="middle" x="275.23" y="-176.5" font-family="Times,serif" font-size="14.00">0x0000000000000000000000000000000000000000000000000000000000000013</text>
<polyline fill="none" stroke="black" points="36.23,-168.3 514.23,-168.3 "/>
<text text-anchor="middle" x="275.23" y="-151.7" font-family="Times,serif" font-size="14.00">0x0000000000000000000000000000000000000000000000000000000000000000</text>
<polyline fill="none" stroke="black" points="514.23,-143.5 514.23,-317.1 "/>
<text text-anchor="middle" x="771.68" y="-300.5" font-family="Times,serif" font-size="14.00">type: &lt;inherited contract&gt;.variable (bytes)</text>
<polyline fill="none" stroke="black" points="514.23,-292.3 1029.13,-292.3 "/>
<text text-anchor="middle" x="567.9" y="-275.7" font-family="Times,serif" font-size="14.00">unallocated (30)</text>
<polyline fill="none" stroke="black" points="621.58,-267.5 621.58,-292.3 "/>
<text text-anchor="middle" x="724.63" y="-275.7" font-family="Times,serif" font-size="14.00">bool: Initializable._initializing (1)</text>
<polyline fill="none" stroke="black" points="827.69,-267.5 827.69,-292.3 "/>
<text text-anchor="middle" x="928.41" y="-275.7" font-family="Times,serif" font-size="14.00">bool: Initializable._initialized (1)</text>
<polyline fill="none" stroke="black" points="514.23,-267.5 1029.13,-267.5 "/>
<text text-anchor="middle" x="771.66" y="-250.9" font-family="Times,serif" font-size="14.00">EpochHistory: epochs (32)</text>
<polyline fill="none" stroke="black" points="514.23,-242.7 1029.13,-242.7 "/>
<text text-anchor="middle" x="771.42" y="-226.1" font-family="Times,serif" font-size="14.00">mapping(address=&gt;uint32): stakingContractAddTime (32)</text>
<polyline fill="none" stroke="black" points="514.23,-217.9 1029.13,-217.9 "/>
<text text-anchor="middle" x="771.21" y="-201.3" font-family="Times,serif" font-size="14.00">IVotes[]: stakingContracts (32)</text>
<polyline fill="none" stroke="black" points="514.23,-193.1 1029.13,-193.1 "/>
<text text-anchor="middle" x="771.48" y="-176.5" font-family="Times,serif" font-size="14.00">DialData[]: dials (32)</text>
<polyline fill="none" stroke="black" points="514.23,-168.3 1029.13,-168.3 "/>
<text text-anchor="middle" x="771.49" y="-151.7" font-family="Times,serif" font-size="14.00">mapping(address=&gt;VoterPreferences): voterPreferences (32)</text>
</g>
<!-- 1 -->
<g id="node2" class="node">
<title>1</title>
<polygon fill="#f2f2f2" stroke="black" points="1146.83,-261.9 1146.83,-336.3 1563.47,-336.3 1563.47,-261.9 1146.83,-261.9"/>
<text text-anchor="middle" x="1355.15" y="-319.7" font-family="Times,serif" font-size="14.00">EpochHistory &lt;&lt;Struct&gt;&gt;</text>
<polyline fill="none" stroke="black" points="1146.83,-311.5 1563.47,-311.5 "/>
<text text-anchor="middle" x="1164.94" y="-294.9" font-family="Times,serif" font-size="14.00">slot</text>
<polyline fill="none" stroke="black" points="1146.83,-286.7 1183.06,-286.7 "/>
<text text-anchor="middle" x="1164.94" y="-270.1" font-family="Times,serif" font-size="14.00">0</text>
<polyline fill="none" stroke="black" points="1183.06,-261.9 1183.06,-311.5 "/>
<text text-anchor="middle" x="1373.26" y="-294.9" font-family="Times,serif" font-size="14.00">type: variable (bytes)</text>
<polyline fill="none" stroke="black" points="1183.06,-286.7 1563.47,-286.7 "/>
<text text-anchor="middle" x="1236.73" y="-270.1" font-family="Times,serif" font-size="14.00">unallocated (24)</text>
<polyline fill="none" stroke="black" points="1290.41,-261.9 1290.41,-286.7 "/>
<text text-anchor="middle" x="1357.51" y="-270.1" font-family="Times,serif" font-size="14.00">uint32: lastEpoch (4)</text>
<polyline fill="none" stroke="black" points="1424.61,-261.9 1424.61,-286.7 "/>
<text text-anchor="middle" x="1494.04" y="-270.1" font-family="Times,serif" font-size="14.00">uint32: startEpoch (4)</text>
</g>
<!-- 5&#45;&gt;1 -->
<g id="edge1" class="edge">
<title>5:5&#45;&gt;1</title>
<path fill="none" stroke="black" d="M1029.13,-255.1C1064,-255.1 1100.79,-257.62 1136.58,-261.45"/>
<polygon fill="black" stroke="black" points="1136.32,-264.94 1146.65,-262.56 1137.09,-257.98 1136.32,-264.94"/>
</g>
<!-- 3 -->
<g id="node4" class="node">
<title>3</title>
<polygon fill="#f2f2f2" stroke="black" points="1065.13,-119.1 1065.13,-243.1 1645.17,-243.1 1645.17,-119.1 1065.13,-119.1"/>
<text text-anchor="middle" x="1355.15" y="-226.5" font-family="Times,serif" font-size="14.00">DialData &lt;&lt;Struct&gt;&gt;</text>
<polyline fill="none" stroke="black" points="1065.13,-218.3 1645.17,-218.3 "/>
<text text-anchor="middle" x="1083.24" y="-201.7" font-family="Times,serif" font-size="14.00">slot</text>
<polyline fill="none" stroke="black" points="1065.13,-193.5 1101.36,-193.5 "/>
<text text-anchor="middle" x="1083.24" y="-176.9" font-family="Times,serif" font-size="14.00">0</text>
<polyline fill="none" stroke="black" points="1065.13,-168.7 1101.36,-168.7 "/>
<text text-anchor="middle" x="1083.24" y="-152.1" font-family="Times,serif" font-size="14.00">1</text>
<polyline fill="none" stroke="black" points="1065.13,-143.9 1101.36,-143.9 "/>
<text text-anchor="middle" x="1083.24" y="-127.3" font-family="Times,serif" font-size="14.00">2</text>
<polyline fill="none" stroke="black" points="1101.36,-119.1 1101.36,-218.3 "/>
<text text-anchor="middle" x="1373.26" y="-201.7" font-family="Times,serif" font-size="14.00">type: variable (bytes)</text>
<polyline fill="none" stroke="black" points="1101.36,-193.5 1645.17,-193.5 "/>
<text text-anchor="middle" x="1155.03" y="-176.9" font-family="Times,serif" font-size="14.00">unallocated (17)</text>
<polyline fill="none" stroke="black" points="1208.71,-168.7 1208.71,-193.5 "/>
<text text-anchor="middle" x="1273.07" y="-176.9" font-family="Times,serif" font-size="14.00">uint96: balance (12)</text>
<polyline fill="none" stroke="black" points="1337.44,-168.7 1337.44,-193.5 "/>
<text text-anchor="middle" x="1383.15" y="-176.9" font-family="Times,serif" font-size="14.00">uint8: cap (1)</text>
<polyline fill="none" stroke="black" points="1428.86,-168.7 1428.86,-193.5 "/>
<text text-anchor="middle" x="1479.64" y="-176.9" font-family="Times,serif" font-size="14.00">bool: notify (1)</text>
<polyline fill="none" stroke="black" points="1530.41,-168.7 1530.41,-193.5 "/>
<text text-anchor="middle" x="1587.79" y="-176.9" font-family="Times,serif" font-size="14.00">bool: disabled (1)</text>
<polyline fill="none" stroke="black" points="1101.36,-168.7 1645.17,-168.7 "/>
<text text-anchor="middle" x="1228.53" y="-152.1" font-family="Times,serif" font-size="14.00">unallocated (12)</text>
<polyline fill="none" stroke="black" points="1355.71,-143.9 1355.71,-168.7 "/>
<text text-anchor="middle" x="1500.29" y="-152.1" font-family="Times,serif" font-size="14.00">address: recipient (20)</text>
<polyline fill="none" stroke="black" points="1101.36,-143.9 1645.17,-143.9 "/>
<text text-anchor="middle" x="1373.06" y="-127.3" font-family="Times,serif" font-size="14.00">HistoricVotes[]: voteHistory (32)</text>
</g>
<!-- 5&#45;&gt;3 -->
<g id="edge2" class="edge">
<title>5:16&#45;&gt;3</title>
<path fill="none" stroke="black" d="M1029.13,-181.1C1037.54,-181.1 1046.08,-181.1 1054.7,-181.1"/>
<polygon fill="black" stroke="black" points="1054.85,-184.6 1064.85,-181.1 1054.85,-177.6 1054.85,-184.6"/>
</g>
<!-- 4 -->
<g id="node5" class="node">
<title>4</title>
<polygon fill="#f2f2f2" stroke="black" points="1126.99,-0.5 1126.99,-99.7 1583.31,-99.7 1583.31,-0.5 1126.99,-0.5"/>
<text text-anchor="middle" x="1355.15" y="-83.1" font-family="Times,serif" font-size="14.00">VoterPreferences &lt;&lt;Struct&gt;&gt;</text>
<polyline fill="none" stroke="black" points="1126.99,-74.9 1583.31,-74.9 "/>
<text text-anchor="middle" x="1145.1" y="-58.3" font-family="Times,serif" font-size="14.00">slot</text>
<polyline fill="none" stroke="black" points="1126.99,-50.1 1163.22,-50.1 "/>
<text text-anchor="middle" x="1145.1" y="-33.5" font-family="Times,serif" font-size="14.00">0</text>
<polyline fill="none" stroke="black" points="1126.99,-25.3 1163.22,-25.3 "/>
<text text-anchor="middle" x="1145.1" y="-8.7" font-family="Times,serif" font-size="14.00">1</text>
<polyline fill="none" stroke="black" points="1163.22,-0.5 1163.22,-74.9 "/>
<text text-anchor="middle" x="1373.26" y="-58.3" font-family="Times,serif" font-size="14.00">type: variable (bytes)</text>
<polyline fill="none" stroke="black" points="1163.22,-50.1 1583.31,-50.1 "/>
<text text-anchor="middle" x="1373.04" y="-33.5" font-family="Times,serif" font-size="14.00">uint256: dialWeights (32)</text>
<polyline fill="none" stroke="black" points="1163.22,-25.3 1583.31,-25.3 "/>
<text text-anchor="middle" x="1216.89" y="-8.7" font-family="Times,serif" font-size="14.00">unallocated (12)</text>
<polyline fill="none" stroke="black" points="1270.56,-0.5 1270.56,-25.3 "/>
<text text-anchor="middle" x="1353.22" y="-8.7" font-family="Times,serif" font-size="14.00">uint32: lastSourcePoke (4)</text>
<polyline fill="none" stroke="black" points="1435.87,-0.5 1435.87,-25.3 "/>
<text text-anchor="middle" x="1509.59" y="-8.7" font-family="Times,serif" font-size="14.00">uint128: votesCast (16)</text>
</g>
<!-- 5&#45;&gt;4 -->
<g id="edge3" class="edge">
<title>5:20&#45;&gt;4</title>
<path fill="none" stroke="black" d="M1029.13,-156.1C1055.09,-156.1 1043.07,-123.8 1065.13,-110.1 1081.35,-100.03 1098.97,-91.62 1117.24,-84.6"/>
<polygon fill="black" stroke="black" points="1118.68,-87.8 1126.85,-81.05 1116.25,-81.23 1118.68,-87.8"/>
</g>
<!-- 2 -->
<g id="node3" class="node">
<title>2</title>
<polygon fill="#f2f2f2" stroke="black" points="1681.17,-93.9 1681.17,-168.3 2059.71,-168.3 2059.71,-93.9 1681.17,-93.9"/>
<text text-anchor="middle" x="1870.44" y="-151.7" font-family="Times,serif" font-size="14.00">HistoricVotes &lt;&lt;Struct&gt;&gt;</text>
<polyline fill="none" stroke="black" points="1681.17,-143.5 2059.71,-143.5 "/>
<text text-anchor="middle" x="1699.28" y="-126.9" font-family="Times,serif" font-size="14.00">slot</text>
<polyline fill="none" stroke="black" points="1681.17,-118.7 1717.4,-118.7 "/>
<text text-anchor="middle" x="1699.28" y="-102.1" font-family="Times,serif" font-size="14.00">0</text>
<polyline fill="none" stroke="black" points="1717.4,-93.9 1717.4,-143.5 "/>
<text text-anchor="middle" x="1888.55" y="-126.9" font-family="Times,serif" font-size="14.00">type: variable (bytes)</text>
<polyline fill="none" stroke="black" points="1717.4,-118.7 2059.71,-118.7 "/>
<text text-anchor="middle" x="1771.07" y="-102.1" font-family="Times,serif" font-size="14.00">unallocated (12)</text>
<polyline fill="none" stroke="black" points="1824.74,-93.9 1824.74,-118.7 "/>
<text text-anchor="middle" x="1880.95" y="-102.1" font-family="Times,serif" font-size="14.00">uint32: epoch (4)</text>
<polyline fill="none" stroke="black" points="1937.17,-93.9 1937.17,-118.7 "/>
<text text-anchor="middle" x="1998.44" y="-102.1" font-family="Times,serif" font-size="14.00">uint128: votes (16)</text>
</g>
<!-- 3&#45;&gt;2 -->
<g id="edge4" class="edge">
<title>3:15&#45;&gt;2</title>
<path fill="none" stroke="black" d="M1645.17,-131.1C1653.56,-131.1 1662.14,-131.1 1670.8,-131.1"/>
<polygon fill="black" stroke="black" points="1671,-134.6 1681,-131.1 1671,-127.6 1671,-134.6"/>
</g>
</g>
</svg>
