<?xml version="1.0" encoding="UTF-8" standalone="no"?>
<!DOCTYPE svg PUBLIC "-//W3C//DTD SVG 1.1//EN"
 "http://www.w3.org/Graphics/SVG/1.1/DTD/svg11.dtd">
<!-- Generated by graphviz version 5.0.0 (20220707.1540)
 -->
<!-- Title: StorageDiagram Pages: 1 -->
<svg width="4326pt" height="422pt"
 viewBox="0.00 0.00 4325.82 421.80" xmlns="http://www.w3.org/2000/svg" xmlns:xlink="http://www.w3.org/1999/xlink">
<g id="graph0" class="graph" transform="scale(1 1) rotate(0) translate(4 417.8)">
<title>StorageDiagram</title>
<polygon fill="white" stroke="transparent" points="-4,4 -4,-417.8 4321.82,-417.8 4321.82,4 -4,4"/>
<!-- 8 -->
<g id="node1" class="node">
<title>8</title>
<polygon fill="#f2f2f2" stroke="black" points="0,-169.5 0,-384.7 1415.82,-384.7 1415.82,-169.5 0,-169.5"/>
<text text-anchor="middle" x="707.91" y="-368.1" font-family="Courier New" font-size="14.00">EmissionsController &lt;&lt;Contract&gt;&gt;</text>
<text text-anchor="middle" x="707.91" y="-351.3" font-family="Courier New" font-size="14.00">0xebfd9cD78510c591eDa8735D0F8a87414eF27A83</text>
<polyline fill="none" stroke="black" points="0,-343.1 1415.82,-343.1 "/>
<text text-anchor="middle" x="24.8" y="-326.5" font-family="Courier New" font-size="14.00">slot</text>
<polyline fill="none" stroke="black" points="0,-318.3 49.61,-318.3 "/>
<text text-anchor="middle" x="24.8" y="-301.7" font-family="Courier New" font-size="14.00">0</text>
<polyline fill="none" stroke="black" points="0,-293.5 49.61,-293.5 "/>
<text text-anchor="middle" x="24.8" y="-276.9" font-family="Courier New" font-size="14.00">1</text>
<polyline fill="none" stroke="black" points="0,-268.7 49.61,-268.7 "/>
<text text-anchor="middle" x="24.8" y="-252.1" font-family="Courier New" font-size="14.00">2</text>
<polyline fill="none" stroke="black" points="0,-243.9 49.61,-243.9 "/>
<text text-anchor="middle" x="24.8" y="-227.3" font-family="Courier New" font-size="14.00">3</text>
<polyline fill="none" stroke="black" points="0,-219.1 49.61,-219.1 "/>
<text text-anchor="middle" x="24.8" y="-202.5" font-family="Courier New" font-size="14.00">4</text>
<polyline fill="none" stroke="black" points="0,-194.3 49.61,-194.3 "/>
<text text-anchor="middle" x="24.8" y="-177.7" font-family="Courier New" font-size="14.00">5</text>
<polyline fill="none" stroke="black" points="49.61,-169.5 49.61,-343.1 "/>
<text text-anchor="middle" x="334.85" y="-326.5" font-family="Courier New" font-size="14.00">value</text>
<polyline fill="none" stroke="black" points="49.61,-318.3 620.1,-318.3 "/>
<text text-anchor="middle" x="334.85" y="-301.7" font-family="Courier New" font-size="14.00">0x0000000000000000000000000000000000000000000000000000000000000001</text>
<polyline fill="none" stroke="black" points="49.61,-293.5 620.1,-293.5 "/>
<text text-anchor="middle" x="334.85" y="-276.9" font-family="Courier New" font-size="14.00">0x00000000000000000000000000000000000000000000000000000AB700000A96</text>
<polyline fill="none" stroke="black" points="49.61,-268.7 620.1,-268.7 "/>
<text text-anchor="middle" x="334.85" y="-252.1" font-family="Courier New" font-size="14.00"> </text>
<polyline fill="none" stroke="black" points="49.61,-243.9 620.1,-243.9 "/>
<text text-anchor="middle" x="334.85" y="-227.3" font-family="Courier New" font-size="14.00">0x0000000000000000000000000000000000000000000000000000000000000002</text>
<polyline fill="none" stroke="black" points="49.61,-219.1 620.1,-219.1 "/>
<text text-anchor="middle" x="334.85" y="-202.5" font-family="Courier New" font-size="14.00">0x0000000000000000000000000000000000000000000000000000000000000013</text>
<polyline fill="none" stroke="black" points="49.61,-194.3 620.1,-194.3 "/>
<text text-anchor="middle" x="334.85" y="-177.7" font-family="Courier New" font-size="14.00"> </text>
<polyline fill="none" stroke="black" points="620.1,-169.5 620.1,-343.1 "/>
<text text-anchor="middle" x="1017.96" y="-326.5" font-family="Courier New" font-size="14.00">type: &lt;inherited contract&gt;.variable (bytes)</text>
<polyline fill="none" stroke="black" points="620.1,-318.3 1415.82,-318.3 "/>
<text text-anchor="middle" x="695.31" y="-301.7" font-family="Courier New" font-size="14.00">unallocated (30)</text>
<polyline fill="none" stroke="black" points="770.52,-293.5 770.52,-318.3 "/>
<text text-anchor="middle" x="933.94" y="-301.7" font-family="Courier New" font-size="14.00">bool: Initializable._initializing (1)</text>
<polyline fill="none" stroke="black" points="1097.37,-293.5 1097.37,-318.3 "/>
<text text-anchor="middle" x="1256.59" y="-301.7" font-family="Courier New" font-size="14.00">bool: Initializable._initialized (1)</text>
<polyline fill="none" stroke="black" points="620.1,-293.5 1415.82,-293.5 "/>
<text text-anchor="middle" x="1017.61" y="-276.9" font-family="Courier New" font-size="14.00">EpochHistory: epochs (32)</text>
<polyline fill="none" stroke="black" points="620.1,-268.7 1415.82,-268.7 "/>
<text text-anchor="middle" x="1017.73" y="-252.1" font-family="Courier New" font-size="14.00">mapping(address=&gt;uint32): stakingContractAddTime (32)</text>
<polyline fill="none" stroke="black" points="620.1,-243.9 1415.82,-243.9 "/>
<text text-anchor="middle" x="1017.82" y="-227.3" font-family="Courier New" font-size="14.00">IVotes[]: stakingContracts (32)</text>
<polyline fill="none" stroke="black" points="620.1,-219.1 1415.82,-219.1 "/>
<text text-anchor="middle" x="1017.51" y="-202.5" font-family="Courier New" font-size="14.00">DialData[]: dials (32)</text>
<polyline fill="none" stroke="black" points="620.1,-194.3 1415.82,-194.3 "/>
<text text-anchor="middle" x="1017.53" y="-177.7" font-family="Courier New" font-size="14.00">mapping(address=&gt;VoterPreferences): voterPreferences (32)</text>
</g>
<!-- 1 -->
<g id="node2" class="node">
<title>1</title>
<polygon fill="#f2f2f2" stroke="black" points="1477.02,-338.9 1477.02,-413.3 2128.31,-413.3 2128.31,-338.9 1477.02,-338.9"/>
<text text-anchor="middle" x="1802.67" y="-396.7" font-family="Courier New" font-size="14.00">EpochHistory &lt;&lt;Struct&gt;&gt;</text>
<polyline fill="none" stroke="black" points="1477.02,-388.5 2128.31,-388.5 "/>
<text text-anchor="middle" x="1501.82" y="-371.9" font-family="Courier New" font-size="14.00">slot</text>
<polyline fill="none" stroke="black" points="1477.02,-363.7 1526.63,-363.7 "/>
<text text-anchor="middle" x="1501.82" y="-347.1" font-family="Courier New" font-size="14.00">1</text>
<polyline fill="none" stroke="black" points="1526.63,-338.9 1526.63,-388.5 "/>
<text text-anchor="middle" x="1555.63" y="-371.9" font-family="Courier New" font-size="14.00">value</text>
<polyline fill="none" stroke="black" points="1526.63,-363.7 1584.63,-363.7 "/>
<text text-anchor="middle" x="1555.63" y="-347.1" font-family="Courier New" font-size="14.00"> </text>
<polyline fill="none" stroke="black" points="1584.63,-338.9 1584.63,-388.5 "/>
<text text-anchor="middle" x="1856.47" y="-371.9" font-family="Courier New" font-size="14.00">type: variable (bytes)</text>
<polyline fill="none" stroke="black" points="1584.63,-363.7 2128.31,-363.7 "/>
<text text-anchor="middle" x="1659.84" y="-347.1" font-family="Courier New" font-size="14.00">unallocated (24)</text>
<polyline fill="none" stroke="black" points="1735.06,-338.9 1735.06,-363.7 "/>
<text text-anchor="middle" x="1831.27" y="-347.1" font-family="Courier New" font-size="14.00">uint32: lastEpoch (4)</text>
<polyline fill="none" stroke="black" points="1927.48,-338.9 1927.48,-363.7 "/>
<text text-anchor="middle" x="2027.9" y="-347.1" font-family="Courier New" font-size="14.00">uint32: startEpoch (4)</text>
</g>
<!-- 8&#45;&gt;1 -->
<g id="edge1" class="edge">
<title>8:5&#45;&gt;1</title>
<path fill="none" stroke="black" d="M1415.82,-281.1C1442.48,-281.1 1428.81,-315.61 1451.82,-329.1 1456.98,-332.13 1462.26,-334.99 1467.64,-337.71"/>
<polygon fill="black" stroke="black" points="1466.26,-340.92 1476.78,-342.12 1469.3,-334.62 1466.26,-340.92"/>
</g>
<!-- 2 -->
<g id="node3" class="node">
<title>2</title>
<polygon fill="#f2f2f2" stroke="black" points="1517.42,-228.5 1517.42,-319.7 2087.91,-319.7 2087.91,-228.5 1517.42,-228.5"/>
<text text-anchor="middle" x="1802.67" y="-303.1" font-family="Courier New" font-size="14.00">IVotes[]: stakingContracts &lt;&lt;Array&gt;&gt;</text>
<text text-anchor="middle" x="1802.67" y="-286.3" font-family="Courier New" font-size="14.00">0x11987c15ef5ed64ec2e3cd9cfc79d7bd155aea3982ea59f35a5e6b5c1593a54b</text>
<polyline fill="none" stroke="black" points="1517.42,-278.1 2087.91,-278.1 "/>
<text text-anchor="middle" x="1576.23" y="-261.5" font-family="Courier New" font-size="14.00">slot</text>
<polyline fill="none" stroke="black" points="1517.42,-253.3 1635.03,-253.3 "/>
<text text-anchor="middle" x="1576.23" y="-236.7" font-family="Courier New" font-size="14.00">0</text>
<polyline fill="none" stroke="black" points="1635.03,-228.5 1635.03,-278.1 "/>
<text text-anchor="middle" x="1698.03" y="-261.5" font-family="Courier New" font-size="14.00">value</text>
<polyline fill="none" stroke="black" points="1635.03,-253.3 1761.04,-253.3 "/>
<text text-anchor="middle" x="1698.03" y="-236.7" font-family="Courier New" font-size="14.00"> </text>
<polyline fill="none" stroke="black" points="1761.04,-228.5 1761.04,-278.1 "/>
<text text-anchor="middle" x="1924.45" y="-261.5" font-family="Courier New" font-size="14.00">type: variable (bytes)</text>
<polyline fill="none" stroke="black" points="1761.04,-253.3 2087.87,-253.3 "/>
<text text-anchor="middle" x="1853.25" y="-236.7" font-family="Courier New" font-size="14.00">unallocated (12)</text>
<polyline fill="none" stroke="black" points="1945.46,-228.5 1945.46,-253.3 "/>
<text text-anchor="middle" x="2016.66" y="-236.7" font-family="Courier New" font-size="14.00">IVotes (20)</text>
</g>
<!-- 8&#45;&gt;2 -->
<g id="edge2" class="edge">
<title>8:8&#45;&gt;2</title>
<path fill="none" stroke="black" d="M1415.82,-231.1C1445.54,-231.1 1476.48,-232.38 1507.32,-234.49"/>
<polygon fill="black" stroke="black" points="1507.11,-237.98 1517.33,-235.2 1507.61,-231 1507.11,-237.98"/>
</g>
<!-- 6 -->
<g id="node7" class="node">
<title>6</title>
<polygon fill="#f2f2f2" stroke="black" points="1517.42,-118.5 1517.42,-209.7 2087.91,-209.7 2087.91,-118.5 1517.42,-118.5"/>
<text text-anchor="middle" x="1802.67" y="-193.1" font-family="Courier New" font-size="14.00">DialData[]: dials &lt;&lt;Array&gt;&gt;</text>
<text text-anchor="middle" x="1802.67" y="-176.3" font-family="Courier New" font-size="14.00">0x68f9c7fa29c0442459fc0d2760448ff932de4dd67b90b4a6ac1899621cfd70a7</text>
<polyline fill="none" stroke="black" points="1517.42,-168.1 2087.91,-168.1 "/>
<text text-anchor="middle" x="1585.73" y="-151.5" font-family="Courier New" font-size="14.00">slot</text>
<polyline fill="none" stroke="black" points="1517.42,-143.3 1654.03,-143.3 "/>
<text text-anchor="middle" x="1585.73" y="-126.7" font-family="Courier New" font-size="14.00">0</text>
<polyline fill="none" stroke="black" points="1654.03,-118.5 1654.03,-168.1 "/>
<text text-anchor="middle" x="1726.53" y="-151.5" font-family="Courier New" font-size="14.00">value</text>
<polyline fill="none" stroke="black" points="1654.03,-143.3 1799.04,-143.3 "/>
<text text-anchor="middle" x="1726.53" y="-126.7" font-family="Courier New" font-size="14.00"> </text>
<polyline fill="none" stroke="black" points="1799.04,-118.5 1799.04,-168.1 "/>
<text text-anchor="middle" x="1943.45" y="-151.5" font-family="Courier New" font-size="14.00">type: variable (bytes)</text>
<polyline fill="none" stroke="black" points="1799.04,-143.3 2087.87,-143.3 "/>
<text text-anchor="middle" x="1943.14" y="-126.7" font-family="Courier New" font-size="14.00">DialData (96)</text>
</g>
<!-- 8&#45;&gt;6 -->
<g id="edge3" class="edge">
<title>8:19&#45;&gt;6</title>
<path fill="none" stroke="black" d="M1415.82,-207.1C1445.54,-207.1 1476.48,-205.82 1507.32,-203.71"/>
<polygon fill="black" stroke="black" points="1507.61,-207.2 1517.33,-203 1507.11,-200.22 1507.61,-207.2"/>
</g>
<!-- 7 -->
<g id="node8" class="node">
<title>7</title>
<polygon fill="#f2f2f2" stroke="black" points="1451.82,-0.5 1451.82,-99.7 2153.52,-99.7 2153.52,-0.5 1451.82,-0.5"/>
<text text-anchor="middle" x="1802.67" y="-83.1" font-family="Courier New" font-size="14.00">VoterPreferences &lt;&lt;Struct&gt;&gt;</text>
<polyline fill="none" stroke="black" points="1451.82,-74.9 2153.52,-74.9 "/>
<text text-anchor="middle" x="1476.62" y="-58.3" font-family="Courier New" font-size="14.00">slot</text>
<polyline fill="none" stroke="black" points="1451.82,-50.1 1501.42,-50.1 "/>
<text text-anchor="middle" x="1476.62" y="-33.5" font-family="Courier New" font-size="14.00">0</text>
<polyline fill="none" stroke="black" points="1451.82,-25.3 1501.42,-25.3 "/>
<text text-anchor="middle" x="1476.62" y="-8.7" font-family="Courier New" font-size="14.00">1</text>
<polyline fill="none" stroke="black" points="1501.42,-0.5 1501.42,-74.9 "/>
<text text-anchor="middle" x="1530.43" y="-58.3" font-family="Courier New" font-size="14.00">value</text>
<polyline fill="none" stroke="black" points="1501.42,-50.1 1559.43,-50.1 "/>
<text text-anchor="middle" x="1530.43" y="-33.5" font-family="Courier New" font-size="14.00"> </text>
<polyline fill="none" stroke="black" points="1501.42,-25.3 1559.43,-25.3 "/>
<text text-anchor="middle" x="1530.43" y="-8.7" font-family="Courier New" font-size="14.00"> </text>
<polyline fill="none" stroke="black" points="1559.43,-0.5 1559.43,-74.9 "/>
<text text-anchor="middle" x="1856.47" y="-58.3" font-family="Courier New" font-size="14.00">type: variable (bytes)</text>
<polyline fill="none" stroke="black" points="1559.43,-50.1 2153.52,-50.1 "/>
<text text-anchor="middle" x="1856.45" y="-33.5" font-family="Courier New" font-size="14.00">uint256: dialWeights (32)</text>
<polyline fill="none" stroke="black" points="1559.43,-25.3 2153.52,-25.3 "/>
<text text-anchor="middle" x="1634.64" y="-8.7" font-family="Courier New" font-size="14.00">unallocated (12)</text>
<polyline fill="none" stroke="black" points="1709.85,-0.5 1709.85,-25.3 "/>
<text text-anchor="middle" x="1827.07" y="-8.7" font-family="Courier New" font-size="14.00">uint32: lastSourcePoke (4)</text>
<polyline fill="none" stroke="black" points="1944.29,-0.5 1944.29,-25.3 "/>
<text text-anchor="middle" x="2048.9" y="-8.7" font-family="Courier New" font-size="14.00">uint128: votesCast (16)</text>
</g>
<!-- 8&#45;&gt;7 -->
<g id="edge4" class="edge">
<title>8:23&#45;&gt;7</title>
<path fill="none" stroke="black" d="M1415.82,-182.1C1451.99,-182.1 1422.8,-130.7 1451.82,-109.1 1453.44,-107.89 1455.08,-106.71 1456.73,-105.54"/>
<polygon fill="black" stroke="black" points="1458.78,-108.38 1465.11,-99.89 1454.87,-102.58 1458.78,-108.38"/>
</g>
<!-- 3 -->
<g id="node4" class="node">
<title>3</title>
<polygon fill="#f2f2f2" stroke="black" points="3725.34,-10.9 3725.34,-85.3 4317.82,-85.3 4317.82,-10.9 3725.34,-10.9"/>
<text text-anchor="middle" x="4021.58" y="-68.7" font-family="Courier New" font-size="14.00">HistoricVotes &lt;&lt;Struct&gt;&gt;</text>
<polyline fill="none" stroke="black" points="3725.34,-60.5 4317.82,-60.5 "/>
<text text-anchor="middle" x="3750.14" y="-43.9" font-family="Courier New" font-size="14.00">slot</text>
<polyline fill="none" stroke="black" points="3725.34,-35.7 3774.94,-35.7 "/>
<text text-anchor="middle" x="3750.14" y="-19.1" font-family="Courier New" font-size="14.00">0</text>
<polyline fill="none" stroke="black" points="3774.94,-10.9 3774.94,-60.5 "/>
<text text-anchor="middle" x="3803.94" y="-43.9" font-family="Courier New" font-size="14.00">value</text>
<polyline fill="none" stroke="black" points="3774.94,-35.7 3832.95,-35.7 "/>
<text text-anchor="middle" x="3803.94" y="-19.1" font-family="Courier New" font-size="14.00"> </text>
<polyline fill="none" stroke="black" points="3832.95,-10.9 3832.95,-60.5 "/>
<text text-anchor="middle" x="4075.38" y="-43.9" font-family="Courier New" font-size="14.00">type: variable (bytes)</text>
<polyline fill="none" stroke="black" points="3832.95,-35.7 4317.82,-35.7 "/>
<text text-anchor="middle" x="3908.16" y="-19.1" font-family="Courier New" font-size="14.00">unallocated (12)</text>
<polyline fill="none" stroke="black" points="3983.37,-10.9 3983.37,-35.7 "/>
<text text-anchor="middle" x="4062.78" y="-19.1" font-family="Courier New" font-size="14.00">uint32: epoch (4)</text>
<polyline fill="none" stroke="black" points="4142.19,-10.9 4142.19,-35.7 "/>
<text text-anchor="middle" x="4230.01" y="-19.1" font-family="Courier New" font-size="14.00">uint128: votes (16)</text>
</g>
<!-- 4 -->
<g id="node5" class="node">
<title>4</title>
<polygon fill="#f2f2f2" stroke="black" points="3118.85,-35.5 3118.85,-126.7 3689.34,-126.7 3689.34,-35.5 3118.85,-35.5"/>
<text text-anchor="middle" x="3404.09" y="-110.1" font-family="Courier New" font-size="14.00">HistoricVotes[]: voteHistory &lt;&lt;Array&gt;&gt;</text>
<text text-anchor="middle" x="3404.09" y="-93.3" font-family="Courier New" font-size="14.00">0xd3974deccfd8aa6b77f0fcc2c0014e6e0574d32e56c1d75717d2667b529cd073</text>
<polyline fill="none" stroke="black" points="3118.85,-85.1 3689.34,-85.1 "/>
<text text-anchor="middle" x="3187.15" y="-68.5" font-family="Courier New" font-size="14.00">slot</text>
<polyline fill="none" stroke="black" points="3118.85,-60.3 3255.45,-60.3 "/>
<text text-anchor="middle" x="3187.15" y="-43.7" font-family="Courier New" font-size="14.00">0</text>
<polyline fill="none" stroke="black" points="3255.45,-35.5 3255.45,-85.1 "/>
<text text-anchor="middle" x="3327.95" y="-68.5" font-family="Courier New" font-size="14.00">value</text>
<polyline fill="none" stroke="black" points="3255.45,-60.3 3400.46,-60.3 "/>
<text text-anchor="middle" x="3327.95" y="-43.7" font-family="Courier New" font-size="14.00"> </text>
<polyline fill="none" stroke="black" points="3400.46,-35.5 3400.46,-85.1 "/>
<text text-anchor="middle" x="3544.87" y="-68.5" font-family="Courier New" font-size="14.00">type: variable (bytes)</text>
<polyline fill="none" stroke="black" points="3400.46,-60.3 3689.29,-60.3 "/>
<text text-anchor="middle" x="3544.57" y="-43.7" font-family="Courier New" font-size="14.00">HistoricVotes (32)</text>
</g>
<!-- 4&#45;&gt;3 -->
<g id="edge5" class="edge">
<title>4:15&#45;&gt;3</title>
<path fill="none" stroke="black" d="M3689.34,-48.1C3697.81,-48.1 3706.4,-48.1 3715.08,-48.1"/>
<polygon fill="black" stroke="black" points="3715.3,-51.6 3725.3,-48.1 3715.3,-44.6 3715.3,-51.6"/>
</g>
<!-- 5 -->
<g id="node6" class="node">
<title>5</title>
<polygon fill="#f2f2f2" stroke="black" points="2189.52,-69.1 2189.52,-193.1 3082.85,-193.1 3082.85,-69.1 2189.52,-69.1"/>
<text text-anchor="middle" x="2636.18" y="-176.5" font-family="Courier New" font-size="14.00">DialData &lt;&lt;Struct&gt;&gt;</text>
<polyline fill="none" stroke="black" points="2189.52,-168.3 3082.85,-168.3 "/>
<text text-anchor="middle" x="2214.32" y="-151.7" font-family="Courier New" font-size="14.00">slot</text>
<polyline fill="none" stroke="black" points="2189.52,-143.5 2239.12,-143.5 "/>
<text text-anchor="middle" x="2214.32" y="-126.9" font-family="Courier New" font-size="14.00">0</text>
<polyline fill="none" stroke="black" points="2189.52,-118.7 2239.12,-118.7 "/>
<text text-anchor="middle" x="2214.32" y="-102.1" font-family="Courier New" font-size="14.00">1</text>
<polyline fill="none" stroke="black" points="2189.52,-93.9 2239.12,-93.9 "/>
<text text-anchor="middle" x="2214.32" y="-77.3" font-family="Courier New" font-size="14.00">2</text>
<polyline fill="none" stroke="black" points="2239.12,-69.1 2239.12,-168.3 "/>
<text text-anchor="middle" x="2268.13" y="-151.7" font-family="Courier New" font-size="14.00">value</text>
<polyline fill="none" stroke="black" points="2239.12,-143.5 2297.13,-143.5 "/>
<text text-anchor="middle" x="2268.13" y="-126.9" font-family="Courier New" font-size="14.00"> </text>
<polyline fill="none" stroke="black" points="2239.12,-118.7 2297.13,-118.7 "/>
<text text-anchor="middle" x="2268.13" y="-102.1" font-family="Courier New" font-size="14.00"> </text>
<polyline fill="none" stroke="black" points="2239.12,-93.9 2297.13,-93.9 "/>
<text text-anchor="middle" x="2268.13" y="-77.3" font-family="Courier New" font-size="14.00"> </text>
<polyline fill="none" stroke="black" points="2297.13,-69.1 2297.13,-168.3 "/>
<text text-anchor="middle" x="2689.99" y="-151.7" font-family="Courier New" font-size="14.00">type: variable (bytes)</text>
<polyline fill="none" stroke="black" points="2297.13,-143.5 3082.85,-143.5 "/>
<text text-anchor="middle" x="2372.34" y="-126.9" font-family="Courier New" font-size="14.00">unallocated (17)</text>
<polyline fill="none" stroke="black" points="2447.55,-118.7 2447.55,-143.5 "/>
<text text-anchor="middle" x="2539.57" y="-126.9" font-family="Courier New" font-size="14.00">uint96: balance (12)</text>
<polyline fill="none" stroke="black" points="2631.58,-118.7 2631.58,-143.5 "/>
<text text-anchor="middle" x="2698.39" y="-126.9" font-family="Courier New" font-size="14.00">uint8: cap (1)</text>
<polyline fill="none" stroke="black" points="2765.2,-118.7 2765.2,-143.5 "/>
<text text-anchor="middle" x="2840.41" y="-126.9" font-family="Courier New" font-size="14.00">bool: notify (1)</text>
<polyline fill="none" stroke="black" points="2915.62,-118.7 2915.62,-143.5 "/>
<text text-anchor="middle" x="2999.23" y="-126.9" font-family="Courier New" font-size="14.00">bool: disabled (1)</text>
<polyline fill="none" stroke="black" points="2297.13,-118.7 3082.85,-118.7 "/>
<text text-anchor="middle" x="2478.84" y="-102.1" font-family="Courier New" font-size="14.00">unallocated (12)</text>
<polyline fill="none" stroke="black" points="2660.55,-93.9 2660.55,-118.7 "/>
<text text-anchor="middle" x="2871.67" y="-102.1" font-family="Courier New" font-size="14.00">address: recipient (20)</text>
<polyline fill="none" stroke="black" points="2297.13,-93.9 3082.85,-93.9 "/>
<text text-anchor="middle" x="2689.75" y="-77.3" font-family="Courier New" font-size="14.00">HistoricVotes[]: voteHistory (32)</text>
</g>
<!-- 5&#45;&gt;4 -->
<g id="edge6" class="edge">
<title>5:18&#45;&gt;4</title>
<path fill="none" stroke="black" d="M3082.85,-81.1C3091.24,-81.1 3099.75,-81.1 3108.35,-81.1"/>
<polygon fill="black" stroke="black" points="3108.47,-84.6 3118.47,-81.1 3108.47,-77.6 3108.47,-84.6"/>
</g>
<!-- 6&#45;&gt;5 -->
<g id="edge7" class="edge">
<title>6:9&#45;&gt;5</title>
<path fill="none" stroke="black" d="M2088.67,-131.1C2118.08,-131.1 2148.38,-131.1 2178.92,-131.1"/>
<polygon fill="black" stroke="black" points="2179.29,-134.6 2189.29,-131.1 2179.29,-127.6 2179.29,-134.6"/>
</g>
</g>
</svg>
