<?xml version="1.0" encoding="UTF-8" standalone="no"?>
<!DOCTYPE svg PUBLIC "-//W3C//DTD SVG 1.1//EN"
 "http://www.w3.org/Graphics/SVG/1.1/DTD/svg11.dtd">
<!-- Generated by graphviz version 5.0.0 (20220707.1540)
 -->
<!-- Title: StorageDiagram Pages: 1 -->
<svg width="860pt" height="183pt"
 viewBox="0.00 0.00 860.12 182.60" xmlns="http://www.w3.org/2000/svg" xmlns:xlink="http://www.w3.org/1999/xlink">
<g id="graph0" class="graph" transform="scale(1 1) rotate(0) translate(4 178.6)">
<title>StorageDiagram</title>
<polygon fill="white" stroke="transparent" points="-4,4 -4,-178.6 856.12,-178.6 856.12,4 -4,4"/>
<!-- 1 -->
<g id="node1" class="node">
<title>1</title>
<polygon fill="#f2f2f2" stroke="black" points="0,-0.5 0,-174.1 852.12,-174.1 852.12,-0.5 0,-0.5"/>
<text text-anchor="middle" x="426.06" y="-157.5" font-family="Courier New" font-size="14.00">D &lt;&lt;Contract&gt;&gt;</text>
<polyline fill="none" stroke="black" points="0,-149.3 852.12,-149.3 "/>
<text text-anchor="middle" x="24.8" y="-132.7" font-family="Courier New" font-size="14.00">slot</text>
<polyline fill="none" stroke="black" points="0,-124.5 49.61,-124.5 "/>
<text text-anchor="middle" x="24.8" y="-107.9" font-family="Courier New" font-size="14.00">0</text>
<polyline fill="none" stroke="black" points="0,-99.7 49.61,-99.7 "/>
<text text-anchor="middle" x="24.8" y="-83.1" font-family="Courier New" font-size="14.00">1</text>
<polyline fill="none" stroke="black" points="0,-74.9 49.61,-74.9 "/>
<text text-anchor="middle" x="24.8" y="-58.3" font-family="Courier New" font-size="14.00">2</text>
<polyline fill="none" stroke="black" points="0,-50.1 49.61,-50.1 "/>
<text text-anchor="middle" x="24.8" y="-33.5" font-family="Courier New" font-size="14.00">3</text>
<polyline fill="none" stroke="black" points="0,-25.3 49.61,-25.3 "/>
<text text-anchor="middle" x="24.8" y="-8.7" font-family="Courier New" font-size="14.00">4</text>
<polyline fill="none" stroke="black" points="49.61,-0.5 49.61,-149.3 "/>
<text text-anchor="middle" x="450.86" y="-132.7" font-family="Courier New" font-size="14.00">type: &lt;inherited contract&gt;.variable (bytes)</text>
<polyline fill="none" stroke="black" points="49.61,-124.5 852.12,-124.5 "/>
<text text-anchor="middle" x="120.62" y="-107.9" font-family="Courier New" font-size="14.00">unallocated (9)</text>
<polyline fill="none" stroke="black" points="191.63,-99.7 191.63,-124.5 "/>
<text text-anchor="middle" x="271.04" y="-107.9" font-family="Courier New" font-size="14.00">bool: C.flagC (1)</text>
<polyline fill="none" stroke="black" points="350.45,-99.7 350.45,-124.5 "/>
<text text-anchor="middle" x="429.86" y="-107.9" font-family="Courier New" font-size="14.00">bool: B.flagB (1)</text>
<polyline fill="none" stroke="black" points="509.27,-99.7 509.27,-124.5 "/>
<text text-anchor="middle" x="605.49" y="-107.9" font-family="Courier New" font-size="14.00">address: A.token (20)</text>
<polyline fill="none" stroke="black" points="701.7,-99.7 701.7,-124.5 "/>
<text text-anchor="middle" x="776.91" y="-107.9" font-family="Courier New" font-size="14.00">bool: A.flag (1)</text>
<polyline fill="none" stroke="black" points="49.61,-99.7 852.12,-99.7 "/>
<text text-anchor="middle" x="450.52" y="-83.1" font-family="Courier New" font-size="14.00">uint256: A._count (32)</text>
<polyline fill="none" stroke="black" points="49.61,-74.9 852.12,-74.9 "/>
<text text-anchor="middle" x="450.52" y="-58.3" font-family="Courier New" font-size="14.00">uint256: B._total (32)</text>
<polyline fill="none" stroke="black" points="49.61,-50.1 852.12,-50.1 "/>
<text text-anchor="middle" x="450.62" y="-33.5" font-family="Courier New" font-size="14.00">uint256: C2.max (32)</text>
<polyline fill="none" stroke="black" points="49.61,-25.3 852.12,-25.3 "/>
<text text-anchor="middle" x="143.32" y="-8.7" font-family="Courier New" font-size="14.00">unallocated (10)</text>
<polyline fill="none" stroke="black" points="237.03,-0.5 237.03,-25.3 "/>
<text text-anchor="middle" x="327.04" y="-8.7" font-family="Courier New" font-size="14.00">bool: flagD (1)</text>
<polyline fill="none" stroke="black" points="417.05,-0.5 417.05,-25.3 "/>
<text text-anchor="middle" x="519.16" y="-8.7" font-family="Courier New" font-size="14.00">uint8: F.index (1)</text>
<polyline fill="none" stroke="black" points="621.27,-0.5 621.27,-25.3 "/>
<text text-anchor="middle" x="736.49" y="-8.7" font-family="Courier New" font-size="14.00">address: E.owner (20)</text>
</g>
</g>
</svg>
