<?xml version="1.0" encoding="UTF-8" standalone="no"?>
<!DOCTYPE svg PUBLIC "-//W3C//DTD SVG 1.1//EN"
 "http://www.w3.org/Graphics/SVG/1.1/DTD/svg11.dtd">
<!-- Generated by graphviz version 5.0.0 (20220707.1540)
 -->
<!-- Title: StorageDiagram Pages: 1 -->
<svg width="1790pt" height="1498pt"
 viewBox="0.00 0.00 1790.37 1498.00" xmlns="http://www.w3.org/2000/svg" xmlns:xlink="http://www.w3.org/1999/xlink">
<g id="graph0" class="graph" transform="scale(1 1) rotate(0) translate(4 1494)">
<title>StorageDiagram</title>
<polygon fill="white" stroke="transparent" points="-4,4 -4,-1494 1786.37,-1494 1786.37,4 -4,4"/>
<!-- 10 -->
<g id="node1" class="node">
<title>10</title>
<polygon fill="#f2f2f2" stroke="black" points="0,-224.7 0,-1489.5 716.85,-1489.5 716.85,-224.7 0,-224.7"/>
<text text-anchor="middle" x="358.42" y="-1472.9" font-family="Times,serif" font-size="14.00">TestStorage &lt;&lt;Contract&gt;&gt;</text>
<polyline fill="none" stroke="black" points="0,-1464.7 716.85,-1464.7 "/>
<text text-anchor="middle" x="31.33" y="-1448.1" font-family="Times,serif" font-size="14.00">slot</text>
<polyline fill="none" stroke="black" points="0,-1439.9 62.66,-1439.9 "/>
<text text-anchor="middle" x="31.33" y="-1423.3" font-family="Times,serif" font-size="14.00">0</text>
<polyline fill="none" stroke="black" points="0,-1415.1 62.66,-1415.1 "/>
<text text-anchor="middle" x="31.33" y="-1398.5" font-family="Times,serif" font-size="14.00">1</text>
<polyline fill="none" stroke="black" points="0,-1390.3 62.66,-1390.3 "/>
<text text-anchor="middle" x="31.33" y="-1373.7" font-family="Times,serif" font-size="14.00">2</text>
<polyline fill="none" stroke="black" points="0,-1365.5 62.66,-1365.5 "/>
<text text-anchor="middle" x="31.33" y="-1348.9" font-family="Times,serif" font-size="14.00">3</text>
<polyline fill="none" stroke="black" points="0,-1340.7 62.66,-1340.7 "/>
<text text-anchor="middle" x="31.33" y="-1324.1" font-family="Times,serif" font-size="14.00">4</text>
<polyline fill="none" stroke="black" points="0,-1315.9 62.66,-1315.9 "/>
<text text-anchor="middle" x="31.33" y="-1299.3" font-family="Times,serif" font-size="14.00">5</text>
<polyline fill="none" stroke="black" points="0,-1291.1 62.66,-1291.1 "/>
<text text-anchor="middle" x="31.33" y="-1274.5" font-family="Times,serif" font-size="14.00">6&#45;7</text>
<polyline fill="none" stroke="black" points="0,-1266.3 62.66,-1266.3 "/>
<text text-anchor="middle" x="31.33" y="-1249.7" font-family="Times,serif" font-size="14.00">8&#45;19</text>
<polyline fill="none" stroke="black" points="0,-1241.5 62.66,-1241.5 "/>
<text text-anchor="middle" x="31.33" y="-1224.9" font-family="Times,serif" font-size="14.00">20&#45;21</text>
<polyline fill="none" stroke="black" points="0,-1216.7 62.66,-1216.7 "/>
<text text-anchor="middle" x="31.33" y="-1200.1" font-family="Times,serif" font-size="14.00">22&#45;33</text>
<polyline fill="none" stroke="black" points="0,-1191.9 62.66,-1191.9 "/>
<text text-anchor="middle" x="31.33" y="-1175.3" font-family="Times,serif" font-size="14.00">34&#45;36</text>
<polyline fill="none" stroke="black" points="0,-1167.1 62.66,-1167.1 "/>
<text text-anchor="middle" x="31.33" y="-1150.5" font-family="Times,serif" font-size="14.00">37&#45;38</text>
<polyline fill="none" stroke="black" points="0,-1142.3 62.66,-1142.3 "/>
<text text-anchor="middle" x="31.33" y="-1125.7" font-family="Times,serif" font-size="14.00">39</text>
<polyline fill="none" stroke="black" points="0,-1117.5 62.66,-1117.5 "/>
<text text-anchor="middle" x="31.33" y="-1100.9" font-family="Times,serif" font-size="14.00">40</text>
<polyline fill="none" stroke="black" points="0,-1092.7 62.66,-1092.7 "/>
<text text-anchor="middle" x="31.33" y="-1076.1" font-family="Times,serif" font-size="14.00">41</text>
<polyline fill="none" stroke="black" points="0,-1067.9 62.66,-1067.9 "/>
<text text-anchor="middle" x="31.33" y="-1051.3" font-family="Times,serif" font-size="14.00">42</text>
<polyline fill="none" stroke="black" points="0,-1043.1 62.66,-1043.1 "/>
<text text-anchor="middle" x="31.33" y="-1026.5" font-family="Times,serif" font-size="14.00">43</text>
<polyline fill="none" stroke="black" points="0,-1018.3 62.66,-1018.3 "/>
<text text-anchor="middle" x="31.33" y="-1001.7" font-family="Times,serif" font-size="14.00">44</text>
<polyline fill="none" stroke="black" points="0,-993.5 62.66,-993.5 "/>
<text text-anchor="middle" x="31.33" y="-976.9" font-family="Times,serif" font-size="14.00">45</text>
<polyline fill="none" stroke="black" points="0,-968.7 62.66,-968.7 "/>
<text text-anchor="middle" x="31.33" y="-952.1" font-family="Times,serif" font-size="14.00">46&#45;47</text>
<polyline fill="none" stroke="black" points="0,-943.9 62.66,-943.9 "/>
<text text-anchor="middle" x="31.33" y="-927.3" font-family="Times,serif" font-size="14.00">48</text>
<polyline fill="none" stroke="black" points="0,-919.1 62.66,-919.1 "/>
<text text-anchor="middle" x="31.33" y="-902.5" font-family="Times,serif" font-size="14.00">49&#45;51</text>
<polyline fill="none" stroke="black" points="0,-894.3 62.66,-894.3 "/>
<text text-anchor="middle" x="31.33" y="-877.7" font-family="Times,serif" font-size="14.00">52</text>
<polyline fill="none" stroke="black" points="0,-869.5 62.66,-869.5 "/>
<text text-anchor="middle" x="31.33" y="-852.9" font-family="Times,serif" font-size="14.00">53&#45;54</text>
<polyline fill="none" stroke="black" points="0,-844.7 62.66,-844.7 "/>
<text text-anchor="middle" x="31.33" y="-828.1" font-family="Times,serif" font-size="14.00">55&#45;58</text>
<polyline fill="none" stroke="black" points="0,-819.9 62.66,-819.9 "/>
<text text-anchor="middle" x="31.33" y="-803.3" font-family="Times,serif" font-size="14.00">59</text>
<polyline fill="none" stroke="black" points="0,-795.1 62.66,-795.1 "/>
<text text-anchor="middle" x="31.33" y="-778.5" font-family="Times,serif" font-size="14.00">60</text>
<polyline fill="none" stroke="black" points="0,-770.3 62.66,-770.3 "/>
<text text-anchor="middle" x="31.33" y="-753.7" font-family="Times,serif" font-size="14.00">61</text>
<polyline fill="none" stroke="black" points="0,-745.5 62.66,-745.5 "/>
<text text-anchor="middle" x="31.33" y="-728.9" font-family="Times,serif" font-size="14.00">62</text>
<polyline fill="none" stroke="black" points="0,-720.7 62.66,-720.7 "/>
<text text-anchor="middle" x="31.33" y="-704.1" font-family="Times,serif" font-size="14.00">63&#45;70</text>
<polyline fill="none" stroke="black" points="0,-695.9 62.66,-695.9 "/>
<text text-anchor="middle" x="31.33" y="-679.3" font-family="Times,serif" font-size="14.00">71</text>
<polyline fill="none" stroke="black" points="0,-671.1 62.66,-671.1 "/>
<text text-anchor="middle" x="31.33" y="-654.5" font-family="Times,serif" font-size="14.00">72&#45;83</text>
<polyline fill="none" stroke="black" points="0,-646.3 62.66,-646.3 "/>
<text text-anchor="middle" x="31.33" y="-629.7" font-family="Times,serif" font-size="14.00">84&#45;95</text>
<polyline fill="none" stroke="black" points="0,-621.5 62.66,-621.5 "/>
<text text-anchor="middle" x="31.33" y="-604.9" font-family="Times,serif" font-size="14.00">96</text>
<polyline fill="none" stroke="black" points="0,-596.7 62.66,-596.7 "/>
<text text-anchor="middle" x="31.33" y="-580.1" font-family="Times,serif" font-size="14.00">97</text>
<polyline fill="none" stroke="black" points="0,-571.9 62.66,-571.9 "/>
<text text-anchor="middle" x="31.33" y="-555.3" font-family="Times,serif" font-size="14.00">98</text>
<polyline fill="none" stroke="black" points="0,-547.1 62.66,-547.1 "/>
<text text-anchor="middle" x="31.33" y="-530.5" font-family="Times,serif" font-size="14.00">99</text>
<polyline fill="none" stroke="black" points="0,-522.3 62.66,-522.3 "/>
<text text-anchor="middle" x="31.33" y="-505.7" font-family="Times,serif" font-size="14.00">100&#45;101</text>
<polyline fill="none" stroke="black" points="0,-497.5 62.66,-497.5 "/>
<text text-anchor="middle" x="31.33" y="-480.9" font-family="Times,serif" font-size="14.00">102&#45;103</text>
<polyline fill="none" stroke="black" points="0,-472.7 62.66,-472.7 "/>
<text text-anchor="middle" x="31.33" y="-456.1" font-family="Times,serif" font-size="14.00">104&#45;107</text>
<polyline fill="none" stroke="black" points="0,-447.9 62.66,-447.9 "/>
<text text-anchor="middle" x="31.33" y="-431.3" font-family="Times,serif" font-size="14.00">108&#45;110</text>
<polyline fill="none" stroke="black" points="0,-423.1 62.66,-423.1 "/>
<text text-anchor="middle" x="31.33" y="-406.5" font-family="Times,serif" font-size="14.00">111</text>
<polyline fill="none" stroke="black" points="0,-398.3 62.66,-398.3 "/>
<text text-anchor="middle" x="31.33" y="-381.7" font-family="Times,serif" font-size="14.00">112</text>
<polyline fill="none" stroke="black" points="0,-373.5 62.66,-373.5 "/>
<text text-anchor="middle" x="31.33" y="-356.9" font-family="Times,serif" font-size="14.00">113&#45;115</text>
<polyline fill="none" stroke="black" points="0,-348.7 62.66,-348.7 "/>
<text text-anchor="middle" x="31.33" y="-332.1" font-family="Times,serif" font-size="14.00">116</text>
<polyline fill="none" stroke="black" points="0,-323.9 62.66,-323.9 "/>
<text text-anchor="middle" x="31.33" y="-307.3" font-family="Times,serif" font-size="14.00">117</text>
<polyline fill="none" stroke="black" points="0,-299.1 62.66,-299.1 "/>
<text text-anchor="middle" x="31.33" y="-282.5" font-family="Times,serif" font-size="14.00">118</text>
<polyline fill="none" stroke="black" points="0,-274.3 62.66,-274.3 "/>
<text text-anchor="middle" x="31.33" y="-257.7" font-family="Times,serif" font-size="14.00">119</text>
<polyline fill="none" stroke="black" points="0,-249.5 62.66,-249.5 "/>
<text text-anchor="middle" x="31.33" y="-232.9" font-family="Times,serif" font-size="14.00">120</text>
<polyline fill="none" stroke="black" points="62.66,-224.7 62.66,-1464.7 "/>
<text text-anchor="middle" x="389.76" y="-1448.1" font-family="Times,serif" font-size="14.00">type: &lt;inherited contract&gt;.variable (bytes)</text>
<polyline fill="none" stroke="black" points="62.66,-1439.9 716.85,-1439.9 "/>
<text text-anchor="middle" x="116.34" y="-1423.3" font-family="Times,serif" font-size="14.00">unallocated (10)</text>
<polyline fill="none" stroke="black" points="170.01,-1415.1 170.01,-1439.9 "/>
<text text-anchor="middle" x="236.92" y="-1423.3" font-family="Times,serif" font-size="14.00">bool: Parent.initP (1)</text>
<polyline fill="none" stroke="black" points="303.83,-1415.1 303.83,-1439.9 "/>
<text text-anchor="middle" x="420.88" y="-1423.3" font-family="Times,serif" font-size="14.00">address: GrandParent.grandParent (20)</text>
<polyline fill="none" stroke="black" points="537.93,-1415.1 537.93,-1439.9 "/>
<text text-anchor="middle" x="627.39" y="-1423.3" font-family="Times,serif" font-size="14.00">bool: GrandParent.initGP (1)</text>
<polyline fill="none" stroke="black" points="62.66,-1415.1 716.85,-1415.1 "/>
<text text-anchor="middle" x="154.84" y="-1398.5" font-family="Times,serif" font-size="14.00">unallocated (11)</text>
<polyline fill="none" stroke="black" points="247.01,-1390.3 247.01,-1415.1 "/>
<text text-anchor="middle" x="359.92" y="-1398.5" font-family="Times,serif" font-size="14.00">bool: Parent2.initP2 (1)</text>
<polyline fill="none" stroke="black" points="472.83,-1390.3 472.83,-1415.1 "/>
<text text-anchor="middle" x="594.56" y="-1398.5" font-family="Times,serif" font-size="14.00">address: Parent.parent (20)</text>
<polyline fill="none" stroke="black" points="62.66,-1390.3 716.85,-1390.3 "/>
<text text-anchor="middle" x="207.84" y="-1373.7" font-family="Times,serif" font-size="14.00">unallocated (12)</text>
<polyline fill="none" stroke="black" points="353.01,-1365.5 353.01,-1390.3 "/>
<text text-anchor="middle" x="534.73" y="-1373.7" font-family="Times,serif" font-size="14.00">address: Parent2.parent2 (20)</text>
<polyline fill="none" stroke="black" points="62.66,-1365.5 716.85,-1365.5 "/>
<text text-anchor="middle" x="220.84" y="-1348.9" font-family="Times,serif" font-size="14.00">unallocated (12)</text>
<polyline fill="none" stroke="black" points="379.01,-1340.7 379.01,-1365.5 "/>
<text text-anchor="middle" x="547.6" y="-1348.9" font-family="Times,serif" font-size="14.00">address: owner (20)</text>
<polyline fill="none" stroke="black" points="62.66,-1340.7 716.85,-1340.7 "/>
<text text-anchor="middle" x="220.84" y="-1324.1" font-family="Times,serif" font-size="14.00">unallocated (12)</text>
<polyline fill="none" stroke="black" points="379.01,-1315.9 379.01,-1340.7 "/>
<text text-anchor="middle" x="547.61" y="-1324.1" font-family="Times,serif" font-size="14.00">IERC20: token (20)</text>
<polyline fill="none" stroke="black" points="62.66,-1315.9 716.85,-1315.9 "/>
<text text-anchor="middle" x="389.65" y="-1299.3" font-family="Times,serif" font-size="14.00">IERC20[]: tokens (32)</text>
<polyline fill="none" stroke="black" points="62.66,-1291.1 716.85,-1291.1 "/>
<text text-anchor="middle" x="389.7" y="-1274.5" font-family="Times,serif" font-size="14.00">IERC20[2]: tokenPair (64)</text>
<polyline fill="none" stroke="black" points="62.66,-1266.3 716.85,-1266.3 "/>
<text text-anchor="middle" x="389.7" y="-1249.7" font-family="Times,serif" font-size="14.00">IERC20[12]: dozenTokens (384)</text>
<polyline fill="none" stroke="black" points="62.66,-1241.5 716.85,-1241.5 "/>
<text text-anchor="middle" x="389.26" y="-1224.9" font-family="Times,serif" font-size="14.00">address[N_COINS]: coins (64)</text>
<polyline fill="none" stroke="black" points="62.66,-1216.7 716.85,-1216.7 "/>
<text text-anchor="middle" x="389.37" y="-1200.1" font-family="Times,serif" font-size="14.00">address[N_COINS][3][N_COINS]: multiDimension (384)</text>
<polyline fill="none" stroke="black" points="62.66,-1191.9 716.85,-1191.9 "/>
<text text-anchor="middle" x="389.55" y="-1175.3" font-family="Times,serif" font-size="14.00">uint256[MAX_COINS]: maxCoins (96)</text>
<polyline fill="none" stroke="black" points="62.66,-1167.1 716.85,-1167.1 "/>
<text text-anchor="middle" x="389.71" y="-1150.5" font-family="Times,serif" font-size="14.00">IERC20[N_COINS]: tokens (64)</text>
<polyline fill="none" stroke="black" points="62.66,-1142.3 716.85,-1142.3 "/>
<text text-anchor="middle" x="389.58" y="-1125.7" font-family="Times,serif" font-size="14.00">address[]: doubleTokens (32)</text>
<polyline fill="none" stroke="black" points="62.66,-1117.5 716.85,-1117.5 "/>
<text text-anchor="middle" x="389.44" y="-1100.9" font-family="Times,serif" font-size="14.00">uint256: totalSupply (32)</text>
<polyline fill="none" stroke="black" points="62.66,-1092.7 716.85,-1092.7 "/>
<text text-anchor="middle" x="226.15" y="-1076.1" font-family="Times,serif" font-size="14.00">uint128: rate2 (16)</text>
<polyline fill="none" stroke="black" points="389.63,-1067.9 389.63,-1092.7 "/>
<text text-anchor="middle" x="553.12" y="-1076.1" font-family="Times,serif" font-size="14.00">uint128: rate1 (16)</text>
<polyline fill="none" stroke="black" points="62.66,-1067.9 716.85,-1067.9 "/>
<text text-anchor="middle" x="389.38" y="-1051.3" font-family="Times,serif" font-size="14.00">bytes32: hash (32)</text>
<polyline fill="none" stroke="black" points="62.66,-1043.1 716.85,-1043.1 "/>
<text text-anchor="middle" x="131.84" y="-1026.5" font-family="Times,serif" font-size="14.00">unallocated (28)</text>
<polyline fill="none" stroke="black" points="201.01,-1018.3 201.01,-1043.1 "/>
<text text-anchor="middle" x="265.45" y="-1026.5" font-family="Times,serif" font-size="14.00">bool: flag4 (1)</text>
<polyline fill="none" stroke="black" points="329.88,-1018.3 329.88,-1043.1 "/>
<text text-anchor="middle" x="394.31" y="-1026.5" font-family="Times,serif" font-size="14.00">bool: flag3 (1)</text>
<polyline fill="none" stroke="black" points="458.75,-1018.3 458.75,-1043.1 "/>
<text text-anchor="middle" x="523.18" y="-1026.5" font-family="Times,serif" font-size="14.00">bool: flag2 (1)</text>
<polyline fill="none" stroke="black" points="587.62,-1018.3 587.62,-1043.1 "/>
<text text-anchor="middle" x="652.05" y="-1026.5" font-family="Times,serif" font-size="14.00">bool: flag1 (1)</text>
<polyline fill="none" stroke="black" points="62.66,-1018.3 716.85,-1018.3 "/>
<text text-anchor="middle" x="389.48" y="-1001.7" font-family="Times,serif" font-size="14.00">bool[2]: flags (32)</text>
<polyline fill="none" stroke="black" points="62.66,-993.5 716.85,-993.5 "/>
<text text-anchor="middle" x="228.34" y="-976.9" font-family="Times,serif" font-size="14.00">unallocated (31)</text>
<polyline fill="none" stroke="black" points="394.01,-968.7 394.01,-993.5 "/>
<text text-anchor="middle" x="554.95" y="-976.9" font-family="Times,serif" font-size="14.00">bool: flag5 (1)</text>
<polyline fill="none" stroke="black" points="62.66,-968.7 716.85,-968.7 "/>
<text text-anchor="middle" x="389.65" y="-952.1" font-family="Times,serif" font-size="14.00">bool[2][2]: flags2x2 (64)</text>
<polyline fill="none" stroke="black" points="62.66,-943.9 716.85,-943.9 "/>
<text text-anchor="middle" x="228.34" y="-927.3" font-family="Times,serif" font-size="14.00">unallocated (31)</text>
<polyline fill="none" stroke="black" points="394.01,-919.1 394.01,-943.9 "/>
<text text-anchor="middle" x="554.95" y="-927.3" font-family="Times,serif" font-size="14.00">bool: flag6 (1)</text>
<polyline fill="none" stroke="black" points="62.66,-919.1 716.85,-919.1 "/>
<text text-anchor="middle" x="389.65" y="-902.5" font-family="Times,serif" font-size="14.00">bool[2][3]: flags2x3 (96)</text>
<polyline fill="none" stroke="black" points="62.66,-894.3 716.85,-894.3 "/>
<text text-anchor="middle" x="228.34" y="-877.7" font-family="Times,serif" font-size="14.00">unallocated (31)</text>
<polyline fill="none" stroke="black" points="394.01,-869.5 394.01,-894.3 "/>
<text text-anchor="middle" x="554.95" y="-877.7" font-family="Times,serif" font-size="14.00">bool: flag7 (1)</text>
<polyline fill="none" stroke="black" points="62.66,-869.5 716.85,-869.5 "/>
<text text-anchor="middle" x="389.65" y="-852.9" font-family="Times,serif" font-size="14.00">bool[3][2]: flags3x2 (64)</text>
<polyline fill="none" stroke="black" points="62.66,-844.7 716.85,-844.7 "/>
<text text-anchor="middle" x="389.65" y="-828.1" font-family="Times,serif" font-size="14.00">bool[33][2]: flags33x2 (128)</text>
<polyline fill="none" stroke="black" points="62.66,-819.9 716.85,-819.9 "/>
<text text-anchor="middle" x="228.34" y="-803.3" font-family="Times,serif" font-size="14.00">unallocated (31)</text>
<polyline fill="none" stroke="black" points="394.01,-795.1 394.01,-819.9 "/>
<text text-anchor="middle" x="554.95" y="-803.3" font-family="Times,serif" font-size="14.00">bool: flag8 (1)</text>
<polyline fill="none" stroke="black" points="62.66,-795.1 716.85,-795.1 "/>
<text text-anchor="middle" x="389.65" y="-778.5" font-family="Times,serif" font-size="14.00">bool[2][]: flags2xdyn (32)</text>
<polyline fill="none" stroke="black" points="62.66,-770.3 716.85,-770.3 "/>
<text text-anchor="middle" x="228.34" y="-753.7" font-family="Times,serif" font-size="14.00">unallocated (31)</text>
<polyline fill="none" stroke="black" points="394.01,-745.5 394.01,-770.3 "/>
<text text-anchor="middle" x="554.95" y="-753.7" font-family="Times,serif" font-size="14.00">bool: flag9 (1)</text>
<polyline fill="none" stroke="black" points="62.66,-745.5 716.85,-745.5 "/>
<text text-anchor="middle" x="389.7" y="-728.9" font-family="Times,serif" font-size="14.00">bool[][2]: flagsDynx2 (32)</text>
<polyline fill="none" stroke="black" points="62.66,-720.7 716.85,-720.7 "/>
<text text-anchor="middle" x="389.65" y="-704.1" font-family="Times,serif" font-size="14.00">bool[33][2][2]: bool_33x2x2 (256)</text>
<polyline fill="none" stroke="black" points="62.66,-695.9 716.85,-695.9 "/>
<text text-anchor="middle" x="226.84" y="-679.3" font-family="Times,serif" font-size="14.00">unallocated (31)</text>
<polyline fill="none" stroke="black" points="391.01,-671.1 391.01,-695.9 "/>
<text text-anchor="middle" x="553.45" y="-679.3" font-family="Times,serif" font-size="14.00">bool: flag10 (1)</text>
<polyline fill="none" stroke="black" points="62.66,-671.1 716.85,-671.1 "/>
<text text-anchor="middle" x="389.65" y="-654.5" font-family="Times,serif" font-size="14.00">bytes30[2][6]: bytes30_2x6 (384)</text>
<polyline fill="none" stroke="black" points="62.66,-646.3 716.85,-646.3 "/>
<text text-anchor="middle" x="389.65" y="-629.7" font-family="Times,serif" font-size="14.00">bytes30[6][2]: bytes30_6x2 (384)</text>
<polyline fill="none" stroke="black" points="62.66,-621.5 716.85,-621.5 "/>
<text text-anchor="middle" x="140.84" y="-604.9" font-family="Times,serif" font-size="14.00">unallocated (29)</text>
<polyline fill="none" stroke="black" points="219.01,-596.7 219.01,-621.5 "/>
<text text-anchor="middle" x="311.1" y="-604.9" font-family="Times,serif" font-size="14.00">Severity: severity (1)</text>
<polyline fill="none" stroke="black" points="403.2,-596.7 403.2,-621.5 "/>
<text text-anchor="middle" x="482.86" y="-604.9" font-family="Times,serif" font-size="14.00">Status: status (1)</text>
<polyline fill="none" stroke="black" points="562.53,-596.7 562.53,-621.5 "/>
<text text-anchor="middle" x="639.46" y="-604.9" font-family="Times,serif" font-size="14.00">bool: flag11 (1)</text>
<polyline fill="none" stroke="black" points="62.66,-596.7 716.85,-596.7 "/>
<text text-anchor="middle" x="389.61" y="-580.1" font-family="Times,serif" font-size="14.00">SubOneSlot: subSlot (32)</text>
<polyline fill="none" stroke="black" points="62.66,-571.9 716.85,-571.9 "/>
<text text-anchor="middle" x="211.84" y="-555.3" font-family="Times,serif" font-size="14.00">unallocated (31)</text>
<polyline fill="none" stroke="black" points="361.01,-547.1 361.01,-571.9 "/>
<text text-anchor="middle" x="538.77" y="-555.3" font-family="Times,serif" font-size="14.00">uint8: oneByteNumber (1)</text>
<polyline fill="none" stroke="black" points="62.66,-547.1 716.85,-547.1 "/>
<text text-anchor="middle" x="389.6" y="-530.5" font-family="Times,serif" font-size="14.00">OneSlot: oneSlot (32)</text>
<polyline fill="none" stroke="black" points="62.66,-522.3 716.85,-522.3 "/>
<text text-anchor="middle" x="389.34" y="-505.7" font-family="Times,serif" font-size="14.00">SubTwoSlots: subTwoSlot (64)</text>
<polyline fill="none" stroke="black" points="62.66,-497.5 716.85,-497.5 "/>
<text text-anchor="middle" x="389.61" y="-480.9" font-family="Times,serif" font-size="14.00">TwoSlots: twoSlots (64)</text>
<polyline fill="none" stroke="black" points="62.66,-472.7 716.85,-472.7 "/>
<text text-anchor="middle" x="389.75" y="-456.1" font-family="Times,serif" font-size="14.00">FixedArray: fixedArray (128)</text>
<polyline fill="none" stroke="black" points="62.66,-447.9 716.85,-447.9 "/>
<text text-anchor="middle" x="389.26" y="-431.3" font-family="Times,serif" font-size="14.00">FlagsStruct: flagStruct (96)</text>
<polyline fill="none" stroke="black" points="62.66,-423.1 716.85,-423.1 "/>
<text text-anchor="middle" x="218.84" y="-406.5" font-family="Times,serif" font-size="14.00">unallocated (30)</text>
<polyline fill="none" stroke="black" points="375.01,-398.3 375.01,-423.1 "/>
<text text-anchor="middle" x="545.5" y="-406.5" font-family="Times,serif" font-size="14.00">int16: arrayCount (2)</text>
<polyline fill="none" stroke="black" points="62.66,-398.3 716.85,-398.3 "/>
<text text-anchor="middle" x="389.52" y="-381.7" font-family="Times,serif" font-size="14.00">uint64[]: dynamicIntArray (32)</text>
<polyline fill="none" stroke="black" points="62.66,-373.5 716.85,-373.5 "/>
<text text-anchor="middle" x="389.3" y="-356.9" font-family="Times,serif" font-size="14.00">uint256[3]: fixedIntArray (96)</text>
<polyline fill="none" stroke="black" points="62.66,-348.7 716.85,-348.7 "/>
<text text-anchor="middle" x="389.66" y="-332.1" font-family="Times,serif" font-size="14.00">string: nameSlot (32)</text>
<polyline fill="none" stroke="black" points="62.66,-323.9 716.85,-323.9 "/>
<text text-anchor="middle" x="389.48" y="-307.3" font-family="Times,serif" font-size="14.00">mapping(address=&gt;bool): blacklist (32)</text>
<polyline fill="none" stroke="black" points="62.66,-299.1 716.85,-299.1 "/>
<text text-anchor="middle" x="389.58" y="-282.5" font-family="Times,serif" font-size="14.00">mapping(address=&gt;uint256): balance (32)</text>
<polyline fill="none" stroke="black" points="62.66,-274.3 716.85,-274.3 "/>
<text text-anchor="middle" x="389.35" y="-257.7" font-family="Times,serif" font-size="14.00">mapping(address=&gt;ContractLevelStruct2): mapStruct (32)</text>
<polyline fill="none" stroke="black" points="62.66,-249.5 716.85,-249.5 "/>
<text text-anchor="middle" x="389.61" y="-232.9" font-family="Times,serif" font-size="14.00">mapping(address=&gt;mapping(address=&gt;ContractLevelStruct2)): mapOfMapStruct (32)</text>
</g>
<!-- 1 -->
<g id="node2" class="node">
<title>1</title>
<polygon fill="#f2f2f2" stroke="black" points="760.24,-817.9 760.24,-892.3 1225.51,-892.3 1225.51,-817.9 760.24,-817.9"/>
<text text-anchor="middle" x="992.87" y="-875.7" font-family="Times,serif" font-size="14.00">SubOneSlot &lt;&lt;Struct&gt;&gt;</text>
<polyline fill="none" stroke="black" points="760.24,-867.5 1225.51,-867.5 "/>
<text text-anchor="middle" x="778.35" y="-850.9" font-family="Times,serif" font-size="14.00">slot</text>
<polyline fill="none" stroke="black" points="760.24,-842.7 796.46,-842.7 "/>
<text text-anchor="middle" x="778.35" y="-826.1" font-family="Times,serif" font-size="14.00">0</text>
<polyline fill="none" stroke="black" points="796.46,-817.9 796.46,-867.5 "/>
<text text-anchor="middle" x="1010.99" y="-850.9" font-family="Times,serif" font-size="14.00">type: variable (bytes)</text>
<polyline fill="none" stroke="black" points="796.46,-842.7 1225.51,-842.7 "/>
<text text-anchor="middle" x="850.14" y="-826.1" font-family="Times,serif" font-size="14.00">unallocated (10)</text>
<polyline fill="none" stroke="black" points="903.81,-817.9 903.81,-842.7 "/>
<text text-anchor="middle" x="951.86" y="-826.1" font-family="Times,serif" font-size="14.00">int8: count (1)</text>
<polyline fill="none" stroke="black" points="999.91,-817.9 999.91,-842.7 "/>
<text text-anchor="middle" x="1044.84" y="-826.1" font-family="Times,serif" font-size="14.00">bool: flag (1)</text>
<polyline fill="none" stroke="black" points="1089.78,-817.9 1089.78,-842.7 "/>
<text text-anchor="middle" x="1157.64" y="-826.1" font-family="Times,serif" font-size="14.00">address: account (20)</text>
</g>
<!-- 10&#45;&gt;1 -->
<g id="edge1" class="edge">
<title>10:47&#45;&gt;1</title>
<path fill="none" stroke="black" d="M716.85,-584.1C767.49,-584.1 717.61,-772.74 752.85,-809.1 753.4,-809.67 753.96,-810.23 754.52,-810.79"/>
<polygon fill="black" stroke="black" points="752.33,-813.53 762.06,-817.71 757.06,-808.37 752.33,-813.53"/>
</g>
<!-- 2 -->
<g id="node3" class="node">
<title>2</title>
<polygon fill="#f2f2f2" stroke="black" points="804.18,-724.9 804.18,-799.3 1181.57,-799.3 1181.57,-724.9 804.18,-724.9"/>
<text text-anchor="middle" x="992.87" y="-782.7" font-family="Times,serif" font-size="14.00">OneSlot &lt;&lt;Struct&gt;&gt;</text>
<polyline fill="none" stroke="black" points="804.18,-774.5 1181.57,-774.5 "/>
<text text-anchor="middle" x="822.29" y="-757.9" font-family="Times,serif" font-size="14.00">slot</text>
<polyline fill="none" stroke="black" points="804.18,-749.7 840.41,-749.7 "/>
<text text-anchor="middle" x="822.29" y="-733.1" font-family="Times,serif" font-size="14.00">0</text>
<polyline fill="none" stroke="black" points="840.41,-724.9 840.41,-774.5 "/>
<text text-anchor="middle" x="1010.99" y="-757.9" font-family="Times,serif" font-size="14.00">type: variable (bytes)</text>
<polyline fill="none" stroke="black" points="840.41,-749.7 1181.57,-749.7 "/>
<text text-anchor="middle" x="888.46" y="-733.1" font-family="Times,serif" font-size="14.00">int8: count (1)</text>
<polyline fill="none" stroke="black" points="936.5,-724.9 936.5,-749.7 "/>
<text text-anchor="middle" x="991.17" y="-733.1" font-family="Times,serif" font-size="14.00">uint88: sum (11)</text>
<polyline fill="none" stroke="black" points="1045.83,-724.9 1045.83,-749.7 "/>
<text text-anchor="middle" x="1113.7" y="-733.1" font-family="Times,serif" font-size="14.00">address: account (20)</text>
</g>
<!-- 10&#45;&gt;2 -->
<g id="edge2" class="edge">
<title>10:52&#45;&gt;2</title>
<path fill="none" stroke="black" d="M716.85,-535.1C798.43,-535.1 695.07,-657.5 752.85,-715.1 764.99,-727.2 779.29,-736.65 794.74,-743.99"/>
<polygon fill="black" stroke="black" points="793.41,-747.22 803.97,-748.06 796.24,-740.82 793.41,-747.22"/>
</g>
<!-- 3 -->
<g id="node4" class="node">
<title>3</title>
<polygon fill="#f2f2f2" stroke="black" points="752.85,-606.5 752.85,-705.7 1232.9,-705.7 1232.9,-606.5 752.85,-606.5"/>
<text text-anchor="middle" x="992.87" y="-689.1" font-family="Times,serif" font-size="14.00">SubTwoSlots &lt;&lt;Struct&gt;&gt;</text>
<polyline fill="none" stroke="black" points="752.85,-680.9 1232.9,-680.9 "/>
<text text-anchor="middle" x="770.96" y="-664.3" font-family="Times,serif" font-size="14.00">slot</text>
<polyline fill="none" stroke="black" points="752.85,-656.1 789.08,-656.1 "/>
<text text-anchor="middle" x="770.96" y="-639.5" font-family="Times,serif" font-size="14.00">0</text>
<polyline fill="none" stroke="black" points="752.85,-631.3 789.08,-631.3 "/>
<text text-anchor="middle" x="770.96" y="-614.7" font-family="Times,serif" font-size="14.00">1</text>
<polyline fill="none" stroke="black" points="789.08,-606.5 789.08,-680.9 "/>
<text text-anchor="middle" x="1010.99" y="-664.3" font-family="Times,serif" font-size="14.00">type: variable (bytes)</text>
<polyline fill="none" stroke="black" points="789.08,-656.1 1232.9,-656.1 "/>
<text text-anchor="middle" x="890.75" y="-639.5" font-family="Times,serif" font-size="14.00">unallocated (12)</text>
<polyline fill="none" stroke="black" points="992.43,-631.3 992.43,-656.1 "/>
<text text-anchor="middle" x="1112.29" y="-639.5" font-family="Times,serif" font-size="14.00">address: account1 (20)</text>
<polyline fill="none" stroke="black" points="789.08,-631.3 1232.9,-631.3 "/>
<text text-anchor="middle" x="842.75" y="-614.7" font-family="Times,serif" font-size="14.00">unallocated (10)</text>
<polyline fill="none" stroke="black" points="896.43,-606.5 896.43,-631.3 "/>
<text text-anchor="middle" x="944.86" y="-614.7" font-family="Times,serif" font-size="14.00">bool: flag2 (1)</text>
<polyline fill="none" stroke="black" points="993.29,-606.5 993.29,-631.3 "/>
<text text-anchor="middle" x="1041.73" y="-614.7" font-family="Times,serif" font-size="14.00">bool: flag1 (1)</text>
<polyline fill="none" stroke="black" points="1090.16,-606.5 1090.16,-631.3 "/>
<text text-anchor="middle" x="1161.53" y="-614.7" font-family="Times,serif" font-size="14.00">address: account2 (20)</text>
</g>
<!-- 10&#45;&gt;3 -->
<g id="edge3" class="edge">
<title>10:57&#45;&gt;3</title>
<path fill="none" stroke="black" d="M716.85,-510.1C758.7,-510.1 721.12,-569.82 752.85,-597.1 754.04,-598.12 755.24,-599.13 756.46,-600.12"/>
<polygon fill="black" stroke="black" points="754.64,-603.13 764.71,-606.4 758.88,-597.56 754.64,-603.13"/>
</g>
<!-- 4 -->
<g id="node5" class="node">
<title>4</title>
<polygon fill="#f2f2f2" stroke="black" points="907.28,-488.5 907.28,-587.7 1078.46,-587.7 1078.46,-488.5 907.28,-488.5"/>
<text text-anchor="middle" x="992.87" y="-571.1" font-family="Times,serif" font-size="14.00">TwoSlots &lt;&lt;Struct&gt;&gt;</text>
<polyline fill="none" stroke="black" points="907.28,-562.9 1078.46,-562.9 "/>
<text text-anchor="middle" x="925.4" y="-546.3" font-family="Times,serif" font-size="14.00">slot</text>
<polyline fill="none" stroke="black" points="907.28,-538.1 943.51,-538.1 "/>
<text text-anchor="middle" x="925.4" y="-521.5" font-family="Times,serif" font-size="14.00">0</text>
<polyline fill="none" stroke="black" points="907.28,-513.3 943.51,-513.3 "/>
<text text-anchor="middle" x="925.4" y="-496.7" font-family="Times,serif" font-size="14.00">1</text>
<polyline fill="none" stroke="black" points="943.51,-488.5 943.51,-562.9 "/>
<text text-anchor="middle" x="1010.99" y="-546.3" font-family="Times,serif" font-size="14.00">type: variable (bytes)</text>
<polyline fill="none" stroke="black" points="943.51,-538.1 1078.46,-538.1 "/>
<text text-anchor="middle" x="1010.72" y="-521.5" font-family="Times,serif" font-size="14.00">bytes32: hash1 (32)</text>
<polyline fill="none" stroke="black" points="943.51,-513.3 1078.46,-513.3 "/>
<text text-anchor="middle" x="1010.72" y="-496.7" font-family="Times,serif" font-size="14.00">bytes32: hash2 (32)</text>
</g>
<!-- 10&#45;&gt;4 -->
<g id="edge4" class="edge">
<title>10:60&#45;&gt;4</title>
<path fill="none" stroke="black" d="M716.85,-485.1C777.61,-485.1 844.57,-497.73 897.21,-510.65"/>
<polygon fill="black" stroke="black" points="896.65,-514.12 907.2,-513.15 898.35,-507.33 896.65,-514.12"/>
</g>
<!-- 5 -->
<g id="node6" class="node">
<title>5</title>
<polygon fill="#f2f2f2" stroke="black" points="865.64,-345.1 865.64,-469.1 1120.1,-469.1 1120.1,-345.1 865.64,-345.1"/>
<text text-anchor="middle" x="992.87" y="-452.5" font-family="Times,serif" font-size="14.00">FixedArray &lt;&lt;Struct&gt;&gt;</text>
<polyline fill="none" stroke="black" points="865.64,-444.3 1120.1,-444.3 "/>
<text text-anchor="middle" x="883.76" y="-427.7" font-family="Times,serif" font-size="14.00">slot</text>
<polyline fill="none" stroke="black" points="865.64,-419.5 901.87,-419.5 "/>
<text text-anchor="middle" x="883.76" y="-402.9" font-family="Times,serif" font-size="14.00">0</text>
<polyline fill="none" stroke="black" points="865.64,-394.7 901.87,-394.7 "/>
<text text-anchor="middle" x="883.76" y="-378.1" font-family="Times,serif" font-size="14.00">1&#45;2</text>
<polyline fill="none" stroke="black" points="865.64,-369.9 901.87,-369.9 "/>
<text text-anchor="middle" x="883.76" y="-353.3" font-family="Times,serif" font-size="14.00">3</text>
<polyline fill="none" stroke="black" points="901.87,-345.1 901.87,-444.3 "/>
<text text-anchor="middle" x="1010.99" y="-427.7" font-family="Times,serif" font-size="14.00">type: variable (bytes)</text>
<polyline fill="none" stroke="black" points="901.87,-419.5 1120.1,-419.5 "/>
<text text-anchor="middle" x="955.54" y="-402.9" font-family="Times,serif" font-size="14.00">unallocated (30)</text>
<polyline fill="none" stroke="black" points="1009.22,-394.7 1009.22,-419.5 "/>
<text text-anchor="middle" x="1064.66" y="-402.9" font-family="Times,serif" font-size="14.00">uint16: num1 (2)</text>
<polyline fill="none" stroke="black" points="901.87,-394.7 1120.1,-394.7 "/>
<text text-anchor="middle" x="1010.57" y="-378.1" font-family="Times,serif" font-size="14.00">bytes30[2]: data (64)</text>
<polyline fill="none" stroke="black" points="901.87,-369.9 1120.1,-369.9 "/>
<text text-anchor="middle" x="955.54" y="-353.3" font-family="Times,serif" font-size="14.00">unallocated (30)</text>
<polyline fill="none" stroke="black" points="1009.22,-345.1 1009.22,-369.9 "/>
<text text-anchor="middle" x="1064.66" y="-353.3" font-family="Times,serif" font-size="14.00">uint16: num2 (2)</text>
</g>
<!-- 10&#45;&gt;5 -->
<g id="edge5" class="edge">
<title>10:64&#45;&gt;5</title>
<path fill="none" stroke="black" d="M716.85,-460.1C762.51,-460.1 811.67,-452.97 855.63,-443.94"/>
<polygon fill="black" stroke="black" points="856.44,-447.34 865.51,-441.86 855,-440.49 856.44,-447.34"/>
</g>
<!-- 6 -->
<g id="node7" class="node">
<title>6</title>
<polygon fill="#f2f2f2" stroke="black" points="872.65,-202.1 872.65,-326.1 1113.1,-326.1 1113.1,-202.1 872.65,-202.1"/>
<text text-anchor="middle" x="992.87" y="-309.5" font-family="Times,serif" font-size="14.00">FlagsStruct &lt;&lt;Struct&gt;&gt;</text>
<polyline fill="none" stroke="black" points="872.65,-301.3 1113.1,-301.3 "/>
<text text-anchor="middle" x="890.76" y="-284.7" font-family="Times,serif" font-size="14.00">slot</text>
<polyline fill="none" stroke="black" points="872.65,-276.5 908.88,-276.5 "/>
<text text-anchor="middle" x="890.76" y="-259.9" font-family="Times,serif" font-size="14.00">0</text>
<polyline fill="none" stroke="black" points="872.65,-251.7 908.88,-251.7 "/>
<text text-anchor="middle" x="890.76" y="-235.1" font-family="Times,serif" font-size="14.00">1</text>
<polyline fill="none" stroke="black" points="872.65,-226.9 908.88,-226.9 "/>
<text text-anchor="middle" x="890.76" y="-210.3" font-family="Times,serif" font-size="14.00">2</text>
<polyline fill="none" stroke="black" points="908.88,-202.1 908.88,-301.3 "/>
<text text-anchor="middle" x="1010.99" y="-284.7" font-family="Times,serif" font-size="14.00">type: variable (bytes)</text>
<polyline fill="none" stroke="black" points="908.88,-276.5 1113.1,-276.5 "/>
<text text-anchor="middle" x="962.55" y="-259.9" font-family="Times,serif" font-size="14.00">unallocated (31)</text>
<polyline fill="none" stroke="black" points="1016.23,-251.7 1016.23,-276.5 "/>
<text text-anchor="middle" x="1064.66" y="-259.9" font-family="Times,serif" font-size="14.00">bool: flag1 (1)</text>
<polyline fill="none" stroke="black" points="908.88,-251.7 1113.1,-251.7 "/>
<text text-anchor="middle" x="1010.7" y="-235.1" font-family="Times,serif" font-size="14.00">bool[2]: flags (32)</text>
<polyline fill="none" stroke="black" points="908.88,-226.9 1113.1,-226.9 "/>
<text text-anchor="middle" x="962.55" y="-210.3" font-family="Times,serif" font-size="14.00">unallocated (31)</text>
<polyline fill="none" stroke="black" points="1016.23,-202.1 1016.23,-226.9 "/>
<text text-anchor="middle" x="1064.66" y="-210.3" font-family="Times,serif" font-size="14.00">bool: flag2 (1)</text>
</g>
<!-- 10&#45;&gt;6 -->
<g id="edge6" class="edge">
<title>10:68&#45;&gt;6</title>
<path fill="none" stroke="black" d="M716.42,-435.1C763.31,-435.1 718.72,-368.24 752.85,-336.1 782.81,-307.89 823.43,-290.7 862.67,-280.24"/>
<polygon fill="black" stroke="black" points="863.78,-283.57 872.62,-277.72 862.06,-276.78 863.78,-283.57"/>
</g>
<!-- 9 -->
<g id="node10" class="node">
<title>9</title>
<polygon fill="#f2f2f2" stroke="black" points="868.4,-83.5 868.4,-182.7 1117.34,-182.7 1117.34,-83.5 868.4,-83.5"/>
<text text-anchor="middle" x="992.87" y="-166.1" font-family="Times,serif" font-size="14.00">ContractLevelStruct2 &lt;&lt;Struct&gt;&gt;</text>
<polyline fill="none" stroke="black" points="868.4,-157.9 1117.34,-157.9 "/>
<text text-anchor="middle" x="886.52" y="-141.3" font-family="Times,serif" font-size="14.00">slot</text>
<polyline fill="none" stroke="black" points="868.4,-133.1 904.63,-133.1 "/>
<text text-anchor="middle" x="886.52" y="-116.5" font-family="Times,serif" font-size="14.00">0&#45;1</text>
<polyline fill="none" stroke="black" points="868.4,-108.3 904.63,-108.3 "/>
<text text-anchor="middle" x="886.52" y="-91.7" font-family="Times,serif" font-size="14.00">2&#45;3</text>
<polyline fill="none" stroke="black" points="904.63,-83.5 904.63,-157.9 "/>
<text text-anchor="middle" x="1010.99" y="-141.3" font-family="Times,serif" font-size="14.00">type: variable (bytes)</text>
<polyline fill="none" stroke="black" points="904.63,-133.1 1117.34,-133.1 "/>
<text text-anchor="middle" x="1010.99" y="-116.5" font-family="Times,serif" font-size="14.00">ContractLevelStruct0: param1 (64)</text>
<polyline fill="none" stroke="black" points="904.63,-108.3 1117.34,-108.3 "/>
<text text-anchor="middle" x="1010.99" y="-91.7" font-family="Times,serif" font-size="14.00">ContractLevelStruct1: param2 (64)</text>
</g>
<!-- 10&#45;&gt;9 -->
<g id="edge7" class="edge">
<title>10:83&#45;&gt;9</title>
<path fill="none" stroke="black" d="M716.85,-262.1C751.44,-262.1 725.69,-214.52 752.85,-193.1 782.91,-169.38 821.17,-154.92 858.22,-146.13"/>
<polygon fill="black" stroke="black" points="859.13,-149.51 868.12,-143.91 857.59,-142.68 859.13,-149.51"/>
</g>
<!-- 10&#45;&gt;9 -->
<g id="edge8" class="edge">
<title>10:84&#45;&gt;9</title>
<path fill="none" stroke="black" d="M716.85,-237.1C742.12,-237.1 731.52,-206.64 752.85,-193.1 784.3,-173.14 822.01,-159.82 858.07,-150.92"/>
<polygon fill="black" stroke="black" points="859.27,-154.24 868.2,-148.53 857.66,-147.43 859.27,-154.24"/>
</g>
<!-- 7 -->
<g id="node8" class="node">
<title>7</title>
<polygon fill="#f2f2f2" stroke="black" points="1398.8,-118.5 1398.8,-217.7 1652.46,-217.7 1652.46,-118.5 1398.8,-118.5"/>
<text text-anchor="middle" x="1525.63" y="-201.1" font-family="Times,serif" font-size="14.00">ContractLevelStruct0 &lt;&lt;Struct&gt;&gt;</text>
<polyline fill="none" stroke="black" points="1398.8,-192.9 1652.46,-192.9 "/>
<text text-anchor="middle" x="1416.92" y="-176.3" font-family="Times,serif" font-size="14.00">slot</text>
<polyline fill="none" stroke="black" points="1398.8,-168.1 1435.03,-168.1 "/>
<text text-anchor="middle" x="1416.92" y="-151.5" font-family="Times,serif" font-size="14.00">0</text>
<polyline fill="none" stroke="black" points="1398.8,-143.3 1435.03,-143.3 "/>
<text text-anchor="middle" x="1416.92" y="-126.7" font-family="Times,serif" font-size="14.00">1</text>
<polyline fill="none" stroke="black" points="1435.03,-118.5 1435.03,-192.9 "/>
<text text-anchor="middle" x="1543.75" y="-176.3" font-family="Times,serif" font-size="14.00">type: variable (bytes)</text>
<polyline fill="none" stroke="black" points="1435.03,-168.1 1652.46,-168.1 "/>
<text text-anchor="middle" x="1543.52" y="-151.5" font-family="Times,serif" font-size="14.00">uint256: param1 (32)</text>
<polyline fill="none" stroke="black" points="1435.03,-143.3 1652.46,-143.3 "/>
<text text-anchor="middle" x="1488.7" y="-126.7" font-family="Times,serif" font-size="14.00">unallocated (31)</text>
<polyline fill="none" stroke="black" points="1542.38,-118.5 1542.38,-143.3 "/>
<text text-anchor="middle" x="1597.42" y="-126.7" font-family="Times,serif" font-size="14.00">bool: param2 (1)</text>
</g>
<!-- 8 -->
<g id="node9" class="node">
<title>8</title>
<polygon fill="#f2f2f2" stroke="black" points="1268.9,-0.5 1268.9,-99.7 1782.37,-99.7 1782.37,-0.5 1268.9,-0.5"/>
<text text-anchor="middle" x="1525.63" y="-83.1" font-family="Times,serif" font-size="14.00">ContractLevelStruct1 &lt;&lt;Struct&gt;&gt;</text>
<polyline fill="none" stroke="black" points="1268.9,-74.9 1782.37,-74.9 "/>
<text text-anchor="middle" x="1287.01" y="-58.3" font-family="Times,serif" font-size="14.00">slot</text>
<polyline fill="none" stroke="black" points="1268.9,-50.1 1305.12,-50.1 "/>
<text text-anchor="middle" x="1287.01" y="-33.5" font-family="Times,serif" font-size="14.00">0</text>
<polyline fill="none" stroke="black" points="1268.9,-25.3 1305.12,-25.3 "/>
<text text-anchor="middle" x="1287.01" y="-8.7" font-family="Times,serif" font-size="14.00">1</text>
<polyline fill="none" stroke="black" points="1305.12,-0.5 1305.12,-74.9 "/>
<text text-anchor="middle" x="1543.75" y="-58.3" font-family="Times,serif" font-size="14.00">type: variable (bytes)</text>
<polyline fill="none" stroke="black" points="1305.12,-50.1 1782.37,-50.1 "/>
<text text-anchor="middle" x="1543.61" y="-33.5" font-family="Times,serif" font-size="14.00">uint256: param1 (32)</text>
<polyline fill="none" stroke="black" points="1305.12,-25.3 1782.37,-25.3 "/>
<text text-anchor="middle" x="1358.8" y="-8.7" font-family="Times,serif" font-size="14.00">unallocated (10)</text>
<polyline fill="none" stroke="black" points="1412.47,-0.5 1412.47,-25.3 "/>
<text text-anchor="middle" x="1473.34" y="-8.7" font-family="Times,serif" font-size="14.00">bytes1: param4 (1)</text>
<polyline fill="none" stroke="black" points="1534.22,-0.5 1534.22,-25.3 "/>
<text text-anchor="middle" x="1591.2" y="-8.7" font-family="Times,serif" font-size="14.00">uint8: param3 (1)</text>
<polyline fill="none" stroke="black" points="1648.19,-0.5 1648.19,-25.3 "/>
<text text-anchor="middle" x="1715.28" y="-8.7" font-family="Times,serif" font-size="14.00">address: param2 (20)</text>
</g>
<!-- 9&#45;&gt;7 -->
<g id="edge9" class="edge">
<title>9:77&#45;&gt;7</title>
<path fill="none" stroke="black" d="M1117.87,-121.1C1208.54,-121.1 1309.83,-132.77 1388.65,-144.47"/>
<polygon fill="black" stroke="black" points="1388.23,-147.95 1398.64,-145.98 1389.27,-141.03 1388.23,-147.95"/>
</g>
<!-- 9&#45;&gt;8 -->
<g id="edge10" class="edge">
<title>9:82&#45;&gt;8</title>
<path fill="none" stroke="black" d="M1117.87,-96.1C1163.57,-96.1 1211.97,-93.2 1258.84,-88.85"/>
<polygon fill="black" stroke="black" points="1259.19,-92.33 1268.82,-87.9 1258.53,-85.37 1259.19,-92.33"/>
</g>
</g>
</svg>
