<?xml version="1.0" encoding="UTF-8" standalone="no"?>
<!DOCTYPE svg PUBLIC "-//W3C//DTD SVG 1.1//EN"
 "http://www.w3.org/Graphics/SVG/1.1/DTD/svg11.dtd">
<!-- Generated by graphviz version 5.0.0 (20220707.1540)
 -->
<!-- Title: StorageDiagram Pages: 1 -->
<svg width="1791pt" height="1622pt"
 viewBox="0.00 0.00 1791.14 1621.60" xmlns="http://www.w3.org/2000/svg" xmlns:xlink="http://www.w3.org/1999/xlink">
<g id="graph0" class="graph" transform="scale(1 1) rotate(0) translate(4 1617.6)">
<title>StorageDiagram</title>
<polygon fill="white" stroke="transparent" points="-4,4 -4,-1617.6 1787.14,-1617.6 1787.14,4 -4,4"/>
<!-- 10 -->
<g id="node1" class="node">
<title>10</title>
<polygon fill="#f2f2f2" stroke="black" points="0,-125.1 0,-1613.1 716.85,-1613.1 716.85,-125.1 0,-125.1"/>
<text text-anchor="middle" x="358.42" y="-1596.5" font-family="Times,serif" font-size="14.00">TestStorage &lt;&lt;Contract&gt;&gt;</text>
<polyline fill="none" stroke="black" points="0,-1588.3 716.85,-1588.3 "/>
<text text-anchor="middle" x="31.33" y="-1571.7" font-family="Times,serif" font-size="14.00">slot</text>
<polyline fill="none" stroke="black" points="0,-1563.5 62.66,-1563.5 "/>
<text text-anchor="middle" x="31.33" y="-1546.9" font-family="Times,serif" font-size="14.00">0</text>
<polyline fill="none" stroke="black" points="0,-1538.7 62.66,-1538.7 "/>
<text text-anchor="middle" x="31.33" y="-1522.1" font-family="Times,serif" font-size="14.00">1</text>
<polyline fill="none" stroke="black" points="0,-1513.9 62.66,-1513.9 "/>
<text text-anchor="middle" x="31.33" y="-1497.3" font-family="Times,serif" font-size="14.00">2</text>
<polyline fill="none" stroke="black" points="0,-1489.1 62.66,-1489.1 "/>
<text text-anchor="middle" x="31.33" y="-1472.5" font-family="Times,serif" font-size="14.00">3</text>
<polyline fill="none" stroke="black" points="0,-1464.3 62.66,-1464.3 "/>
<text text-anchor="middle" x="31.33" y="-1447.7" font-family="Times,serif" font-size="14.00">4</text>
<polyline fill="none" stroke="black" points="0,-1439.5 62.66,-1439.5 "/>
<text text-anchor="middle" x="31.33" y="-1422.9" font-family="Times,serif" font-size="14.00">5</text>
<polyline fill="none" stroke="black" points="0,-1414.7 62.66,-1414.7 "/>
<text text-anchor="middle" x="31.33" y="-1398.1" font-family="Times,serif" font-size="14.00">6&#45;7</text>
<polyline fill="none" stroke="black" points="0,-1389.9 62.66,-1389.9 "/>
<text text-anchor="middle" x="31.33" y="-1373.3" font-family="Times,serif" font-size="14.00">8&#45;19</text>
<polyline fill="none" stroke="black" points="0,-1365.1 62.66,-1365.1 "/>
<text text-anchor="middle" x="31.33" y="-1348.5" font-family="Times,serif" font-size="14.00">20&#45;21</text>
<polyline fill="none" stroke="black" points="0,-1340.3 62.66,-1340.3 "/>
<text text-anchor="middle" x="31.33" y="-1323.7" font-family="Times,serif" font-size="14.00">22&#45;33</text>
<polyline fill="none" stroke="black" points="0,-1315.5 62.66,-1315.5 "/>
<text text-anchor="middle" x="31.33" y="-1298.9" font-family="Times,serif" font-size="14.00">34&#45;36</text>
<polyline fill="none" stroke="black" points="0,-1290.7 62.66,-1290.7 "/>
<text text-anchor="middle" x="31.33" y="-1274.1" font-family="Times,serif" font-size="14.00">37&#45;38</text>
<polyline fill="none" stroke="black" points="0,-1265.9 62.66,-1265.9 "/>
<text text-anchor="middle" x="31.33" y="-1249.3" font-family="Times,serif" font-size="14.00">39</text>
<polyline fill="none" stroke="black" points="0,-1241.1 62.66,-1241.1 "/>
<text text-anchor="middle" x="31.33" y="-1224.5" font-family="Times,serif" font-size="14.00">40</text>
<polyline fill="none" stroke="black" points="0,-1216.3 62.66,-1216.3 "/>
<text text-anchor="middle" x="31.33" y="-1199.7" font-family="Times,serif" font-size="14.00">41</text>
<polyline fill="none" stroke="black" points="0,-1191.5 62.66,-1191.5 "/>
<text text-anchor="middle" x="31.33" y="-1174.9" font-family="Times,serif" font-size="14.00">42</text>
<polyline fill="none" stroke="black" points="0,-1166.7 62.66,-1166.7 "/>
<text text-anchor="middle" x="31.33" y="-1150.1" font-family="Times,serif" font-size="14.00">43</text>
<polyline fill="none" stroke="black" points="0,-1141.9 62.66,-1141.9 "/>
<text text-anchor="middle" x="31.33" y="-1125.3" font-family="Times,serif" font-size="14.00">44</text>
<polyline fill="none" stroke="black" points="0,-1117.1 62.66,-1117.1 "/>
<text text-anchor="middle" x="31.33" y="-1100.5" font-family="Times,serif" font-size="14.00">45&#45;46</text>
<polyline fill="none" stroke="black" points="0,-1092.3 62.66,-1092.3 "/>
<text text-anchor="middle" x="31.33" y="-1075.7" font-family="Times,serif" font-size="14.00">47</text>
<polyline fill="none" stroke="black" points="0,-1067.5 62.66,-1067.5 "/>
<text text-anchor="middle" x="31.33" y="-1050.9" font-family="Times,serif" font-size="14.00">48&#45;50</text>
<polyline fill="none" stroke="black" points="0,-1042.7 62.66,-1042.7 "/>
<text text-anchor="middle" x="31.33" y="-1026.1" font-family="Times,serif" font-size="14.00">51</text>
<polyline fill="none" stroke="black" points="0,-1017.9 62.66,-1017.9 "/>
<text text-anchor="middle" x="31.33" y="-1001.3" font-family="Times,serif" font-size="14.00">52&#45;53</text>
<polyline fill="none" stroke="black" points="0,-993.1 62.66,-993.1 "/>
<text text-anchor="middle" x="31.33" y="-976.5" font-family="Times,serif" font-size="14.00">54&#45;57</text>
<polyline fill="none" stroke="black" points="0,-968.3 62.66,-968.3 "/>
<text text-anchor="middle" x="31.33" y="-951.7" font-family="Times,serif" font-size="14.00">58&#45;90</text>
<polyline fill="none" stroke="black" points="0,-943.5 62.66,-943.5 "/>
<text text-anchor="middle" x="31.33" y="-926.9" font-family="Times,serif" font-size="14.00">91</text>
<polyline fill="none" stroke="black" points="0,-918.7 62.66,-918.7 "/>
<text text-anchor="middle" x="31.33" y="-902.1" font-family="Times,serif" font-size="14.00">92</text>
<polyline fill="none" stroke="black" points="0,-893.9 62.66,-893.9 "/>
<text text-anchor="middle" x="31.33" y="-877.3" font-family="Times,serif" font-size="14.00">93</text>
<polyline fill="none" stroke="black" points="0,-869.1 62.66,-869.1 "/>
<text text-anchor="middle" x="31.33" y="-852.5" font-family="Times,serif" font-size="14.00">94&#45;95</text>
<polyline fill="none" stroke="black" points="0,-844.3 62.66,-844.3 "/>
<text text-anchor="middle" x="31.33" y="-827.7" font-family="Times,serif" font-size="14.00">96&#45;111</text>
<polyline fill="none" stroke="black" points="0,-819.5 62.66,-819.5 "/>
<text text-anchor="middle" x="31.33" y="-802.9" font-family="Times,serif" font-size="14.00">112&#45;143</text>
<polyline fill="none" stroke="black" points="0,-794.7 62.66,-794.7 "/>
<text text-anchor="middle" x="31.33" y="-778.1" font-family="Times,serif" font-size="14.00">144</text>
<polyline fill="none" stroke="black" points="0,-769.9 62.66,-769.9 "/>
<text text-anchor="middle" x="31.33" y="-753.3" font-family="Times,serif" font-size="14.00">145&#45;156</text>
<polyline fill="none" stroke="black" points="0,-745.1 62.66,-745.1 "/>
<text text-anchor="middle" x="31.33" y="-728.5" font-family="Times,serif" font-size="14.00">157&#45;164</text>
<polyline fill="none" stroke="black" points="0,-720.3 62.66,-720.3 "/>
<text text-anchor="middle" x="31.33" y="-703.7" font-family="Times,serif" font-size="14.00">165</text>
<polyline fill="none" stroke="black" points="0,-695.5 62.66,-695.5 "/>
<text text-anchor="middle" x="31.33" y="-678.9" font-family="Times,serif" font-size="14.00">166&#45;177</text>
<polyline fill="none" stroke="black" points="0,-670.7 62.66,-670.7 "/>
<text text-anchor="middle" x="31.33" y="-654.1" font-family="Times,serif" font-size="14.00">178&#45;189</text>
<polyline fill="none" stroke="black" points="0,-645.9 62.66,-645.9 "/>
<text text-anchor="middle" x="31.33" y="-629.3" font-family="Times,serif" font-size="14.00">190</text>
<polyline fill="none" stroke="black" points="0,-621.1 62.66,-621.1 "/>
<text text-anchor="middle" x="31.33" y="-604.5" font-family="Times,serif" font-size="14.00">191</text>
<polyline fill="none" stroke="black" points="0,-596.3 62.66,-596.3 "/>
<text text-anchor="middle" x="31.33" y="-579.7" font-family="Times,serif" font-size="14.00">192</text>
<polyline fill="none" stroke="black" points="0,-571.5 62.66,-571.5 "/>
<text text-anchor="middle" x="31.33" y="-554.9" font-family="Times,serif" font-size="14.00">193</text>
<polyline fill="none" stroke="black" points="0,-546.7 62.66,-546.7 "/>
<text text-anchor="middle" x="31.33" y="-530.1" font-family="Times,serif" font-size="14.00">194</text>
<polyline fill="none" stroke="black" points="0,-521.9 62.66,-521.9 "/>
<text text-anchor="middle" x="31.33" y="-505.3" font-family="Times,serif" font-size="14.00">195&#45;196</text>
<polyline fill="none" stroke="black" points="0,-497.1 62.66,-497.1 "/>
<text text-anchor="middle" x="31.33" y="-480.5" font-family="Times,serif" font-size="14.00">197&#45;198</text>
<polyline fill="none" stroke="black" points="0,-472.3 62.66,-472.3 "/>
<text text-anchor="middle" x="31.33" y="-455.7" font-family="Times,serif" font-size="14.00">199&#45;202</text>
<polyline fill="none" stroke="black" points="0,-447.5 62.66,-447.5 "/>
<text text-anchor="middle" x="31.33" y="-430.9" font-family="Times,serif" font-size="14.00">203&#45;205</text>
<polyline fill="none" stroke="black" points="0,-422.7 62.66,-422.7 "/>
<text text-anchor="middle" x="31.33" y="-406.1" font-family="Times,serif" font-size="14.00">206</text>
<polyline fill="none" stroke="black" points="0,-397.9 62.66,-397.9 "/>
<text text-anchor="middle" x="31.33" y="-381.3" font-family="Times,serif" font-size="14.00">207</text>
<polyline fill="none" stroke="black" points="0,-373.1 62.66,-373.1 "/>
<text text-anchor="middle" x="31.33" y="-356.5" font-family="Times,serif" font-size="14.00">208&#45;210</text>
<polyline fill="none" stroke="black" points="0,-348.3 62.66,-348.3 "/>
<text text-anchor="middle" x="31.33" y="-331.7" font-family="Times,serif" font-size="14.00">211</text>
<polyline fill="none" stroke="black" points="0,-323.5 62.66,-323.5 "/>
<text text-anchor="middle" x="31.33" y="-306.9" font-family="Times,serif" font-size="14.00">212</text>
<polyline fill="none" stroke="black" points="0,-298.7 62.66,-298.7 "/>
<text text-anchor="middle" x="31.33" y="-282.1" font-family="Times,serif" font-size="14.00">213</text>
<polyline fill="none" stroke="black" points="0,-273.9 62.66,-273.9 "/>
<text text-anchor="middle" x="31.33" y="-257.3" font-family="Times,serif" font-size="14.00">214</text>
<polyline fill="none" stroke="black" points="0,-249.1 62.66,-249.1 "/>
<text text-anchor="middle" x="31.33" y="-232.5" font-family="Times,serif" font-size="14.00">215</text>
<polyline fill="none" stroke="black" points="0,-224.3 62.66,-224.3 "/>
<text text-anchor="middle" x="31.33" y="-207.7" font-family="Times,serif" font-size="14.00">216</text>
<polyline fill="none" stroke="black" points="0,-199.5 62.66,-199.5 "/>
<text text-anchor="middle" x="31.33" y="-182.9" font-family="Times,serif" font-size="14.00">217</text>
<polyline fill="none" stroke="black" points="0,-174.7 62.66,-174.7 "/>
<text text-anchor="middle" x="31.33" y="-158.1" font-family="Times,serif" font-size="14.00">218</text>
<polyline fill="none" stroke="black" points="0,-149.9 62.66,-149.9 "/>
<text text-anchor="middle" x="31.33" y="-133.3" font-family="Times,serif" font-size="14.00">219</text>
<polyline fill="none" stroke="black" points="62.66,-125.1 62.66,-1588.3 "/>
<text text-anchor="middle" x="389.76" y="-1571.7" font-family="Times,serif" font-size="14.00">type: &lt;inherited contract&gt;.variable (bytes)</text>
<polyline fill="none" stroke="black" points="62.66,-1563.5 716.85,-1563.5 "/>
<text text-anchor="middle" x="116.34" y="-1546.9" font-family="Times,serif" font-size="14.00">unallocated (10)</text>
<polyline fill="none" stroke="black" points="170.01,-1538.7 170.01,-1563.5 "/>
<text text-anchor="middle" x="236.92" y="-1546.9" font-family="Times,serif" font-size="14.00">bool: Parent.initP (1)</text>
<polyline fill="none" stroke="black" points="303.83,-1538.7 303.83,-1563.5 "/>
<text text-anchor="middle" x="420.88" y="-1546.9" font-family="Times,serif" font-size="14.00">address: GrandParent.grandParent (20)</text>
<polyline fill="none" stroke="black" points="537.93,-1538.7 537.93,-1563.5 "/>
<text text-anchor="middle" x="627.39" y="-1546.9" font-family="Times,serif" font-size="14.00">bool: GrandParent.initGP (1)</text>
<polyline fill="none" stroke="black" points="62.66,-1538.7 716.85,-1538.7 "/>
<text text-anchor="middle" x="154.84" y="-1522.1" font-family="Times,serif" font-size="14.00">unallocated (11)</text>
<polyline fill="none" stroke="black" points="247.01,-1513.9 247.01,-1538.7 "/>
<text text-anchor="middle" x="359.92" y="-1522.1" font-family="Times,serif" font-size="14.00">bool: Parent2.initP2 (1)</text>
<polyline fill="none" stroke="black" points="472.83,-1513.9 472.83,-1538.7 "/>
<text text-anchor="middle" x="594.56" y="-1522.1" font-family="Times,serif" font-size="14.00">address: Parent.parent (20)</text>
<polyline fill="none" stroke="black" points="62.66,-1513.9 716.85,-1513.9 "/>
<text text-anchor="middle" x="207.84" y="-1497.3" font-family="Times,serif" font-size="14.00">unallocated (12)</text>
<polyline fill="none" stroke="black" points="353.01,-1489.1 353.01,-1513.9 "/>
<text text-anchor="middle" x="534.73" y="-1497.3" font-family="Times,serif" font-size="14.00">address: Parent2.parent2 (20)</text>
<polyline fill="none" stroke="black" points="62.66,-1489.1 716.85,-1489.1 "/>
<text text-anchor="middle" x="220.84" y="-1472.5" font-family="Times,serif" font-size="14.00">unallocated (12)</text>
<polyline fill="none" stroke="black" points="379.01,-1464.3 379.01,-1489.1 "/>
<text text-anchor="middle" x="547.6" y="-1472.5" font-family="Times,serif" font-size="14.00">address: owner (20)</text>
<polyline fill="none" stroke="black" points="62.66,-1464.3 716.85,-1464.3 "/>
<text text-anchor="middle" x="220.84" y="-1447.7" font-family="Times,serif" font-size="14.00">unallocated (12)</text>
<polyline fill="none" stroke="black" points="379.01,-1439.5 379.01,-1464.3 "/>
<text text-anchor="middle" x="547.61" y="-1447.7" font-family="Times,serif" font-size="14.00">IERC20: token (20)</text>
<polyline fill="none" stroke="black" points="62.66,-1439.5 716.85,-1439.5 "/>
<text text-anchor="middle" x="389.76" y="-1422.9" font-family="Times,serif" font-size="14.00">address[]: tokensDyn (32)</text>
<polyline fill="none" stroke="black" points="62.66,-1414.7 716.85,-1414.7 "/>
<text text-anchor="middle" x="389.7" y="-1398.1" font-family="Times,serif" font-size="14.00">IERC20[2]: tokenPair (64)</text>
<polyline fill="none" stroke="black" points="62.66,-1389.9 716.85,-1389.9 "/>
<text text-anchor="middle" x="389.75" y="-1373.3" font-family="Times,serif" font-size="14.00">address[12]: dozenTokens (384)</text>
<polyline fill="none" stroke="black" points="62.66,-1365.1 716.85,-1365.1 "/>
<text text-anchor="middle" x="389.26" y="-1348.5" font-family="Times,serif" font-size="14.00">address[N_COINS]: coins (64)</text>
<polyline fill="none" stroke="black" points="62.66,-1340.3 716.85,-1340.3 "/>
<text text-anchor="middle" x="389.37" y="-1323.7" font-family="Times,serif" font-size="14.00">address[N_COINS][3][N_COINS]: multiDimension (384)</text>
<polyline fill="none" stroke="black" points="62.66,-1315.5 716.85,-1315.5 "/>
<text text-anchor="middle" x="389.55" y="-1298.9" font-family="Times,serif" font-size="14.00">uint256[MAX_COINS]: maxCoins (96)</text>
<polyline fill="none" stroke="black" points="62.66,-1290.7 716.85,-1290.7 "/>
<text text-anchor="middle" x="389.71" y="-1274.1" font-family="Times,serif" font-size="14.00">IERC20[N_COINS]: tokens (64)</text>
<polyline fill="none" stroke="black" points="62.66,-1265.9 716.85,-1265.9 "/>
<text text-anchor="middle" x="389.44" y="-1249.3" font-family="Times,serif" font-size="14.00">uint256: totalSupply (32)</text>
<polyline fill="none" stroke="black" points="62.66,-1241.1 716.85,-1241.1 "/>
<text text-anchor="middle" x="226.15" y="-1224.5" font-family="Times,serif" font-size="14.00">uint128: rate2 (16)</text>
<polyline fill="none" stroke="black" points="389.63,-1216.3 389.63,-1241.1 "/>
<text text-anchor="middle" x="553.12" y="-1224.5" font-family="Times,serif" font-size="14.00">uint128: rate1 (16)</text>
<polyline fill="none" stroke="black" points="62.66,-1216.3 716.85,-1216.3 "/>
<text text-anchor="middle" x="389.38" y="-1199.7" font-family="Times,serif" font-size="14.00">bytes32: hash (32)</text>
<polyline fill="none" stroke="black" points="62.66,-1191.5 716.85,-1191.5 "/>
<text text-anchor="middle" x="131.84" y="-1174.9" font-family="Times,serif" font-size="14.00">unallocated (28)</text>
<polyline fill="none" stroke="black" points="201.01,-1166.7 201.01,-1191.5 "/>
<text text-anchor="middle" x="265.45" y="-1174.9" font-family="Times,serif" font-size="14.00">bool: flag4 (1)</text>
<polyline fill="none" stroke="black" points="329.88,-1166.7 329.88,-1191.5 "/>
<text text-anchor="middle" x="394.31" y="-1174.9" font-family="Times,serif" font-size="14.00">bool: flag3 (1)</text>
<polyline fill="none" stroke="black" points="458.75,-1166.7 458.75,-1191.5 "/>
<text text-anchor="middle" x="523.18" y="-1174.9" font-family="Times,serif" font-size="14.00">bool: flag2 (1)</text>
<polyline fill="none" stroke="black" points="587.62,-1166.7 587.62,-1191.5 "/>
<text text-anchor="middle" x="652.05" y="-1174.9" font-family="Times,serif" font-size="14.00">bool: flag1 (1)</text>
<polyline fill="none" stroke="black" points="62.66,-1166.7 716.85,-1166.7 "/>
<text text-anchor="middle" x="389.48" y="-1150.1" font-family="Times,serif" font-size="14.00">bool[2]: flags (32)</text>
<polyline fill="none" stroke="black" points="62.66,-1141.9 716.85,-1141.9 "/>
<text text-anchor="middle" x="228.34" y="-1125.3" font-family="Times,serif" font-size="14.00">unallocated (31)</text>
<polyline fill="none" stroke="black" points="394.01,-1117.1 394.01,-1141.9 "/>
<text text-anchor="middle" x="554.95" y="-1125.3" font-family="Times,serif" font-size="14.00">bool: flag5 (1)</text>
<polyline fill="none" stroke="black" points="62.66,-1117.1 716.85,-1117.1 "/>
<text text-anchor="middle" x="389.65" y="-1100.5" font-family="Times,serif" font-size="14.00">bool[2][2]: flags2x2 (64)</text>
<polyline fill="none" stroke="black" points="62.66,-1092.3 716.85,-1092.3 "/>
<text text-anchor="middle" x="228.34" y="-1075.7" font-family="Times,serif" font-size="14.00">unallocated (31)</text>
<polyline fill="none" stroke="black" points="394.01,-1067.5 394.01,-1092.3 "/>
<text text-anchor="middle" x="554.95" y="-1075.7" font-family="Times,serif" font-size="14.00">bool: flag6 (1)</text>
<polyline fill="none" stroke="black" points="62.66,-1067.5 716.85,-1067.5 "/>
<text text-anchor="middle" x="389.65" y="-1050.9" font-family="Times,serif" font-size="14.00">bool[2][3]: flags2x3 (96)</text>
<polyline fill="none" stroke="black" points="62.66,-1042.7 716.85,-1042.7 "/>
<text text-anchor="middle" x="228.34" y="-1026.1" font-family="Times,serif" font-size="14.00">unallocated (31)</text>
<polyline fill="none" stroke="black" points="394.01,-1017.9 394.01,-1042.7 "/>
<text text-anchor="middle" x="554.95" y="-1026.1" font-family="Times,serif" font-size="14.00">bool: flag7 (1)</text>
<polyline fill="none" stroke="black" points="62.66,-1017.9 716.85,-1017.9 "/>
<text text-anchor="middle" x="389.65" y="-1001.3" font-family="Times,serif" font-size="14.00">bool[3][2]: flags3x2 (64)</text>
<polyline fill="none" stroke="black" points="62.66,-993.1 716.85,-993.1 "/>
<text text-anchor="middle" x="389.65" y="-976.5" font-family="Times,serif" font-size="14.00">bool[33][2]: flags33x2 (128)</text>
<polyline fill="none" stroke="black" points="62.66,-968.3 716.85,-968.3 "/>
<text text-anchor="middle" x="389.65" y="-951.7" font-family="Times,serif" font-size="14.00">bool[2][33]: flags2x33 (1056)</text>
<polyline fill="none" stroke="black" points="62.66,-943.5 716.85,-943.5 "/>
<text text-anchor="middle" x="228.34" y="-926.9" font-family="Times,serif" font-size="14.00">unallocated (31)</text>
<polyline fill="none" stroke="black" points="394.01,-918.7 394.01,-943.5 "/>
<text text-anchor="middle" x="554.95" y="-926.9" font-family="Times,serif" font-size="14.00">bool: flag8 (1)</text>
<polyline fill="none" stroke="black" points="62.66,-918.7 716.85,-918.7 "/>
<text text-anchor="middle" x="389.7" y="-902.1" font-family="Times,serif" font-size="14.00">bool[2][]: flags2xDyn (32)</text>
<polyline fill="none" stroke="black" points="62.66,-893.9 716.85,-893.9 "/>
<text text-anchor="middle" x="228.34" y="-877.3" font-family="Times,serif" font-size="14.00">unallocated (31)</text>
<polyline fill="none" stroke="black" points="394.01,-869.1 394.01,-893.9 "/>
<text text-anchor="middle" x="554.95" y="-877.3" font-family="Times,serif" font-size="14.00">bool: flag9 (1)</text>
<polyline fill="none" stroke="black" points="62.66,-869.1 716.85,-869.1 "/>
<text text-anchor="middle" x="389.7" y="-852.5" font-family="Times,serif" font-size="14.00">bool[][2]: flagsDynx2 (64)</text>
<polyline fill="none" stroke="black" points="62.66,-844.3 716.85,-844.3 "/>
<text text-anchor="middle" x="389.7" y="-827.7" font-family="Times,serif" font-size="14.00">bool[][16]: flagsDynx16 (512)</text>
<polyline fill="none" stroke="black" points="62.66,-819.5 716.85,-819.5 "/>
<text text-anchor="middle" x="389.7" y="-802.9" font-family="Times,serif" font-size="14.00">bool[][32]: flagsDynx32 (1024)</text>
<polyline fill="none" stroke="black" points="62.66,-794.7 716.85,-794.7 "/>
<text text-anchor="middle" x="389.7" y="-778.1" font-family="Times,serif" font-size="14.00">bool[32][]: flags32xDyn (32)</text>
<polyline fill="none" stroke="black" points="62.66,-769.9 716.85,-769.9 "/>
<text text-anchor="middle" x="389.36" y="-753.3" font-family="Times,serif" font-size="14.00">bool[][4][3]: flagsDynx4x3 (384)</text>
<polyline fill="none" stroke="black" points="62.66,-745.1 716.85,-745.1 "/>
<text text-anchor="middle" x="389.65" y="-728.5" font-family="Times,serif" font-size="14.00">bool[33][2][2]: bool_33x2x2 (256)</text>
<polyline fill="none" stroke="black" points="62.66,-720.3 716.85,-720.3 "/>
<text text-anchor="middle" x="226.84" y="-703.7" font-family="Times,serif" font-size="14.00">unallocated (31)</text>
<polyline fill="none" stroke="black" points="391.01,-695.5 391.01,-720.3 "/>
<text text-anchor="middle" x="553.45" y="-703.7" font-family="Times,serif" font-size="14.00">bool: flag10 (1)</text>
<polyline fill="none" stroke="black" points="62.66,-695.5 716.85,-695.5 "/>
<text text-anchor="middle" x="389.65" y="-678.9" font-family="Times,serif" font-size="14.00">bytes30[2][6]: bytes30_2x6 (384)</text>
<polyline fill="none" stroke="black" points="62.66,-670.7 716.85,-670.7 "/>
<text text-anchor="middle" x="389.65" y="-654.1" font-family="Times,serif" font-size="14.00">bytes30[6][2]: bytes30_6x2 (384)</text>
<polyline fill="none" stroke="black" points="62.66,-645.9 716.85,-645.9 "/>
<text text-anchor="middle" x="389.54" y="-629.3" font-family="Times,serif" font-size="14.00">bytes32[]: bytes32Dyn (32)</text>
<polyline fill="none" stroke="black" points="62.66,-621.1 716.85,-621.1 "/>
<text text-anchor="middle" x="140.84" y="-604.5" font-family="Times,serif" font-size="14.00">unallocated (29)</text>
<polyline fill="none" stroke="black" points="219.01,-596.3 219.01,-621.1 "/>
<text text-anchor="middle" x="311.1" y="-604.5" font-family="Times,serif" font-size="14.00">Severity: severity (1)</text>
<polyline fill="none" stroke="black" points="403.2,-596.3 403.2,-621.1 "/>
<text text-anchor="middle" x="482.86" y="-604.5" font-family="Times,serif" font-size="14.00">Status: status (1)</text>
<polyline fill="none" stroke="black" points="562.53,-596.3 562.53,-621.1 "/>
<text text-anchor="middle" x="639.46" y="-604.5" font-family="Times,serif" font-size="14.00">bool: flag11 (1)</text>
<polyline fill="none" stroke="black" points="62.66,-596.3 716.85,-596.3 "/>
<text text-anchor="middle" x="389.61" y="-579.7" font-family="Times,serif" font-size="14.00">SubOneSlot: subSlot (32)</text>
<polyline fill="none" stroke="black" points="62.66,-571.5 716.85,-571.5 "/>
<text text-anchor="middle" x="211.84" y="-554.9" font-family="Times,serif" font-size="14.00">unallocated (31)</text>
<polyline fill="none" stroke="black" points="361.01,-546.7 361.01,-571.5 "/>
<text text-anchor="middle" x="538.77" y="-554.9" font-family="Times,serif" font-size="14.00">uint8: oneByteNumber (1)</text>
<polyline fill="none" stroke="black" points="62.66,-546.7 716.85,-546.7 "/>
<text text-anchor="middle" x="389.6" y="-530.1" font-family="Times,serif" font-size="14.00">OneSlot: oneSlot (32)</text>
<polyline fill="none" stroke="black" points="62.66,-521.9 716.85,-521.9 "/>
<text text-anchor="middle" x="389.34" y="-505.3" font-family="Times,serif" font-size="14.00">SubTwoSlots: subTwoSlot (64)</text>
<polyline fill="none" stroke="black" points="62.66,-497.1 716.85,-497.1 "/>
<text text-anchor="middle" x="389.61" y="-480.5" font-family="Times,serif" font-size="14.00">TwoSlots: twoSlots (64)</text>
<polyline fill="none" stroke="black" points="62.66,-472.3 716.85,-472.3 "/>
<text text-anchor="middle" x="389.75" y="-455.7" font-family="Times,serif" font-size="14.00">FixedArray: fixedArray (128)</text>
<polyline fill="none" stroke="black" points="62.66,-447.5 716.85,-447.5 "/>
<text text-anchor="middle" x="389.26" y="-430.9" font-family="Times,serif" font-size="14.00">FlagsStruct: flagStruct (96)</text>
<polyline fill="none" stroke="black" points="62.66,-422.7 716.85,-422.7 "/>
<text text-anchor="middle" x="218.84" y="-406.1" font-family="Times,serif" font-size="14.00">unallocated (30)</text>
<polyline fill="none" stroke="black" points="375.01,-397.9 375.01,-422.7 "/>
<text text-anchor="middle" x="545.5" y="-406.1" font-family="Times,serif" font-size="14.00">int16: arrayCount (2)</text>
<polyline fill="none" stroke="black" points="62.66,-397.9 716.85,-397.9 "/>
<text text-anchor="middle" x="389.52" y="-381.3" font-family="Times,serif" font-size="14.00">uint64[]: dynamicIntArray (32)</text>
<polyline fill="none" stroke="black" points="62.66,-373.1 716.85,-373.1 "/>
<text text-anchor="middle" x="389.3" y="-356.5" font-family="Times,serif" font-size="14.00">uint256[3]: fixedIntArray (96)</text>
<polyline fill="none" stroke="black" points="62.66,-348.3 716.85,-348.3 "/>
<text text-anchor="middle" x="389.48" y="-331.7" font-family="Times,serif" font-size="14.00">mapping(address=&gt;bool): blacklist (32)</text>
<polyline fill="none" stroke="black" points="62.66,-323.5 716.85,-323.5 "/>
<text text-anchor="middle" x="389.58" y="-306.9" font-family="Times,serif" font-size="14.00">mapping(address=&gt;uint256): balance (32)</text>
<polyline fill="none" stroke="black" points="62.66,-298.7 716.85,-298.7 "/>
<text text-anchor="middle" x="389.35" y="-282.1" font-family="Times,serif" font-size="14.00">mapping(address=&gt;ContractLevelStruct2): mapStruct (32)</text>
<polyline fill="none" stroke="black" points="62.66,-273.9 716.85,-273.9 "/>
<text text-anchor="middle" x="389.61" y="-257.3" font-family="Times,serif" font-size="14.00">mapping(address=&gt;mapping(address=&gt;ContractLevelStruct2)): mapOfMapStruct (32)</text>
<polyline fill="none" stroke="black" points="62.66,-249.1 716.85,-249.1 "/>
<text text-anchor="middle" x="389.37" y="-232.5" font-family="Times,serif" font-size="14.00">string: name (32)</text>
<polyline fill="none" stroke="black" points="62.66,-224.3 716.85,-224.3 "/>
<text text-anchor="middle" x="389.71" y="-207.7" font-family="Times,serif" font-size="14.00">string: short (32)</text>
<polyline fill="none" stroke="black" points="62.66,-199.5 716.85,-199.5 "/>
<text text-anchor="middle" x="389.42" y="-182.9" font-family="Times,serif" font-size="14.00">string: exactly32 (32)</text>
<polyline fill="none" stroke="black" points="62.66,-174.7 716.85,-174.7 "/>
<text text-anchor="middle" x="389.66" y="-158.1" font-family="Times,serif" font-size="14.00">string: long2 (32)</text>
<polyline fill="none" stroke="black" points="62.66,-149.9 716.85,-149.9 "/>
<text text-anchor="middle" x="389.66" y="-133.3" font-family="Times,serif" font-size="14.00">string: long3 (32)</text>
</g>
<!-- 1 -->
<g id="node2" class="node">
<title>1</title>
<polygon fill="#f2f2f2" stroke="black" points="760.24,-817.9 760.24,-892.3 1226.28,-892.3 1226.28,-817.9 760.24,-817.9"/>
<text text-anchor="middle" x="993.26" y="-875.7" font-family="Times,serif" font-size="14.00">SubOneSlot &lt;&lt;Struct&gt;&gt;</text>
<polyline fill="none" stroke="black" points="760.24,-867.5 1226.28,-867.5 "/>
<text text-anchor="middle" x="778.74" y="-850.9" font-family="Times,serif" font-size="14.00">slot</text>
<polyline fill="none" stroke="black" points="760.24,-842.7 797.24,-842.7 "/>
<text text-anchor="middle" x="778.74" y="-826.1" font-family="Times,serif" font-size="14.00">192</text>
<polyline fill="none" stroke="black" points="797.24,-817.9 797.24,-867.5 "/>
<text text-anchor="middle" x="1011.76" y="-850.9" font-family="Times,serif" font-size="14.00">type: variable (bytes)</text>
<polyline fill="none" stroke="black" points="797.24,-842.7 1226.28,-842.7 "/>
<text text-anchor="middle" x="850.91" y="-826.1" font-family="Times,serif" font-size="14.00">unallocated (10)</text>
<polyline fill="none" stroke="black" points="904.58,-817.9 904.58,-842.7 "/>
<text text-anchor="middle" x="952.63" y="-826.1" font-family="Times,serif" font-size="14.00">int8: count (1)</text>
<polyline fill="none" stroke="black" points="1000.68,-817.9 1000.68,-842.7 "/>
<text text-anchor="middle" x="1045.62" y="-826.1" font-family="Times,serif" font-size="14.00">bool: flag (1)</text>
<polyline fill="none" stroke="black" points="1090.55,-817.9 1090.55,-842.7 "/>
<text text-anchor="middle" x="1158.42" y="-826.1" font-family="Times,serif" font-size="14.00">address: account (20)</text>
</g>
<!-- 10&#45;&gt;1 -->
<g id="edge1" class="edge">
<title>10:52&#45;&gt;1</title>
<path fill="none" stroke="black" d="M716.85,-584.1C767.49,-584.1 717.61,-772.74 752.85,-809.1 753.4,-809.67 753.96,-810.23 754.52,-810.79"/>
<polygon fill="black" stroke="black" points="752.34,-813.54 762.08,-817.72 757.07,-808.38 752.34,-813.54"/>
</g>
<!-- 2 -->
<g id="node3" class="node">
<title>2</title>
<polygon fill="#f2f2f2" stroke="black" points="800.68,-724.9 800.68,-799.3 1185.84,-799.3 1185.84,-724.9 800.68,-724.9"/>
<text text-anchor="middle" x="993.26" y="-782.7" font-family="Times,serif" font-size="14.00">OneSlot &lt;&lt;Struct&gt;&gt;</text>
<polyline fill="none" stroke="black" points="800.68,-774.5 1185.84,-774.5 "/>
<text text-anchor="middle" x="819.18" y="-757.9" font-family="Times,serif" font-size="14.00">slot</text>
<polyline fill="none" stroke="black" points="800.68,-749.7 837.68,-749.7 "/>
<text text-anchor="middle" x="819.18" y="-733.1" font-family="Times,serif" font-size="14.00">194</text>
<polyline fill="none" stroke="black" points="837.68,-724.9 837.68,-774.5 "/>
<text text-anchor="middle" x="1011.76" y="-757.9" font-family="Times,serif" font-size="14.00">type: variable (bytes)</text>
<polyline fill="none" stroke="black" points="837.68,-749.7 1185.84,-749.7 "/>
<text text-anchor="middle" x="889.23" y="-733.1" font-family="Times,serif" font-size="14.00">uint8: count (1)</text>
<polyline fill="none" stroke="black" points="940.78,-724.9 940.78,-749.7 "/>
<text text-anchor="middle" x="995.44" y="-733.1" font-family="Times,serif" font-size="14.00">uint88: sum (11)</text>
<polyline fill="none" stroke="black" points="1050.11,-724.9 1050.11,-749.7 "/>
<text text-anchor="middle" x="1117.97" y="-733.1" font-family="Times,serif" font-size="14.00">address: account (20)</text>
</g>
<!-- 10&#45;&gt;2 -->
<g id="edge2" class="edge">
<title>10:57&#45;&gt;2</title>
<path fill="none" stroke="black" d="M716.85,-534.1C798.87,-534.1 694.78,-657.17 752.85,-715.1 764.04,-726.27 777.06,-735.17 791.13,-742.25"/>
<polygon fill="black" stroke="black" points="789.98,-745.57 800.53,-746.63 792.95,-739.23 789.98,-745.57"/>
</g>
<!-- 3 -->
<g id="node4" class="node">
<title>3</title>
<polygon fill="#f2f2f2" stroke="black" points="752.85,-606.5 752.85,-705.7 1233.67,-705.7 1233.67,-606.5 752.85,-606.5"/>
<text text-anchor="middle" x="993.26" y="-689.1" font-family="Times,serif" font-size="14.00">SubTwoSlots &lt;&lt;Struct&gt;&gt;</text>
<polyline fill="none" stroke="black" points="752.85,-680.9 1233.67,-680.9 "/>
<text text-anchor="middle" x="771.35" y="-664.3" font-family="Times,serif" font-size="14.00">slot</text>
<polyline fill="none" stroke="black" points="752.85,-656.1 789.85,-656.1 "/>
<text text-anchor="middle" x="771.35" y="-639.5" font-family="Times,serif" font-size="14.00">195</text>
<polyline fill="none" stroke="black" points="752.85,-631.3 789.85,-631.3 "/>
<text text-anchor="middle" x="771.35" y="-614.7" font-family="Times,serif" font-size="14.00">196</text>
<polyline fill="none" stroke="black" points="789.85,-606.5 789.85,-680.9 "/>
<text text-anchor="middle" x="1011.76" y="-664.3" font-family="Times,serif" font-size="14.00">type: variable (bytes)</text>
<polyline fill="none" stroke="black" points="789.85,-656.1 1233.67,-656.1 "/>
<text text-anchor="middle" x="891.52" y="-639.5" font-family="Times,serif" font-size="14.00">unallocated (12)</text>
<polyline fill="none" stroke="black" points="993.2,-631.3 993.2,-656.1 "/>
<text text-anchor="middle" x="1113.06" y="-639.5" font-family="Times,serif" font-size="14.00">address: account1 (20)</text>
<polyline fill="none" stroke="black" points="789.85,-631.3 1233.67,-631.3 "/>
<text text-anchor="middle" x="843.52" y="-614.7" font-family="Times,serif" font-size="14.00">unallocated (10)</text>
<polyline fill="none" stroke="black" points="897.2,-606.5 897.2,-631.3 "/>
<text text-anchor="middle" x="945.63" y="-614.7" font-family="Times,serif" font-size="14.00">bool: flag2 (1)</text>
<polyline fill="none" stroke="black" points="994.07,-606.5 994.07,-631.3 "/>
<text text-anchor="middle" x="1042.5" y="-614.7" font-family="Times,serif" font-size="14.00">bool: flag1 (1)</text>
<polyline fill="none" stroke="black" points="1090.94,-606.5 1090.94,-631.3 "/>
<text text-anchor="middle" x="1162.3" y="-614.7" font-family="Times,serif" font-size="14.00">address: account2 (20)</text>
</g>
<!-- 10&#45;&gt;3 -->
<g id="edge3" class="edge">
<title>10:62&#45;&gt;3</title>
<path fill="none" stroke="black" d="M716.85,-509.1C759.11,-509.1 720.86,-569.49 752.85,-597.1 754.04,-598.13 755.24,-599.14 756.46,-600.13"/>
<polygon fill="black" stroke="black" points="754.64,-603.14 764.72,-606.44 758.9,-597.58 754.64,-603.14"/>
</g>
<!-- 4 -->
<g id="node5" class="node">
<title>4</title>
<polygon fill="#f2f2f2" stroke="black" points="907.28,-488.5 907.28,-587.7 1079.23,-587.7 1079.23,-488.5 907.28,-488.5"/>
<text text-anchor="middle" x="993.26" y="-571.1" font-family="Times,serif" font-size="14.00">TwoSlots &lt;&lt;Struct&gt;&gt;</text>
<polyline fill="none" stroke="black" points="907.28,-562.9 1079.23,-562.9 "/>
<text text-anchor="middle" x="925.78" y="-546.3" font-family="Times,serif" font-size="14.00">slot</text>
<polyline fill="none" stroke="black" points="907.28,-538.1 944.28,-538.1 "/>
<text text-anchor="middle" x="925.78" y="-521.5" font-family="Times,serif" font-size="14.00">197</text>
<polyline fill="none" stroke="black" points="907.28,-513.3 944.28,-513.3 "/>
<text text-anchor="middle" x="925.78" y="-496.7" font-family="Times,serif" font-size="14.00">198</text>
<polyline fill="none" stroke="black" points="944.28,-488.5 944.28,-562.9 "/>
<text text-anchor="middle" x="1011.76" y="-546.3" font-family="Times,serif" font-size="14.00">type: variable (bytes)</text>
<polyline fill="none" stroke="black" points="944.28,-538.1 1079.23,-538.1 "/>
<text text-anchor="middle" x="1011.5" y="-521.5" font-family="Times,serif" font-size="14.00">bytes32: hash1 (32)</text>
<polyline fill="none" stroke="black" points="944.28,-513.3 1079.23,-513.3 "/>
<text text-anchor="middle" x="1011.5" y="-496.7" font-family="Times,serif" font-size="14.00">bytes32: hash2 (32)</text>
</g>
<!-- 10&#45;&gt;4 -->
<g id="edge4" class="edge">
<title>10:65&#45;&gt;4</title>
<path fill="none" stroke="black" d="M716.85,-485.1C777.57,-485.1 844.49,-497.68 897.16,-510.58"/>
<polygon fill="black" stroke="black" points="896.61,-514.05 907.16,-513.07 898.31,-507.26 896.61,-514.05"/>
</g>
<!-- 5 -->
<g id="node6" class="node">
<title>5</title>
<polygon fill="#f2f2f2" stroke="black" points="852.81,-345.1 852.81,-469.1 1133.71,-469.1 1133.71,-345.1 852.81,-345.1"/>
<text text-anchor="middle" x="993.26" y="-452.5" font-family="Times,serif" font-size="14.00">FixedArray &lt;&lt;Struct&gt;&gt;</text>
<polyline fill="none" stroke="black" points="852.81,-444.3 1133.71,-444.3 "/>
<text text-anchor="middle" x="884.14" y="-427.7" font-family="Times,serif" font-size="14.00">slot</text>
<polyline fill="none" stroke="black" points="852.81,-419.5 915.47,-419.5 "/>
<text text-anchor="middle" x="884.14" y="-402.9" font-family="Times,serif" font-size="14.00">199</text>
<polyline fill="none" stroke="black" points="852.81,-394.7 915.47,-394.7 "/>
<text text-anchor="middle" x="884.14" y="-378.1" font-family="Times,serif" font-size="14.00">200&#45;201</text>
<polyline fill="none" stroke="black" points="852.81,-369.9 915.47,-369.9 "/>
<text text-anchor="middle" x="884.14" y="-353.3" font-family="Times,serif" font-size="14.00">202</text>
<polyline fill="none" stroke="black" points="915.47,-345.1 915.47,-444.3 "/>
<text text-anchor="middle" x="1024.59" y="-427.7" font-family="Times,serif" font-size="14.00">type: variable (bytes)</text>
<polyline fill="none" stroke="black" points="915.47,-419.5 1133.71,-419.5 "/>
<text text-anchor="middle" x="969.15" y="-402.9" font-family="Times,serif" font-size="14.00">unallocated (30)</text>
<polyline fill="none" stroke="black" points="1022.82,-394.7 1022.82,-419.5 "/>
<text text-anchor="middle" x="1078.26" y="-402.9" font-family="Times,serif" font-size="14.00">uint16: num1 (2)</text>
<polyline fill="none" stroke="black" points="915.47,-394.7 1133.71,-394.7 "/>
<text text-anchor="middle" x="1024.18" y="-378.1" font-family="Times,serif" font-size="14.00">bytes30[2]: data (64)</text>
<polyline fill="none" stroke="black" points="915.47,-369.9 1133.71,-369.9 "/>
<text text-anchor="middle" x="969.15" y="-353.3" font-family="Times,serif" font-size="14.00">unallocated (30)</text>
<polyline fill="none" stroke="black" points="1022.82,-345.1 1022.82,-369.9 "/>
<text text-anchor="middle" x="1078.26" y="-353.3" font-family="Times,serif" font-size="14.00">uint16: num2 (2)</text>
</g>
<!-- 10&#45;&gt;5 -->
<g id="edge5" class="edge">
<title>10:69&#45;&gt;5</title>
<path fill="none" stroke="black" d="M716.85,-460.1C758.12,-460.1 802.25,-454.29 842.83,-446.52"/>
<polygon fill="black" stroke="black" points="843.66,-449.92 852.79,-444.56 842.3,-443.05 843.66,-449.92"/>
</g>
<!-- 6 -->
<g id="node7" class="node">
<title>6</title>
<polygon fill="#f2f2f2" stroke="black" points="872.65,-202.1 872.65,-326.1 1113.87,-326.1 1113.87,-202.1 872.65,-202.1"/>
<text text-anchor="middle" x="993.26" y="-309.5" font-family="Times,serif" font-size="14.00">FlagsStruct &lt;&lt;Struct&gt;&gt;</text>
<polyline fill="none" stroke="black" points="872.65,-301.3 1113.87,-301.3 "/>
<text text-anchor="middle" x="891.15" y="-284.7" font-family="Times,serif" font-size="14.00">slot</text>
<polyline fill="none" stroke="black" points="872.65,-276.5 909.65,-276.5 "/>
<text text-anchor="middle" x="891.15" y="-259.9" font-family="Times,serif" font-size="14.00">203</text>
<polyline fill="none" stroke="black" points="872.65,-251.7 909.65,-251.7 "/>
<text text-anchor="middle" x="891.15" y="-235.1" font-family="Times,serif" font-size="14.00">204</text>
<polyline fill="none" stroke="black" points="872.65,-226.9 909.65,-226.9 "/>
<text text-anchor="middle" x="891.15" y="-210.3" font-family="Times,serif" font-size="14.00">205</text>
<polyline fill="none" stroke="black" points="909.65,-202.1 909.65,-301.3 "/>
<text text-anchor="middle" x="1011.76" y="-284.7" font-family="Times,serif" font-size="14.00">type: variable (bytes)</text>
<polyline fill="none" stroke="black" points="909.65,-276.5 1113.87,-276.5 "/>
<text text-anchor="middle" x="963.32" y="-259.9" font-family="Times,serif" font-size="14.00">unallocated (31)</text>
<polyline fill="none" stroke="black" points="1017,-251.7 1017,-276.5 "/>
<text text-anchor="middle" x="1065.43" y="-259.9" font-family="Times,serif" font-size="14.00">bool: flag1 (1)</text>
<polyline fill="none" stroke="black" points="909.65,-251.7 1113.87,-251.7 "/>
<text text-anchor="middle" x="1011.47" y="-235.1" font-family="Times,serif" font-size="14.00">bool[2]: flags (32)</text>
<polyline fill="none" stroke="black" points="909.65,-226.9 1113.87,-226.9 "/>
<text text-anchor="middle" x="963.32" y="-210.3" font-family="Times,serif" font-size="14.00">unallocated (31)</text>
<polyline fill="none" stroke="black" points="1017,-202.1 1017,-226.9 "/>
<text text-anchor="middle" x="1065.43" y="-210.3" font-family="Times,serif" font-size="14.00">bool: flag2 (1)</text>
</g>
<!-- 10&#45;&gt;6 -->
<g id="edge6" class="edge">
<title>10:73&#45;&gt;6</title>
<path fill="none" stroke="black" d="M716.42,-435.1C763.31,-435.1 718.71,-368.24 752.85,-336.1 782.79,-307.92 823.35,-290.74 862.57,-280.27"/>
<polygon fill="black" stroke="black" points="863.67,-283.6 872.5,-277.75 861.95,-276.82 863.67,-283.6"/>
</g>
<!-- 9 -->
<g id="node10" class="node">
<title>9</title>
<polygon fill="#f2f2f2" stroke="black" points="868.79,-83.5 868.79,-182.7 1117.73,-182.7 1117.73,-83.5 868.79,-83.5"/>
<text text-anchor="middle" x="993.26" y="-166.1" font-family="Times,serif" font-size="14.00">ContractLevelStruct2 &lt;&lt;Struct&gt;&gt;</text>
<polyline fill="none" stroke="black" points="868.79,-157.9 1117.73,-157.9 "/>
<text text-anchor="middle" x="886.9" y="-141.3" font-family="Times,serif" font-size="14.00">slot</text>
<polyline fill="none" stroke="black" points="868.79,-133.1 905.02,-133.1 "/>
<text text-anchor="middle" x="886.9" y="-116.5" font-family="Times,serif" font-size="14.00">0&#45;1</text>
<polyline fill="none" stroke="black" points="868.79,-108.3 905.02,-108.3 "/>
<text text-anchor="middle" x="886.9" y="-91.7" font-family="Times,serif" font-size="14.00">2&#45;3</text>
<polyline fill="none" stroke="black" points="905.02,-83.5 905.02,-157.9 "/>
<text text-anchor="middle" x="1011.37" y="-141.3" font-family="Times,serif" font-size="14.00">type: variable (bytes)</text>
<polyline fill="none" stroke="black" points="905.02,-133.1 1117.73,-133.1 "/>
<text text-anchor="middle" x="1011.37" y="-116.5" font-family="Times,serif" font-size="14.00">ContractLevelStruct0: param1 (64)</text>
<polyline fill="none" stroke="black" points="905.02,-108.3 1117.73,-108.3 "/>
<text text-anchor="middle" x="1011.37" y="-91.7" font-family="Times,serif" font-size="14.00">ContractLevelStruct1: param2 (64)</text>
</g>
<!-- 10&#45;&gt;9 -->
<g id="edge7" class="edge">
<title>10:87&#45;&gt;9</title>
<path fill="none" stroke="black" d="M716.85,-286.1C761.17,-286.1 719.63,-222.44 752.85,-193.1 782.11,-167.26 820.87,-152.21 858.65,-143.54"/>
<polygon fill="black" stroke="black" points="859.71,-146.9 868.75,-141.37 858.24,-140.05 859.71,-146.9"/>
</g>
<!-- 10&#45;&gt;9 -->
<g id="edge8" class="edge">
<title>10:88&#45;&gt;9</title>
<path fill="none" stroke="black" d="M716.85,-261.1C751.05,-261.1 725.93,-214.19 752.85,-193.1 783.11,-169.38 821.57,-154.92 858.77,-146.14"/>
<polygon fill="black" stroke="black" points="859.71,-149.52 868.7,-143.92 858.18,-142.68 859.71,-149.52"/>
</g>
<!-- 7 -->
<g id="node8" class="node">
<title>7</title>
<polygon fill="#f2f2f2" stroke="black" points="1399.58,-118.5 1399.58,-217.7 1653.23,-217.7 1653.23,-118.5 1399.58,-118.5"/>
<text text-anchor="middle" x="1526.4" y="-201.1" font-family="Times,serif" font-size="14.00">ContractLevelStruct0 &lt;&lt;Struct&gt;&gt;</text>
<polyline fill="none" stroke="black" points="1399.58,-192.9 1653.23,-192.9 "/>
<text text-anchor="middle" x="1417.69" y="-176.3" font-family="Times,serif" font-size="14.00">slot</text>
<polyline fill="none" stroke="black" points="1399.58,-168.1 1435.8,-168.1 "/>
<text text-anchor="middle" x="1417.69" y="-151.5" font-family="Times,serif" font-size="14.00">0</text>
<polyline fill="none" stroke="black" points="1399.58,-143.3 1435.8,-143.3 "/>
<text text-anchor="middle" x="1417.69" y="-126.7" font-family="Times,serif" font-size="14.00">1</text>
<polyline fill="none" stroke="black" points="1435.8,-118.5 1435.8,-192.9 "/>
<text text-anchor="middle" x="1544.52" y="-176.3" font-family="Times,serif" font-size="14.00">type: variable (bytes)</text>
<polyline fill="none" stroke="black" points="1435.8,-168.1 1653.23,-168.1 "/>
<text text-anchor="middle" x="1544.29" y="-151.5" font-family="Times,serif" font-size="14.00">uint256: param1 (32)</text>
<polyline fill="none" stroke="black" points="1435.8,-143.3 1653.23,-143.3 "/>
<text text-anchor="middle" x="1489.48" y="-126.7" font-family="Times,serif" font-size="14.00">unallocated (31)</text>
<polyline fill="none" stroke="black" points="1543.15,-118.5 1543.15,-143.3 "/>
<text text-anchor="middle" x="1598.19" y="-126.7" font-family="Times,serif" font-size="14.00">bool: param2 (1)</text>
</g>
<!-- 8 -->
<g id="node9" class="node">
<title>8</title>
<polygon fill="#f2f2f2" stroke="black" points="1269.67,-0.5 1269.67,-99.7 1783.14,-99.7 1783.14,-0.5 1269.67,-0.5"/>
<text text-anchor="middle" x="1526.4" y="-83.1" font-family="Times,serif" font-size="14.00">ContractLevelStruct1 &lt;&lt;Struct&gt;&gt;</text>
<polyline fill="none" stroke="black" points="1269.67,-74.9 1783.14,-74.9 "/>
<text text-anchor="middle" x="1287.78" y="-58.3" font-family="Times,serif" font-size="14.00">slot</text>
<polyline fill="none" stroke="black" points="1269.67,-50.1 1305.9,-50.1 "/>
<text text-anchor="middle" x="1287.78" y="-33.5" font-family="Times,serif" font-size="14.00">2</text>
<polyline fill="none" stroke="black" points="1269.67,-25.3 1305.9,-25.3 "/>
<text text-anchor="middle" x="1287.78" y="-8.7" font-family="Times,serif" font-size="14.00">3</text>
<polyline fill="none" stroke="black" points="1305.9,-0.5 1305.9,-74.9 "/>
<text text-anchor="middle" x="1544.52" y="-58.3" font-family="Times,serif" font-size="14.00">type: variable (bytes)</text>
<polyline fill="none" stroke="black" points="1305.9,-50.1 1783.14,-50.1 "/>
<text text-anchor="middle" x="1544.38" y="-33.5" font-family="Times,serif" font-size="14.00">uint256: param1 (32)</text>
<polyline fill="none" stroke="black" points="1305.9,-25.3 1783.14,-25.3 "/>
<text text-anchor="middle" x="1359.57" y="-8.7" font-family="Times,serif" font-size="14.00">unallocated (10)</text>
<polyline fill="none" stroke="black" points="1413.24,-0.5 1413.24,-25.3 "/>
<text text-anchor="middle" x="1474.12" y="-8.7" font-family="Times,serif" font-size="14.00">bytes1: param4 (1)</text>
<polyline fill="none" stroke="black" points="1534.99,-0.5 1534.99,-25.3 "/>
<text text-anchor="middle" x="1591.98" y="-8.7" font-family="Times,serif" font-size="14.00">uint8: param3 (1)</text>
<polyline fill="none" stroke="black" points="1648.96,-0.5 1648.96,-25.3 "/>
<text text-anchor="middle" x="1716.05" y="-8.7" font-family="Times,serif" font-size="14.00">address: param2 (20)</text>
</g>
<!-- 9&#45;&gt;7 -->
<g id="edge9" class="edge">
<title>9:81&#45;&gt;7</title>
<path fill="none" stroke="black" d="M1118.26,-121.1C1209.01,-121.1 1310.4,-132.77 1389.3,-144.47"/>
<polygon fill="black" stroke="black" points="1388.88,-147.95 1399.29,-145.98 1389.92,-141.03 1388.88,-147.95"/>
</g>
<!-- 9&#45;&gt;8 -->
<g id="edge10" class="edge">
<title>9:86&#45;&gt;8</title>
<path fill="none" stroke="black" d="M1118.26,-96.1C1164.08,-96.1 1212.62,-93.19 1259.62,-88.83"/>
<polygon fill="black" stroke="black" points="1259.99,-92.31 1269.62,-87.88 1259.33,-85.34 1259.99,-92.31"/>
</g>
</g>
</svg>
