<?xml version="1.0" encoding="UTF-8" standalone="no"?>
<!DOCTYPE svg PUBLIC "-//W3C//DTD SVG 1.1//EN"
 "http://www.w3.org/Graphics/SVG/1.1/DTD/svg11.dtd">
<!-- Generated by graphviz version 5.0.0 (20220707.1540)
 -->
<!-- Title: StorageDiagram Pages: 1 -->
<svg width="1407pt" height="547pt"
 viewBox="0.00 0.00 1407.01 546.60" xmlns="http://www.w3.org/2000/svg" xmlns:xlink="http://www.w3.org/1999/xlink">
<g id="graph0" class="graph" transform="scale(1 1) rotate(0) translate(4 542.6)">
<title>StorageDiagram</title>
<polygon fill="white" stroke="transparent" points="-4,4 -4,-542.6 1403.01,-542.6 1403.01,4 -4,4"/>
<!-- 1 -->
<g id="node1" class="node">
<title>1</title>
<polygon fill="#f2f2f2" stroke="black" points="0,-0.5 0,-538.1 1399.01,-538.1 1399.01,-0.5 0,-0.5"/>
<text text-anchor="middle" x="699.51" y="-521.5" font-family="Courier New" font-size="14.00">FiatTokenV2_1 &lt;&lt;Contract&gt;&gt;</text>
<text text-anchor="middle" x="699.51" y="-504.7" font-family="Courier New" font-size="14.00">0xa2327a938febf5fec13bacfb16ae10ecbc4cbdcf</text>
<polyline fill="none" stroke="black" points="0,-496.5 1399.01,-496.5 "/>
<text text-anchor="middle" x="24.8" y="-479.9" font-family="Courier New" font-size="14.00">slot</text>
<polyline fill="none" stroke="black" points="0,-471.7 49.61,-471.7 "/>
<text text-anchor="middle" x="24.8" y="-455.1" font-family="Courier New" font-size="14.00">0</text>
<polyline fill="none" stroke="black" points="0,-446.9 49.61,-446.9 "/>
<text text-anchor="middle" x="24.8" y="-430.3" font-family="Courier New" font-size="14.00">1</text>
<polyline fill="none" stroke="black" points="0,-422.1 49.61,-422.1 "/>
<text text-anchor="middle" x="24.8" y="-405.5" font-family="Courier New" font-size="14.00">2</text>
<polyline fill="none" stroke="black" points="0,-397.3 49.61,-397.3 "/>
<text text-anchor="middle" x="24.8" y="-380.7" font-family="Courier New" font-size="14.00">3</text>
<polyline fill="none" stroke="black" points="0,-372.5 49.61,-372.5 "/>
<text text-anchor="middle" x="24.8" y="-355.9" font-family="Courier New" font-size="14.00">4</text>
<polyline fill="none" stroke="black" points="0,-347.7 49.61,-347.7 "/>
<text text-anchor="middle" x="24.8" y="-331.1" font-family="Courier New" font-size="14.00">5</text>
<polyline fill="none" stroke="black" points="0,-322.9 49.61,-322.9 "/>
<text text-anchor="middle" x="24.8" y="-306.3" font-family="Courier New" font-size="14.00">6</text>
<polyline fill="none" stroke="black" points="0,-298.1 49.61,-298.1 "/>
<text text-anchor="middle" x="24.8" y="-281.5" font-family="Courier New" font-size="14.00">7</text>
<polyline fill="none" stroke="black" points="0,-273.3 49.61,-273.3 "/>
<text text-anchor="middle" x="24.8" y="-256.7" font-family="Courier New" font-size="14.00">8</text>
<polyline fill="none" stroke="black" points="0,-248.5 49.61,-248.5 "/>
<text text-anchor="middle" x="24.8" y="-231.9" font-family="Courier New" font-size="14.00">9</text>
<polyline fill="none" stroke="black" points="0,-223.7 49.61,-223.7 "/>
<text text-anchor="middle" x="24.8" y="-207.1" font-family="Courier New" font-size="14.00">10</text>
<polyline fill="none" stroke="black" points="0,-198.9 49.61,-198.9 "/>
<text text-anchor="middle" x="24.8" y="-182.3" font-family="Courier New" font-size="14.00">11</text>
<polyline fill="none" stroke="black" points="0,-174.1 49.61,-174.1 "/>
<text text-anchor="middle" x="24.8" y="-157.5" font-family="Courier New" font-size="14.00">12</text>
<polyline fill="none" stroke="black" points="0,-149.3 49.61,-149.3 "/>
<text text-anchor="middle" x="24.8" y="-132.7" font-family="Courier New" font-size="14.00">13</text>
<polyline fill="none" stroke="black" points="0,-124.5 49.61,-124.5 "/>
<text text-anchor="middle" x="24.8" y="-107.9" font-family="Courier New" font-size="14.00">14</text>
<polyline fill="none" stroke="black" points="0,-99.7 49.61,-99.7 "/>
<text text-anchor="middle" x="24.8" y="-83.1" font-family="Courier New" font-size="14.00">15</text>
<polyline fill="none" stroke="black" points="0,-74.9 49.61,-74.9 "/>
<text text-anchor="middle" x="24.8" y="-58.3" font-family="Courier New" font-size="14.00">16</text>
<polyline fill="none" stroke="black" points="0,-50.1 49.61,-50.1 "/>
<text text-anchor="middle" x="24.8" y="-33.5" font-family="Courier New" font-size="14.00">17</text>
<polyline fill="none" stroke="black" points="0,-25.3 49.61,-25.3 "/>
<text text-anchor="middle" x="24.8" y="-8.7" font-family="Courier New" font-size="14.00">18</text>
<polyline fill="none" stroke="black" points="49.61,-0.5 49.61,-496.5 "/>
<text text-anchor="middle" x="334.85" y="-479.9" font-family="Courier New" font-size="14.00">value</text>
<polyline fill="none" stroke="black" points="49.61,-471.7 620.1,-471.7 "/>
<text text-anchor="middle" x="334.85" y="-455.1" font-family="Courier New" font-size="14.00">0x000000000000000000000000FCB19E6A322B27C06842A71E8C725399F049AE3A</text>
<polyline fill="none" stroke="black" points="49.61,-446.9 620.1,-446.9 "/>
<text text-anchor="middle" x="334.85" y="-430.3" font-family="Courier New" font-size="14.00">0x000000000000000000000000F0D160DEC1749AFAF5A831668093B1431F7C8527</text>
<polyline fill="none" stroke="black" points="49.61,-422.1 620.1,-422.1 "/>
<text text-anchor="middle" x="334.85" y="-405.5" font-family="Courier New" font-size="14.00">0x0000000000000000000000005DB0115F3B72D19CEA34DD697CF412FF86DC7E1B</text>
<polyline fill="none" stroke="black" points="49.61,-397.3 620.1,-397.3 "/>
<text text-anchor="middle" x="334.85" y="-380.7" font-family="Courier New" font-size="14.00"> </text>
<polyline fill="none" stroke="black" points="49.61,-372.5 620.1,-372.5 "/>
<text text-anchor="middle" x="334.85" y="-355.9" font-family="Courier New" font-size="14.00">0x55534420436F696E000000000000000000000000000000000000000000000010</text>
<polyline fill="none" stroke="black" points="49.61,-347.7 620.1,-347.7 "/>
<text text-anchor="middle" x="334.85" y="-331.1" font-family="Courier New" font-size="14.00">0x5553444300000000000000000000000000000000000000000000000000000008</text>
<polyline fill="none" stroke="black" points="49.61,-322.9 620.1,-322.9 "/>
<text text-anchor="middle" x="334.85" y="-306.3" font-family="Courier New" font-size="14.00">0x0000000000000000000000000000000000000000000000000000000000000006</text>
<polyline fill="none" stroke="black" points="49.61,-298.1 620.1,-298.1 "/>
<text text-anchor="middle" x="334.85" y="-281.5" font-family="Courier New" font-size="14.00">0x5553440000000000000000000000000000000000000000000000000000000006</text>
<polyline fill="none" stroke="black" points="49.61,-273.3 620.1,-273.3 "/>
<text text-anchor="middle" x="334.85" y="-256.7" font-family="Courier New" font-size="14.00">0x000000000000000000000001E982615D461DD5CD06575BBEA87624FDA4E3DE17</text>
<polyline fill="none" stroke="black" points="49.61,-248.5 620.1,-248.5 "/>
<text text-anchor="middle" x="334.85" y="-231.9" font-family="Courier New" font-size="14.00"> </text>
<polyline fill="none" stroke="black" points="49.61,-223.7 620.1,-223.7 "/>
<text text-anchor="middle" x="334.85" y="-207.1" font-family="Courier New" font-size="14.00"> </text>
<polyline fill="none" stroke="black" points="49.61,-198.9 620.1,-198.9 "/>
<text text-anchor="middle" x="334.85" y="-182.3" font-family="Courier New" font-size="14.00">0x00000000000000000000000000000000000000000000000000A1A3BFC373E70E</text>
<polyline fill="none" stroke="black" points="49.61,-174.1 620.1,-174.1 "/>
<text text-anchor="middle" x="334.85" y="-157.5" font-family="Courier New" font-size="14.00"> </text>
<polyline fill="none" stroke="black" points="49.61,-149.3 620.1,-149.3 "/>
<text text-anchor="middle" x="334.85" y="-132.7" font-family="Courier New" font-size="14.00"> </text>
<polyline fill="none" stroke="black" points="49.61,-124.5 620.1,-124.5 "/>
<text text-anchor="middle" x="334.85" y="-107.9" font-family="Courier New" font-size="14.00">0x0000000000000000000000000000000000000000000000000000000000000000</text>
<polyline fill="none" stroke="black" points="49.61,-99.7 620.1,-99.7 "/>
<text text-anchor="middle" x="334.85" y="-83.1" font-family="Courier New" font-size="14.00">0x06C37168A7DB5138DEFC7866392BB87A741F9B3D104DEB5094588CE041CAE335</text>
<polyline fill="none" stroke="black" points="49.61,-74.9 620.1,-74.9 "/>
<text text-anchor="middle" x="334.85" y="-58.3" font-family="Courier New" font-size="14.00"> </text>
<polyline fill="none" stroke="black" points="49.61,-50.1 620.1,-50.1 "/>
<text text-anchor="middle" x="334.85" y="-33.5" font-family="Courier New" font-size="14.00"> </text>
<polyline fill="none" stroke="black" points="49.61,-25.3 620.1,-25.3 "/>
<text text-anchor="middle" x="334.85" y="-8.7" font-family="Courier New" font-size="14.00">0x0000000000000000000000000000000000000000000000000000000000000002</text>
<polyline fill="none" stroke="black" points="620.1,-0.5 620.1,-496.5 "/>
<text text-anchor="middle" x="1009.56" y="-479.9" font-family="Courier New" font-size="14.00">type: &lt;inherited contract&gt;.variable (bytes)</text>
<polyline fill="none" stroke="black" points="620.1,-471.7 1399.01,-471.7 "/>
<text text-anchor="middle" x="789.31" y="-455.1" font-family="Courier New" font-size="14.00">unallocated (12)</text>
<polyline fill="none" stroke="black" points="958.52,-446.9 958.52,-471.7 "/>
<text text-anchor="middle" x="1178.64" y="-455.1" font-family="Courier New" font-size="14.00">address: Ownable._owner (20)</text>
<polyline fill="none" stroke="black" points="620.1,-446.9 1399.01,-446.9 "/>
<text text-anchor="middle" x="718.81" y="-430.3" font-family="Courier New" font-size="14.00">unallocated (11)</text>
<polyline fill="none" stroke="black" points="817.52,-422.1 817.52,-446.9 "/>
<text text-anchor="middle" x="954.53" y="-430.3" font-family="Courier New" font-size="14.00">bool: Pausable.paused (1)</text>
<polyline fill="none" stroke="black" points="1091.55,-422.1 1091.55,-446.9 "/>
<text text-anchor="middle" x="1244.87" y="-430.3" font-family="Courier New" font-size="14.00">address: Pausable.pauser (20)</text>
<polyline fill="none" stroke="black" points="620.1,-422.1 1399.01,-422.1 "/>
<text text-anchor="middle" x="766.31" y="-405.5" font-family="Courier New" font-size="14.00">unallocated (12)</text>
<polyline fill="none" stroke="black" points="912.52,-397.3 912.52,-422.1 "/>
<text text-anchor="middle" x="1155.34" y="-405.5" font-family="Courier New" font-size="14.00">address: Blacklistable.blacklister (20)</text>
<polyline fill="none" stroke="black" points="620.1,-397.3 1399.01,-397.3 "/>
<text text-anchor="middle" x="1009.43" y="-380.7" font-family="Courier New" font-size="14.00">mapping(address=&gt;bool): Blacklistable.blacklisted (32)</text>
<polyline fill="none" stroke="black" points="620.1,-372.5 1399.01,-372.5 "/>
<text text-anchor="middle" x="1009.42" y="-355.9" font-family="Courier New" font-size="14.00">string: FiatTokenV1.name (32)</text>
<polyline fill="none" stroke="black" points="620.1,-347.7 1399.01,-347.7 "/>
<text text-anchor="middle" x="1009.32" y="-331.1" font-family="Courier New" font-size="14.00">string: FiatTokenV1.symbol (32)</text>
<polyline fill="none" stroke="black" points="620.1,-322.9 1399.01,-322.9 "/>
<text text-anchor="middle" x="783.31" y="-306.3" font-family="Courier New" font-size="14.00">unallocated (31)</text>
<polyline fill="none" stroke="black" points="946.52,-298.1 946.52,-322.9 "/>
<text text-anchor="middle" x="1172.74" y="-306.3" font-family="Courier New" font-size="14.00">uint8: FiatTokenV1.decimals (1)</text>
<polyline fill="none" stroke="black" points="620.1,-298.1 1399.01,-298.1 "/>
<text text-anchor="middle" x="1009.22" y="-281.5" font-family="Courier New" font-size="14.00">string: FiatTokenV1.currency (32)</text>
<polyline fill="none" stroke="black" points="620.1,-273.3 1399.01,-273.3 "/>
<text text-anchor="middle" x="695.31" y="-256.7" font-family="Courier New" font-size="14.00">unallocated (11)</text>
<polyline fill="none" stroke="black" points="770.52,-248.5 770.52,-273.3 "/>
<text text-anchor="middle" x="917.14" y="-256.7" font-family="Courier New" font-size="14.00">bool: FiatTokenV1.initialized (1)</text>
<polyline fill="none" stroke="black" points="1063.76,-248.5 1063.76,-273.3 "/>
<text text-anchor="middle" x="1231.39" y="-256.7" font-family="Courier New" font-size="14.00">address: FiatTokenV1.masterMinter (20)</text>
<polyline fill="none" stroke="black" points="620.1,-248.5 1399.01,-248.5 "/>
<text text-anchor="middle" x="1009.53" y="-231.9" font-family="Courier New" font-size="14.00">mapping(address=&gt;uint256): FiatTokenV1.balances (32)</text>
<polyline fill="none" stroke="black" points="620.1,-223.7 1399.01,-223.7 "/>
<text text-anchor="middle" x="1009.44" y="-207.1" font-family="Courier New" font-size="14.00">mapping(address=&gt;mapping(address=&gt;uint256)): FiatTokenV1.allowed (32)</text>
<polyline fill="none" stroke="black" points="620.1,-198.9 1399.01,-198.9 "/>
<text text-anchor="middle" x="1009.22" y="-182.3" font-family="Courier New" font-size="14.00">uint256: FiatTokenV1.totalSupply_ (32)</text>
<polyline fill="none" stroke="black" points="620.1,-174.1 1399.01,-174.1 "/>
<text text-anchor="middle" x="1009.23" y="-157.5" font-family="Courier New" font-size="14.00">mapping(address=&gt;bool): FiatTokenV1.minters (32)</text>
<polyline fill="none" stroke="black" points="620.1,-149.3 1399.01,-149.3 "/>
<text text-anchor="middle" x="1009.53" y="-132.7" font-family="Courier New" font-size="14.00">mapping(address=&gt;uint256): FiatTokenV1.minterAllowed (32)</text>
<polyline fill="none" stroke="black" points="620.1,-124.5 1399.01,-124.5 "/>
<text text-anchor="middle" x="780.81" y="-107.9" font-family="Courier New" font-size="14.00">unallocated (12)</text>
<polyline fill="none" stroke="black" points="941.52,-99.7 941.52,-124.5 "/>
<text text-anchor="middle" x="1169.94" y="-107.9" font-family="Courier New" font-size="14.00">address: Rescuable._rescuer (20)</text>
<polyline fill="none" stroke="black" points="620.1,-99.7 1399.01,-99.7 "/>
<text text-anchor="middle" x="1009.23" y="-83.1" font-family="Courier New" font-size="14.00">bytes32: EIP712Domain.DOMAIN_SEPARATOR (32)</text>
<polyline fill="none" stroke="black" points="620.1,-74.9 1399.01,-74.9 "/>
<text text-anchor="middle" x="1009.15" y="-58.3" font-family="Courier New" font-size="14.00">mapping(address=&gt;mapping(bytes32=&gt;bool)): EIP3009._authorizationStates (32)</text>
<polyline fill="none" stroke="black" points="620.1,-50.1 1399.01,-50.1 "/>
<text text-anchor="middle" x="1009.23" y="-33.5" font-family="Courier New" font-size="14.00">mapping(address=&gt;uint256): EIP2612._permitNonces (32)</text>
<polyline fill="none" stroke="black" points="620.1,-25.3 1399.01,-25.3 "/>
<text text-anchor="middle" x="759.81" y="-8.7" font-family="Courier New" font-size="14.00">unallocated (31)</text>
<polyline fill="none" stroke="black" points="899.52,-0.5 899.52,-25.3 "/>
<text text-anchor="middle" x="1148.95" y="-8.7" font-family="Courier New" font-size="14.00">uint8: FiatTokenV2._initializedVersion (1)</text>
</g>
</g>
</svg>
