<?xml version="1.0" encoding="UTF-8" standalone="no"?>
<!DOCTYPE svg PUBLIC "-//W3C//DTD SVG 1.1//EN"
 "http://www.w3.org/Graphics/SVG/1.1/DTD/svg11.dtd">
<!-- Generated by graphviz version 5.0.0 (20220707.1540)
 -->
<!-- Title: UmlClassDiagram Pages: 1 -->
<svg width="3415pt" height="2582pt"
 viewBox="0.00 0.00 3414.70 2582.00" xmlns="http://www.w3.org/2000/svg" xmlns:xlink="http://www.w3.org/1999/xlink">
<g id="graph0" class="graph" transform="scale(1 1) rotate(0) translate(4 2578)">
<title>UmlClassDiagram</title>
<polygon fill="white" stroke="transparent" points="-4,4 -4,-2578 3410.7,-2578 3410.7,4 -4,4"/>
<!-- 1 -->
<g id="node1" class="node">
<title>1</title>
<polygon fill="#f2f2f2" stroke="black" points="2939.65,-2101.3 2939.65,-2184.5 3031.45,-2184.5 3031.45,-2101.3 2939.65,-2101.3"/>
<text text-anchor="middle" x="2985.55" y="-2167.9" font-family="Times,serif" font-size="14.00">&lt;&lt;Struct&gt;&gt;</text>
<text text-anchor="middle" x="2985.55" y="-2151.1" font-family="Times,serif" font-size="14.00">buffer</text>
<polyline fill="none" stroke="black" points="2939.65,-2142.9 3031.45,-2142.9 "/>
<text text-anchor="start" x="2947.65" y="-2126.3" font-family="Times,serif" font-size="14.00">buf: bytes</text>
<text text-anchor="start" x="2947.65" y="-2109.5" font-family="Times,serif" font-size="14.00">capacity: uint</text>
</g>
<!-- 0 -->
<g id="node2" class="node">
<title>0</title>
<polygon fill="#f2f2f2" stroke="black" points="2807.07,-2221.5 2807.07,-2573.5 3164.03,-2573.5 3164.03,-2221.5 2807.07,-2221.5"/>
<text text-anchor="middle" x="2985.55" y="-2556.9" font-family="Times,serif" font-size="14.00">&lt;&lt;Library&gt;&gt;</text>
<text text-anchor="middle" x="2985.55" y="-2540.1" font-family="Times,serif" font-size="14.00">Buffer</text>
<polyline fill="none" stroke="black" points="2807.07,-2531.9 3164.03,-2531.9 "/>
<text text-anchor="start" x="2815.07" y="-2515.3" font-family="Times,serif" font-size="14.00">Private:</text>
<text text-anchor="start" x="2815.07" y="-2498.5" font-family="Times,serif" font-size="14.00"> &#160;&#160;&#160;resize(buf: buffer, capacity: uint)</text>
<text text-anchor="start" x="2815.07" y="-2481.7" font-family="Times,serif" font-size="14.00"> &#160;&#160;&#160;max(a: uint, b: uint): uint</text>
<text text-anchor="start" x="2815.07" y="-2464.9" font-family="Times,serif" font-size="14.00"> &#160;&#160;&#160;write(buf: buffer, off: uint, data: bytes32, len: uint): buffer</text>
<text text-anchor="start" x="2815.07" y="-2448.1" font-family="Times,serif" font-size="14.00"> &#160;&#160;&#160;writeInt(buf: buffer, off: uint, data: uint, len: uint): buffer</text>
<text text-anchor="start" x="2815.07" y="-2431.3" font-family="Times,serif" font-size="14.00">Internal:</text>
<text text-anchor="start" x="2815.07" y="-2414.5" font-family="Times,serif" font-size="14.00"> &#160;&#160;&#160;init(buf: buffer, capacity: uint): buffer</text>
<text text-anchor="start" x="2815.07" y="-2397.7" font-family="Times,serif" font-size="14.00"> &#160;&#160;&#160;fromBytes(b: bytes): buffer</text>
<text text-anchor="start" x="2815.07" y="-2380.9" font-family="Times,serif" font-size="14.00"> &#160;&#160;&#160;truncate(buf: buffer): buffer</text>
<text text-anchor="start" x="2815.07" y="-2364.1" font-family="Times,serif" font-size="14.00"> &#160;&#160;&#160;write(buf: buffer, off: uint, data: bytes, len: uint): buffer</text>
<text text-anchor="start" x="2815.07" y="-2347.3" font-family="Times,serif" font-size="14.00"> &#160;&#160;&#160;append(buf: buffer, data: bytes, len: uint): buffer</text>
<text text-anchor="start" x="2815.07" y="-2330.5" font-family="Times,serif" font-size="14.00"> &#160;&#160;&#160;append(buf: buffer, data: bytes): buffer</text>
<text text-anchor="start" x="2815.07" y="-2313.7" font-family="Times,serif" font-size="14.00"> &#160;&#160;&#160;writeUint8(buf: buffer, off: uint, data: uint8): buffer</text>
<text text-anchor="start" x="2815.07" y="-2296.9" font-family="Times,serif" font-size="14.00"> &#160;&#160;&#160;appendUint8(buf: buffer, data: uint8): buffer</text>
<text text-anchor="start" x="2815.07" y="-2280.1" font-family="Times,serif" font-size="14.00"> &#160;&#160;&#160;writeBytes20(buf: buffer, off: uint, data: bytes20): buffer</text>
<text text-anchor="start" x="2815.07" y="-2263.3" font-family="Times,serif" font-size="14.00"> &#160;&#160;&#160;appendBytes20(buf: buffer, data: bytes20): buffer</text>
<text text-anchor="start" x="2815.07" y="-2246.5" font-family="Times,serif" font-size="14.00"> &#160;&#160;&#160;appendBytes32(buf: buffer, data: bytes32): buffer</text>
<text text-anchor="start" x="2815.07" y="-2229.7" font-family="Times,serif" font-size="14.00"> &#160;&#160;&#160;appendInt(buf: buffer, data: uint, len: uint): buffer</text>
</g>
<!-- 1&#45;&gt;0 -->
<g id="edge1" class="edge">
<title>1&#45;&gt;0</title>
<path fill="none" stroke="black" d="M2980.42,-2184.77C2980.08,-2192.25 2979.79,-2200.49 2979.55,-2209.25"/>
<polygon fill="black" stroke="black" points="2979.55,-2209.49 2983.41,-2215.58 2979.27,-2221.49 2975.41,-2215.4 2979.55,-2209.49"/>
</g>
<!-- 0&#45;&gt;1 -->
<g id="edge2" class="edge">
<title>0&#45;&gt;1</title>
<path fill="none" stroke="black" stroke-dasharray="5,2" d="M2991.83,-2221.49C2991.64,-2212.1 2991.4,-2203.15 2991.09,-2194.87"/>
<polygon fill="black" stroke="black" points="2994.59,-2194.61 2990.68,-2184.77 2987.59,-2194.9 2994.59,-2194.61"/>
</g>
<!-- 2 -->
<g id="node3" class="node">
<title>2</title>
<polygon fill="#f2f2f2" stroke="black" points="2870.59,-1687.5 2870.59,-2064.3 3248.51,-2064.3 3248.51,-1687.5 2870.59,-1687.5"/>
<text text-anchor="middle" x="3059.55" y="-2047.7" font-family="Times,serif" font-size="14.00">&lt;&lt;Library&gt;&gt;</text>
<text text-anchor="middle" x="3059.55" y="-2030.9" font-family="Times,serif" font-size="14.00">CBOR</text>
<polyline fill="none" stroke="black" points="2870.59,-2022.7 3248.51,-2022.7 "/>
<text text-anchor="start" x="2878.59" y="-2006.1" font-family="Times,serif" font-size="14.00">Private:</text>
<text text-anchor="start" x="2878.59" y="-1989.3" font-family="Times,serif" font-size="14.00"> &#160;&#160;MAJOR_TYPE_INT: uint8</text>
<text text-anchor="start" x="2878.59" y="-1972.5" font-family="Times,serif" font-size="14.00"> &#160;&#160;MAJOR_TYPE_NEGATIVE_INT: uint8</text>
<text text-anchor="start" x="2878.59" y="-1955.7" font-family="Times,serif" font-size="14.00"> &#160;&#160;MAJOR_TYPE_BYTES: uint8</text>
<text text-anchor="start" x="2878.59" y="-1938.9" font-family="Times,serif" font-size="14.00"> &#160;&#160;MAJOR_TYPE_STRING: uint8</text>
<text text-anchor="start" x="2878.59" y="-1922.1" font-family="Times,serif" font-size="14.00"> &#160;&#160;MAJOR_TYPE_ARRAY: uint8</text>
<text text-anchor="start" x="2878.59" y="-1905.3" font-family="Times,serif" font-size="14.00"> &#160;&#160;MAJOR_TYPE_MAP: uint8</text>
<text text-anchor="start" x="2878.59" y="-1888.5" font-family="Times,serif" font-size="14.00"> &#160;&#160;MAJOR_TYPE_CONTENT_FREE: uint8</text>
<polyline fill="none" stroke="black" points="2870.59,-1880.3 3248.51,-1880.3 "/>
<text text-anchor="start" x="2878.59" y="-1863.7" font-family="Times,serif" font-size="14.00">Private:</text>
<text text-anchor="start" x="2878.59" y="-1846.9" font-family="Times,serif" font-size="14.00"> &#160;&#160;&#160;encodeType(buf: Buffer.buffer, major: uint8, value: uint)</text>
<text text-anchor="start" x="2878.59" y="-1830.1" font-family="Times,serif" font-size="14.00"> &#160;&#160;&#160;encodeIndefiniteLengthType(buf: Buffer.buffer, major: uint8)</text>
<text text-anchor="start" x="2878.59" y="-1813.3" font-family="Times,serif" font-size="14.00">Internal:</text>
<text text-anchor="start" x="2878.59" y="-1796.5" font-family="Times,serif" font-size="14.00"> &#160;&#160;&#160;encodeUInt(buf: Buffer.buffer, value: uint)</text>
<text text-anchor="start" x="2878.59" y="-1779.7" font-family="Times,serif" font-size="14.00"> &#160;&#160;&#160;encodeInt(buf: Buffer.buffer, value: int)</text>
<text text-anchor="start" x="2878.59" y="-1762.9" font-family="Times,serif" font-size="14.00"> &#160;&#160;&#160;encodeBytes(buf: Buffer.buffer, value: bytes)</text>
<text text-anchor="start" x="2878.59" y="-1746.1" font-family="Times,serif" font-size="14.00"> &#160;&#160;&#160;encodeString(buf: Buffer.buffer, value: string)</text>
<text text-anchor="start" x="2878.59" y="-1729.3" font-family="Times,serif" font-size="14.00"> &#160;&#160;&#160;startArray(buf: Buffer.buffer)</text>
<text text-anchor="start" x="2878.59" y="-1712.5" font-family="Times,serif" font-size="14.00"> &#160;&#160;&#160;startMap(buf: Buffer.buffer)</text>
<text text-anchor="start" x="2878.59" y="-1695.7" font-family="Times,serif" font-size="14.00"> &#160;&#160;&#160;endSequence(buf: Buffer.buffer)</text>
</g>
<!-- 2&#45;&gt;1 -->
<g id="edge4" class="edge">
<title>2&#45;&gt;1</title>
<path fill="none" stroke="black" stroke-dasharray="5,2" d="M3007.15,-2064.54C3004.52,-2073.96 3002.02,-2082.93 2999.71,-2091.21"/>
<polygon fill="black" stroke="black" points="2996.31,-2090.36 2996.99,-2100.93 3003.05,-2092.24 2996.31,-2090.36"/>
</g>
<!-- 2&#45;&gt;0 -->
<g id="edge3" class="edge">
<title>2&#45;&gt;0</title>
<path fill="none" stroke="black" stroke-dasharray="5,2" d="M3053.77,-2064.49C3050.93,-2104.43 3046.73,-2146.23 3040.55,-2185 3039.17,-2193.64 3037.6,-2202.45 3035.87,-2211.31"/>
<polygon fill="black" stroke="black" points="3032.4,-2210.84 3033.86,-2221.34 3039.26,-2212.22 3032.4,-2210.84"/>
</g>
<!-- 4 -->
<g id="node4" class="node">
<title>4</title>
<polygon fill="#f2f2f2" stroke="black" points="2684.54,-1809.1 2684.54,-1942.7 2852.56,-1942.7 2852.56,-1809.1 2684.54,-1809.1"/>
<text text-anchor="middle" x="2768.55" y="-1926.1" font-family="Times,serif" font-size="14.00">&lt;&lt;Struct&gt;&gt;</text>
<text text-anchor="middle" x="2768.55" y="-1909.3" font-family="Times,serif" font-size="14.00">Request</text>
<polyline fill="none" stroke="black" points="2684.54,-1901.1 2852.56,-1901.1 "/>
<text text-anchor="start" x="2692.54" y="-1884.5" font-family="Times,serif" font-size="14.00">id: bytes32</text>
<text text-anchor="start" x="2692.54" y="-1867.7" font-family="Times,serif" font-size="14.00">callbackAddress: address</text>
<text text-anchor="start" x="2692.54" y="-1850.9" font-family="Times,serif" font-size="14.00">callbackFunctionId: bytes4</text>
<text text-anchor="start" x="2692.54" y="-1834.1" font-family="Times,serif" font-size="14.00">nonce: uint256</text>
<text text-anchor="start" x="2692.54" y="-1817.3" font-family="Times,serif" font-size="14.00">buf: Buffer.buffer</text>
</g>
<!-- 4&#45;&gt;1 -->
<g id="edge6" class="edge">
<title>4&#45;&gt;1</title>
<path fill="none" stroke="black" stroke-dasharray="5,2" d="M2790.67,-1942.74C2806.08,-1981.49 2829.63,-2029.63 2861.55,-2064.8 2880.81,-2086.02 2907.25,-2103.54 2930.76,-2116.48"/>
<polygon fill="black" stroke="black" points="2929.14,-2119.58 2939.61,-2121.21 2932.44,-2113.41 2929.14,-2119.58"/>
</g>
<!-- 4&#45;&gt;0 -->
<g id="edge5" class="edge">
<title>4&#45;&gt;0</title>
<path fill="none" stroke="black" stroke-dasharray="5,2" d="M2796.03,-1942.71C2824.23,-2010.23 2869.4,-2118.37 2908.56,-2212.15"/>
<polygon fill="black" stroke="black" points="2905.37,-2213.59 2912.45,-2221.47 2911.83,-2210.9 2905.37,-2213.59"/>
</g>
<!-- 3 -->
<g id="node5" class="node">
<title>3</title>
<polygon fill="#f2f2f2" stroke="black" points="2730.4,-1403.7 2730.4,-1629.3 3388.7,-1629.3 3388.7,-1403.7 2730.4,-1403.7"/>
<text text-anchor="middle" x="3059.55" y="-1612.7" font-family="Times,serif" font-size="14.00">&lt;&lt;Library&gt;&gt;</text>
<text text-anchor="middle" x="3059.55" y="-1595.9" font-family="Times,serif" font-size="14.00">Chainlink</text>
<polyline fill="none" stroke="black" points="2730.4,-1587.7 3388.7,-1587.7 "/>
<text text-anchor="start" x="2738.4" y="-1571.1" font-family="Times,serif" font-size="14.00">Internal:</text>
<text text-anchor="start" x="2738.4" y="-1554.3" font-family="Times,serif" font-size="14.00"> &#160;&#160;defaultBufferSize: uint256</text>
<polyline fill="none" stroke="black" points="2730.4,-1546.1 3388.7,-1546.1 "/>
<text text-anchor="start" x="2738.4" y="-1529.5" font-family="Times,serif" font-size="14.00">Internal:</text>
<text text-anchor="start" x="2738.4" y="-1512.7" font-family="Times,serif" font-size="14.00"> &#160;&#160;&#160;initialize(self: Request, _id: bytes32, _callbackAddress: address, _callbackFunction: bytes4): Chainlink.Request</text>
<text text-anchor="start" x="2738.4" y="-1495.9" font-family="Times,serif" font-size="14.00"> &#160;&#160;&#160;setBuffer(self: Request, _data: bytes)</text>
<text text-anchor="start" x="2738.4" y="-1479.1" font-family="Times,serif" font-size="14.00"> &#160;&#160;&#160;add(self: Request, _key: string, _value: string)</text>
<text text-anchor="start" x="2738.4" y="-1462.3" font-family="Times,serif" font-size="14.00"> &#160;&#160;&#160;addBytes(self: Request, _key: string, _value: bytes)</text>
<text text-anchor="start" x="2738.4" y="-1445.5" font-family="Times,serif" font-size="14.00"> &#160;&#160;&#160;addInt(self: Request, _key: string, _value: int256)</text>
<text text-anchor="start" x="2738.4" y="-1428.7" font-family="Times,serif" font-size="14.00"> &#160;&#160;&#160;addUint(self: Request, _key: string, _value: uint256)</text>
<text text-anchor="start" x="2738.4" y="-1411.9" font-family="Times,serif" font-size="14.00"> &#160;&#160;&#160;addStringArray(self: Request, _key: string, _values: string[])</text>
</g>
<!-- 4&#45;&gt;3 -->
<g id="edge7" class="edge">
<title>4&#45;&gt;3</title>
<path fill="none" stroke="black" d="M2801.27,-1808.97C2818.51,-1771.11 2841.83,-1723.92 2870.55,-1687 2883.74,-1670.05 2898.84,-1653.56 2914.64,-1637.94"/>
<polygon fill="black" stroke="black" points="2914.87,-1637.71 2916.39,-1630.66 2923.48,-1629.35 2921.96,-1636.4 2914.87,-1637.71"/>
</g>
<!-- 3&#45;&gt;0 -->
<g id="edge11" class="edge">
<title>3&#45;&gt;0</title>
<path fill="none" stroke="black" stroke-dasharray="5,2" d="M3218.77,-1629.43C3234.37,-1646.89 3247.95,-1666.14 3257.55,-1687 3327.76,-1839.53 3314.09,-1906.69 3257.55,-2064.8 3238.29,-2118.66 3206.1,-2170.06 3170.48,-2215.63"/>
<polygon fill="black" stroke="black" points="3167.73,-2213.46 3164.27,-2223.48 3173.22,-2217.81 3167.73,-2213.46"/>
</g>
<!-- 3&#45;&gt;2 -->
<g id="edge8" class="edge">
<title>3&#45;&gt;2</title>
<path fill="none" stroke="black" stroke-dasharray="5,2" d="M3059.55,-1629.6C3059.55,-1644.86 3059.55,-1660.87 3059.55,-1677.1"/>
<polygon fill="black" stroke="black" points="3056.05,-1677.23 3059.55,-1687.23 3063.05,-1677.23 3056.05,-1677.23"/>
</g>
<!-- 3&#45;&gt;4 -->
<g id="edge9" class="edge">
<title>3&#45;&gt;4</title>
<path fill="none" stroke="black" stroke-dasharray="5,2" d="M2905.67,-1629.35C2886.5,-1647.47 2868.18,-1666.91 2852.55,-1687 2826.19,-1720.89 2804.37,-1763.44 2789.39,-1799.48"/>
<polygon fill="black" stroke="black" points="2786.06,-1798.39 2785.54,-1808.97 2792.55,-1801.02 2786.06,-1798.39"/>
</g>
<!-- 3&#45;&gt;3 -->
<g id="edge10" class="edge">
<title>3&#45;&gt;3</title>
<path fill="none" stroke="black" stroke-dasharray="5,2" d="M3388.76,-1478.98C3400.17,-1488.96 3406.7,-1501.47 3406.7,-1516.5 3406.7,-1528.13 3402.8,-1538.24 3395.75,-1546.85"/>
<polygon fill="black" stroke="black" points="3393.23,-1544.42 3388.76,-1554.02 3398.24,-1549.3 3393.23,-1544.42"/>
</g>
<!-- 5 -->
<g id="node6" class="node">
<title>5</title>
<polygon fill="#f2f2f2" stroke="black" points="2000.38,-1474.9 2000.38,-1558.1 2270.72,-1558.1 2270.72,-1474.9 2000.38,-1474.9"/>
<text text-anchor="middle" x="2135.55" y="-1541.5" font-family="Times,serif" font-size="14.00">&lt;&lt;Abstract&gt;&gt;</text>
<text text-anchor="middle" x="2135.55" y="-1524.7" font-family="Times,serif" font-size="14.00">ENSResolver</text>
<polyline fill="none" stroke="black" points="2000.38,-1516.5 2270.72,-1516.5 "/>
<text text-anchor="start" x="2008.38" y="-1499.9" font-family="Times,serif" font-size="14.00">Public:</text>
<text text-anchor="start" x="2008.38" y="-1483.1" font-family="Times,serif" font-size="14.00"> &#160;&#160;&#160;&lt;&lt;abstract&gt;&gt; addr(node: bytes32): address</text>
</g>
<!-- 6 -->
<g id="node7" class="node">
<title>6</title>
<polygon fill="#f2f2f2" stroke="black" points="2288.59,-1382.5 2288.59,-1650.5 2712.51,-1650.5 2712.51,-1382.5 2288.59,-1382.5"/>
<text text-anchor="middle" x="2500.55" y="-1633.9" font-family="Times,serif" font-size="14.00">&lt;&lt;Interface&gt;&gt;</text>
<text text-anchor="middle" x="2500.55" y="-1617.1" font-family="Times,serif" font-size="14.00">ENSInterface</text>
<polyline fill="none" stroke="black" points="2288.59,-1608.9 2712.51,-1608.9 "/>
<text text-anchor="start" x="2296.59" y="-1592.3" font-family="Times,serif" font-size="14.00">External:</text>
<text text-anchor="start" x="2296.59" y="-1575.5" font-family="Times,serif" font-size="14.00"> &#160;&#160;&#160;&#160;setSubnodeOwner(node: bytes32, label: bytes32, owner: address)</text>
<text text-anchor="start" x="2296.59" y="-1558.7" font-family="Times,serif" font-size="14.00"> &#160;&#160;&#160;&#160;setResolver(node: bytes32, resolver: address)</text>
<text text-anchor="start" x="2296.59" y="-1541.9" font-family="Times,serif" font-size="14.00"> &#160;&#160;&#160;&#160;setOwner(node: bytes32, owner: address)</text>
<text text-anchor="start" x="2296.59" y="-1525.1" font-family="Times,serif" font-size="14.00"> &#160;&#160;&#160;&#160;setTTL(node: bytes32, ttl: uint64)</text>
<text text-anchor="start" x="2296.59" y="-1508.3" font-family="Times,serif" font-size="14.00"> &#160;&#160;&#160;&#160;owner(node: bytes32): address</text>
<text text-anchor="start" x="2296.59" y="-1491.5" font-family="Times,serif" font-size="14.00"> &#160;&#160;&#160;&#160;resolver(node: bytes32): address</text>
<text text-anchor="start" x="2296.59" y="-1474.7" font-family="Times,serif" font-size="14.00"> &#160;&#160;&#160;&#160;ttl(node: bytes32): uint64</text>
<text text-anchor="start" x="2296.59" y="-1457.9" font-family="Times,serif" font-size="14.00">Public:</text>
<text text-anchor="start" x="2296.59" y="-1441.1" font-family="Times,serif" font-size="14.00"> &#160;&#160;&#160;&lt;&lt;event&gt;&gt; NewOwner(node: bytes32, label: bytes32, owner: address)</text>
<text text-anchor="start" x="2296.59" y="-1424.3" font-family="Times,serif" font-size="14.00"> &#160;&#160;&#160;&lt;&lt;event&gt;&gt; Transfer(node: bytes32, owner: address)</text>
<text text-anchor="start" x="2296.59" y="-1407.5" font-family="Times,serif" font-size="14.00"> &#160;&#160;&#160;&lt;&lt;event&gt;&gt; NewResolver(node: bytes32, resolver: address)</text>
<text text-anchor="start" x="2296.59" y="-1390.7" font-family="Times,serif" font-size="14.00"> &#160;&#160;&#160;&lt;&lt;event&gt;&gt; NewTTL(node: bytes32, ttl: uint64)</text>
</g>
<!-- 7 -->
<g id="node8" class="node">
<title>7</title>
<polygon fill="#f2f2f2" stroke="black" points="67.65,-1382.5 67.65,-1650.5 519.45,-1650.5 519.45,-1382.5 67.65,-1382.5"/>
<text text-anchor="middle" x="293.55" y="-1633.9" font-family="Times,serif" font-size="14.00">&lt;&lt;Interface&gt;&gt;</text>
<text text-anchor="middle" x="293.55" y="-1617.1" font-family="Times,serif" font-size="14.00">LinkTokenInterface</text>
<polyline fill="none" stroke="black" points="67.65,-1608.9 519.45,-1608.9 "/>
<text text-anchor="start" x="75.65" y="-1592.3" font-family="Times,serif" font-size="14.00">External:</text>
<text text-anchor="start" x="75.65" y="-1575.5" font-family="Times,serif" font-size="14.00"> &#160;&#160;&#160;&#160;allowance(owner: address, spender: address): (success: bool)</text>
<text text-anchor="start" x="75.65" y="-1558.7" font-family="Times,serif" font-size="14.00"> &#160;&#160;&#160;&#160;approve(spender: address, value: uint256): (success: bool)</text>
<text text-anchor="start" x="75.65" y="-1541.9" font-family="Times,serif" font-size="14.00"> &#160;&#160;&#160;&#160;balanceOf(owner: address): (balance: uint256)</text>
<text text-anchor="start" x="75.65" y="-1525.1" font-family="Times,serif" font-size="14.00"> &#160;&#160;&#160;&#160;decimals(): (decimalPlaces: uint8)</text>
<text text-anchor="start" x="75.65" y="-1508.3" font-family="Times,serif" font-size="14.00"> &#160;&#160;&#160;&#160;decreaseApproval(spender: address, addedValue: uint256): (success: bool)</text>
<text text-anchor="start" x="75.65" y="-1491.5" font-family="Times,serif" font-size="14.00"> &#160;&#160;&#160;&#160;increaseApproval(spender: address, subtractedValue: uint256)</text>
<text text-anchor="start" x="75.65" y="-1474.7" font-family="Times,serif" font-size="14.00"> &#160;&#160;&#160;&#160;name(): (tokenName: string)</text>
<text text-anchor="start" x="75.65" y="-1457.9" font-family="Times,serif" font-size="14.00"> &#160;&#160;&#160;&#160;symbol(): (tokenSymbol: string)</text>
<text text-anchor="start" x="75.65" y="-1441.1" font-family="Times,serif" font-size="14.00"> &#160;&#160;&#160;&#160;totalSupply(): (totalTokensIssued: uint256)</text>
<text text-anchor="start" x="75.65" y="-1424.3" font-family="Times,serif" font-size="14.00"> &#160;&#160;&#160;&#160;transfer(to: address, value: uint256): (success: bool)</text>
<text text-anchor="start" x="75.65" y="-1407.5" font-family="Times,serif" font-size="14.00"> &#160;&#160;&#160;&#160;transferAndCall(to: address, value: uint256, data: bytes): (success: bool)</text>
<text text-anchor="start" x="75.65" y="-1390.7" font-family="Times,serif" font-size="14.00"> &#160;&#160;&#160;&#160;transferFrom(from: address, to: address, value: uint256): (success: bool)</text>
</g>
<!-- 8 -->
<g id="node9" class="node">
<title>8</title>
<polygon fill="#f2f2f2" stroke="black" points="575.36,-1466.5 575.36,-1566.5 1521.75,-1566.5 1521.75,-1466.5 575.36,-1466.5"/>
<text text-anchor="middle" x="1048.55" y="-1549.9" font-family="Times,serif" font-size="14.00">&lt;&lt;Interface&gt;&gt;</text>
<text text-anchor="middle" x="1048.55" y="-1533.1" font-family="Times,serif" font-size="14.00">ChainlinkRequestInterface</text>
<polyline fill="none" stroke="black" points="575.36,-1524.9 1521.75,-1524.9 "/>
<text text-anchor="start" x="583.36" y="-1508.3" font-family="Times,serif" font-size="14.00">External:</text>
<text text-anchor="start" x="583.36" y="-1491.5" font-family="Times,serif" font-size="14.00"> &#160;&#160;&#160;&#160;oracleRequest(sender: address, payment: uint256, id: bytes32, callbackAddress: address, callbackFunctionId: bytes4, nonce: uint256, version: uint256, data: bytes)</text>
<text text-anchor="start" x="583.36" y="-1474.7" font-family="Times,serif" font-size="14.00"> &#160;&#160;&#160;&#160;cancelOracleRequest(requestId: bytes32, payment: uint256, callbackFunctionId: bytes4, expiration: uint256)</text>
</g>
<!-- 9 -->
<g id="node10" class="node">
<title>9</title>
<polygon fill="#f2f2f2" stroke="black" points="1539.96,-1474.9 1539.96,-1558.1 1695.14,-1558.1 1695.14,-1474.9 1539.96,-1474.9"/>
<text text-anchor="middle" x="1617.55" y="-1541.5" font-family="Times,serif" font-size="14.00">&lt;&lt;Interface&gt;&gt;</text>
<text text-anchor="middle" x="1617.55" y="-1524.7" font-family="Times,serif" font-size="14.00">PointerInterface</text>
<polyline fill="none" stroke="black" points="1539.96,-1516.5 1695.14,-1516.5 "/>
<text text-anchor="start" x="1547.96" y="-1499.9" font-family="Times,serif" font-size="14.00">External:</text>
<text text-anchor="start" x="1547.96" y="-1483.1" font-family="Times,serif" font-size="14.00"> &#160;&#160;&#160;&#160;getAddress(): address</text>
</g>
<!-- 10 -->
<g id="node11" class="node">
<title>10</title>
<polygon fill="#f2f2f2" stroke="black" points="1713.18,-1449.7 1713.18,-1583.3 1981.93,-1583.3 1981.93,-1449.7 1713.18,-1449.7"/>
<text text-anchor="middle" x="1847.55" y="-1566.7" font-family="Times,serif" font-size="14.00">&lt;&lt;Library&gt;&gt;</text>
<text text-anchor="middle" x="1847.55" y="-1549.9" font-family="Times,serif" font-size="14.00">SafeMath</text>
<polyline fill="none" stroke="black" points="1713.18,-1541.7 1981.93,-1541.7 "/>
<text text-anchor="start" x="1721.18" y="-1525.1" font-family="Times,serif" font-size="14.00">Internal:</text>
<text text-anchor="start" x="1721.18" y="-1508.3" font-family="Times,serif" font-size="14.00"> &#160;&#160;&#160;mul(_a: uint256, _b: uint256): (c: uint256)</text>
<text text-anchor="start" x="1721.18" y="-1491.5" font-family="Times,serif" font-size="14.00"> &#160;&#160;&#160;div(_a: uint256, _b: uint256): uint256</text>
<text text-anchor="start" x="1721.18" y="-1474.7" font-family="Times,serif" font-size="14.00"> &#160;&#160;&#160;sub(_a: uint256, _b: uint256): uint256</text>
<text text-anchor="start" x="1721.18" y="-1457.9" font-family="Times,serif" font-size="14.00"> &#160;&#160;&#160;add(_a: uint256, _b: uint256): (c: uint256)</text>
</g>
<!-- 11 -->
<g id="node12" class="node">
<title>11</title>
<polygon fill="#f2f2f2" stroke="black" points="589.54,-683.1 589.54,-1345.5 1327.56,-1345.5 1327.56,-683.1 589.54,-683.1"/>
<text text-anchor="middle" x="958.55" y="-1328.9" font-family="Times,serif" font-size="14.00">ChainlinkClient</text>
<polyline fill="none" stroke="black" points="589.54,-1320.7 1327.56,-1320.7 "/>
<text text-anchor="start" x="597.54" y="-1304.1" font-family="Times,serif" font-size="14.00">Private:</text>
<text text-anchor="start" x="597.54" y="-1287.3" font-family="Times,serif" font-size="14.00"> &#160;&#160;AMOUNT_OVERRIDE: uint256</text>
<text text-anchor="start" x="597.54" y="-1270.5" font-family="Times,serif" font-size="14.00"> &#160;&#160;SENDER_OVERRIDE: address</text>
<text text-anchor="start" x="597.54" y="-1253.7" font-family="Times,serif" font-size="14.00"> &#160;&#160;ARGS_VERSION: uint256</text>
<text text-anchor="start" x="597.54" y="-1236.9" font-family="Times,serif" font-size="14.00"> &#160;&#160;ENS_TOKEN_SUBNAME: bytes32</text>
<text text-anchor="start" x="597.54" y="-1220.1" font-family="Times,serif" font-size="14.00"> &#160;&#160;ENS_ORACLE_SUBNAME: bytes32</text>
<text text-anchor="start" x="597.54" y="-1203.3" font-family="Times,serif" font-size="14.00"> &#160;&#160;LINK_TOKEN_POINTER: address</text>
<text text-anchor="start" x="597.54" y="-1186.5" font-family="Times,serif" font-size="14.00"> &#160;&#160;ens: ENSInterface</text>
<text text-anchor="start" x="597.54" y="-1169.7" font-family="Times,serif" font-size="14.00"> &#160;&#160;ensNode: bytes32</text>
<text text-anchor="start" x="597.54" y="-1152.9" font-family="Times,serif" font-size="14.00"> &#160;&#160;link: LinkTokenInterface</text>
<text text-anchor="start" x="597.54" y="-1136.1" font-family="Times,serif" font-size="14.00"> &#160;&#160;oracle: ChainlinkRequestInterface</text>
<text text-anchor="start" x="597.54" y="-1119.3" font-family="Times,serif" font-size="14.00"> &#160;&#160;requests: uint256</text>
<text text-anchor="start" x="597.54" y="-1102.5" font-family="Times,serif" font-size="14.00"> &#160;&#160;pendingRequests: mapping(bytes32=&gt;address)</text>
<text text-anchor="start" x="597.54" y="-1085.7" font-family="Times,serif" font-size="14.00">Internal:</text>
<text text-anchor="start" x="597.54" y="-1068.9" font-family="Times,serif" font-size="14.00"> &#160;&#160;LINK: uint256</text>
<polyline fill="none" stroke="black" points="589.54,-1060.7 1327.56,-1060.7 "/>
<text text-anchor="start" x="597.54" y="-1044.1" font-family="Times,serif" font-size="14.00">Private:</text>
<text text-anchor="start" x="597.54" y="-1027.3" font-family="Times,serif" font-size="14.00"> &#160;&#160;&#160;encodeRequest(_req: Chainlink.Request): bytes</text>
<text text-anchor="start" x="597.54" y="-1010.5" font-family="Times,serif" font-size="14.00">Internal:</text>
<text text-anchor="start" x="597.54" y="-993.7" font-family="Times,serif" font-size="14.00"> &#160;&#160;&#160;buildChainlinkRequest(_specId: bytes32, _callbackAddress: address, _callbackFunctionSignature: bytes4): Chainlink.Request</text>
<text text-anchor="start" x="597.54" y="-976.9" font-family="Times,serif" font-size="14.00"> &#160;&#160;&#160;sendChainlinkRequest(_req: Chainlink.Request, _payment: uint256): bytes32</text>
<text text-anchor="start" x="597.54" y="-960.1" font-family="Times,serif" font-size="14.00"> &#160;&#160;&#160;sendChainlinkRequestTo(_oracle: address, _req: Chainlink.Request, _payment: uint256): (requestId: bytes32)</text>
<text text-anchor="start" x="597.54" y="-943.3" font-family="Times,serif" font-size="14.00"> &#160;&#160;&#160;cancelChainlinkRequest(_requestId: bytes32, _payment: uint256, _callbackFunc: bytes4, _expiration: uint256)</text>
<text text-anchor="start" x="597.54" y="-926.5" font-family="Times,serif" font-size="14.00"> &#160;&#160;&#160;setChainlinkOracle(_oracle: address)</text>
<text text-anchor="start" x="597.54" y="-909.7" font-family="Times,serif" font-size="14.00"> &#160;&#160;&#160;setChainlinkToken(_link: address)</text>
<text text-anchor="start" x="597.54" y="-892.9" font-family="Times,serif" font-size="14.00"> &#160;&#160;&#160;setPublicChainlinkToken()</text>
<text text-anchor="start" x="597.54" y="-876.1" font-family="Times,serif" font-size="14.00"> &#160;&#160;&#160;chainlinkTokenAddress(): address</text>
<text text-anchor="start" x="597.54" y="-859.3" font-family="Times,serif" font-size="14.00"> &#160;&#160;&#160;chainlinkOracleAddress(): address</text>
<text text-anchor="start" x="597.54" y="-842.5" font-family="Times,serif" font-size="14.00"> &#160;&#160;&#160;addChainlinkExternalRequest(_oracle: address, _requestId: bytes32)</text>
<text text-anchor="start" x="597.54" y="-825.7" font-family="Times,serif" font-size="14.00"> &#160;&#160;&#160;useChainlinkWithENS(_ens: address, _node: bytes32)</text>
<text text-anchor="start" x="597.54" y="-808.9" font-family="Times,serif" font-size="14.00"> &#160;&#160;&#160;updateChainlinkOracleWithENS()</text>
<text text-anchor="start" x="597.54" y="-792.1" font-family="Times,serif" font-size="14.00"> &#160;&#160;&#160;validateChainlinkCallback(_requestId: bytes32)</text>
<text text-anchor="start" x="597.54" y="-775.3" font-family="Times,serif" font-size="14.00">Public:</text>
<text text-anchor="start" x="597.54" y="-758.5" font-family="Times,serif" font-size="14.00"> &#160;&#160;&#160;&lt;&lt;event&gt;&gt; ChainlinkRequested(id: bytes32)</text>
<text text-anchor="start" x="597.54" y="-741.7" font-family="Times,serif" font-size="14.00"> &#160;&#160;&#160;&lt;&lt;event&gt;&gt; ChainlinkFulfilled(id: bytes32)</text>
<text text-anchor="start" x="597.54" y="-724.9" font-family="Times,serif" font-size="14.00"> &#160;&#160;&#160;&lt;&lt;event&gt;&gt; ChainlinkCancelled(id: bytes32)</text>
<text text-anchor="start" x="597.54" y="-708.1" font-family="Times,serif" font-size="14.00"> &#160;&#160;&#160;&lt;&lt;modifier&gt;&gt; recordChainlinkFulfillment(_requestId: bytes32)</text>
<text text-anchor="start" x="597.54" y="-691.3" font-family="Times,serif" font-size="14.00"> &#160;&#160;&#160;&lt;&lt;modifier&gt;&gt; notPendingRequest(_requestId: bytes32)</text>
</g>
<!-- 11&#45;&gt;4 -->
<g id="edge17" class="edge">
<title>11&#45;&gt;4</title>
<path fill="none" stroke="black" stroke-dasharray="5,2" d="M589.4,-1336.91C580.9,-1351.57 573.23,-1366.61 566.55,-1382 542.76,-1436.84 526.48,-1606.64 566.55,-1651 710.02,-1809.79 2271.2,-1861.77 2674.12,-1872.59"/>
<polygon fill="black" stroke="black" points="2674.18,-1876.09 2684.27,-1872.86 2674.37,-1869.09 2674.18,-1876.09"/>
</g>
<!-- 11&#45;&gt;3 -->
<g id="edge12" class="edge">
<title>11&#45;&gt;3</title>
<path fill="none" stroke="black" stroke-dasharray="5,2" d="M1327.78,-1340.41C1332.35,-1342.35 1336.94,-1344.22 1341.55,-1346 1484.6,-1401.35 2571.26,-1351.36 2721.55,-1382 2745.29,-1386.84 2769.52,-1393.23 2793.54,-1400.6"/>
<polygon fill="black" stroke="black" points="2792.51,-1403.95 2803.1,-1403.59 2794.6,-1397.26 2792.51,-1403.95"/>
</g>
<!-- 11&#45;&gt;5 -->
<g id="edge19" class="edge">
<title>11&#45;&gt;5</title>
<path fill="none" stroke="black" stroke-dasharray="5,2" d="M1327.86,-1340.22C1332.4,-1342.22 1336.97,-1344.15 1341.55,-1346 1475.48,-1400.09 1857.5,-1325.78 1990.55,-1382 2033.37,-1400.09 2071.58,-1436.58 2098.01,-1466.85"/>
<polygon fill="black" stroke="black" points="2095.65,-1469.47 2104.81,-1474.79 2100.97,-1464.92 2095.65,-1469.47"/>
</g>
<!-- 11&#45;&gt;6 -->
<g id="edge14" class="edge">
<title>11&#45;&gt;6</title>
<path fill="none" stroke="black" d="M1327.81,-1340.33C1332.37,-1342.3 1336.95,-1344.19 1341.55,-1346 1532.69,-1421.31 2063.33,-1325.17 2278.86,-1382.11"/>
<polygon fill="black" stroke="black" points="2277.99,-1385.51 2288.57,-1384.85 2279.89,-1378.77 2277.99,-1385.51"/>
</g>
<!-- 11&#45;&gt;7 -->
<g id="edge15" class="edge">
<title>11&#45;&gt;7</title>
<path fill="none" stroke="black" d="M589.1,-1293.19C551.05,-1321.82 513.65,-1349.95 478.93,-1376.06"/>
<polygon fill="black" stroke="black" points="476.52,-1373.5 470.63,-1382.31 480.72,-1379.09 476.52,-1373.5"/>
</g>
<!-- 11&#45;&gt;8 -->
<g id="edge16" class="edge">
<title>11&#45;&gt;8</title>
<path fill="none" stroke="black" d="M1018.02,-1345.81C1025.58,-1387.81 1032.52,-1426.42 1037.88,-1456.17"/>
<polygon fill="black" stroke="black" points="1034.49,-1457.09 1039.7,-1466.31 1041.37,-1455.85 1034.49,-1457.09"/>
</g>
<!-- 11&#45;&gt;9 -->
<g id="edge18" class="edge">
<title>11&#45;&gt;9</title>
<path fill="none" stroke="black" stroke-dasharray="5,2" d="M1327.65,-1339.05C1332.27,-1341.44 1336.9,-1343.75 1341.55,-1346 1418.54,-1383.21 1459.53,-1334.37 1530.55,-1382 1560.72,-1402.23 1582.82,-1436.82 1597.2,-1465.73"/>
<polygon fill="black" stroke="black" points="1594.12,-1467.38 1601.6,-1474.88 1600.43,-1464.35 1594.12,-1467.38"/>
</g>
<!-- 11&#45;&gt;10 -->
<g id="edge13" class="edge">
<title>11&#45;&gt;10</title>
<path fill="none" stroke="black" stroke-dasharray="5,2" d="M1327.67,-1339.79C1332.28,-1341.94 1336.91,-1344.01 1341.55,-1346 1490.53,-1409.96 1556.85,-1315.16 1704.55,-1382 1735.26,-1395.9 1763.64,-1419.08 1786.9,-1442.26"/>
<polygon fill="black" stroke="black" points="1784.44,-1444.76 1793.95,-1449.44 1789.44,-1439.85 1784.44,-1444.76"/>
</g>
<!-- 12 -->
<g id="node13" class="node">
<title>12</title>
<polygon fill="#f2f2f2" stroke="black" points="1383.92,-972.7 1383.92,-1055.9 1607.18,-1055.9 1607.18,-972.7 1383.92,-972.7"/>
<text text-anchor="middle" x="1495.55" y="-1039.3" font-family="Times,serif" font-size="14.00">&lt;&lt;Library&gt;&gt;</text>
<text text-anchor="middle" x="1495.55" y="-1022.5" font-family="Times,serif" font-size="14.00">SignedSafeMath</text>
<polyline fill="none" stroke="black" points="1383.92,-1014.3 1607.18,-1014.3 "/>
<text text-anchor="start" x="1391.92" y="-997.7" font-family="Times,serif" font-size="14.00">Internal:</text>
<text text-anchor="start" x="1391.92" y="-980.9" font-family="Times,serif" font-size="14.00"> &#160;&#160;&#160;add(_a: int256, _b: int256): int256</text>
</g>
<!-- 13 -->
<g id="node14" class="node">
<title>13</title>
<polygon fill="#f2f2f2" stroke="black" points="1625.09,-901.5 1625.09,-1127.1 2110.02,-1127.1 2110.02,-901.5 1625.09,-901.5"/>
<text text-anchor="middle" x="1867.55" y="-1110.5" font-family="Times,serif" font-size="14.00">Ownable</text>
<polyline fill="none" stroke="black" points="1625.09,-1102.3 2110.02,-1102.3 "/>
<text text-anchor="start" x="1633.09" y="-1085.7" font-family="Times,serif" font-size="14.00">Public:</text>
<text text-anchor="start" x="1633.09" y="-1068.9" font-family="Times,serif" font-size="14.00"> &#160;&#160;owner: address</text>
<polyline fill="none" stroke="black" points="1625.09,-1060.7 2110.02,-1060.7 "/>
<text text-anchor="start" x="1633.09" y="-1044.1" font-family="Times,serif" font-size="14.00">Internal:</text>
<text text-anchor="start" x="1633.09" y="-1027.3" font-family="Times,serif" font-size="14.00"> &#160;&#160;&#160;_transferOwnership(_newOwner: address)</text>
<text text-anchor="start" x="1633.09" y="-1010.5" font-family="Times,serif" font-size="14.00">Public:</text>
<text text-anchor="start" x="1633.09" y="-993.7" font-family="Times,serif" font-size="14.00"> &#160;&#160;&#160;&lt;&lt;event&gt;&gt; OwnershipRenounced(previousOwner: address)</text>
<text text-anchor="start" x="1633.09" y="-976.9" font-family="Times,serif" font-size="14.00"> &#160;&#160;&#160;&lt;&lt;event&gt;&gt; OwnershipTransferred(previousOwner: address, newOwner: address)</text>
<text text-anchor="start" x="1633.09" y="-960.1" font-family="Times,serif" font-size="14.00"> &#160;&#160;&#160;&lt;&lt;modifier&gt;&gt; onlyOwner()</text>
<text text-anchor="start" x="1633.09" y="-943.3" font-family="Times,serif" font-size="14.00"> &#160;&#160;&#160;constructor()</text>
<text text-anchor="start" x="1633.09" y="-926.5" font-family="Times,serif" font-size="14.00"> &#160;&#160;&#160;renounceOwnership()</text>
<text text-anchor="start" x="1633.09" y="-909.7" font-family="Times,serif" font-size="14.00"> &#160;&#160;&#160;transferOwnership(_newOwner: address)</text>
</g>
<!-- 15 -->
<g id="node15" class="node">
<title>15</title>
<polygon fill="#f2f2f2" stroke="black" points="28.69,-964.3 28.69,-1064.3 208.41,-1064.3 208.41,-964.3 28.69,-964.3"/>
<text text-anchor="middle" x="118.55" y="-1047.7" font-family="Times,serif" font-size="14.00">&lt;&lt;Struct&gt;&gt;</text>
<text text-anchor="middle" x="118.55" y="-1030.9" font-family="Times,serif" font-size="14.00">Answer</text>
<polyline fill="none" stroke="black" points="28.69,-1022.7 208.41,-1022.7 "/>
<text text-anchor="start" x="36.69" y="-1006.1" font-family="Times,serif" font-size="14.00">minimumResponses: uint128</text>
<text text-anchor="start" x="36.69" y="-989.3" font-family="Times,serif" font-size="14.00">maxResponses: uint128</text>
<text text-anchor="start" x="36.69" y="-972.5" font-family="Times,serif" font-size="14.00">responses: int256[]</text>
</g>
<!-- 14 -->
<g id="node16" class="node">
<title>14</title>
<polygon fill="#f2f2f2" stroke="black" points="589.52,-0.5 589.52,-646.1 1327.58,-646.1 1327.58,-0.5 589.52,-0.5"/>
<text text-anchor="middle" x="958.55" y="-629.5" font-family="Times,serif" font-size="14.00">Aggregator</text>
<polyline fill="none" stroke="black" points="589.52,-621.3 1327.58,-621.3 "/>
<text text-anchor="start" x="597.52" y="-604.7" font-family="Times,serif" font-size="14.00">Private:</text>
<text text-anchor="start" x="597.52" y="-587.9" font-family="Times,serif" font-size="14.00"> &#160;&#160;answerCounter: uint256</text>
<text text-anchor="start" x="597.52" y="-571.1" font-family="Times,serif" font-size="14.00"> &#160;&#160;requestAnswers: mapping(bytes32=&gt;uint256)</text>
<text text-anchor="start" x="597.52" y="-554.3" font-family="Times,serif" font-size="14.00"> &#160;&#160;answers: mapping(uint256=&gt;Answer)</text>
<text text-anchor="start" x="597.52" y="-537.5" font-family="Times,serif" font-size="14.00"> &#160;&#160;MAX_ORACLE_COUNT: uint256</text>
<text text-anchor="start" x="597.52" y="-520.7" font-family="Times,serif" font-size="14.00">Public:</text>
<text text-anchor="start" x="597.52" y="-503.9" font-family="Times,serif" font-size="14.00"> &#160;&#160;currentAnswer: int256</text>
<text text-anchor="start" x="597.52" y="-487.1" font-family="Times,serif" font-size="14.00"> &#160;&#160;latestCompletedAnswer: uint256</text>
<text text-anchor="start" x="597.52" y="-470.3" font-family="Times,serif" font-size="14.00"> &#160;&#160;updatedHeight: uint256</text>
<text text-anchor="start" x="597.52" y="-453.5" font-family="Times,serif" font-size="14.00"> &#160;&#160;paymentAmount: uint128</text>
<text text-anchor="start" x="597.52" y="-436.7" font-family="Times,serif" font-size="14.00"> &#160;&#160;minimumResponses: uint128</text>
<text text-anchor="start" x="597.52" y="-419.9" font-family="Times,serif" font-size="14.00"> &#160;&#160;jobIds: bytes32[]</text>
<text text-anchor="start" x="597.52" y="-403.1" font-family="Times,serif" font-size="14.00"> &#160;&#160;oracles: address[]</text>
<text text-anchor="start" x="597.52" y="-386.3" font-family="Times,serif" font-size="14.00"> &#160;&#160;authorizedRequesters: mapping(address=&gt;bool)</text>
<polyline fill="none" stroke="black" points="589.52,-378.1 1327.58,-378.1 "/>
<text text-anchor="start" x="597.52" y="-361.5" font-family="Times,serif" font-size="14.00">Private:</text>
<text text-anchor="start" x="597.52" y="-344.7" font-family="Times,serif" font-size="14.00"> &#160;&#160;&#160;updateLatestAnswer(_answerId: uint256)</text>
<text text-anchor="start" x="597.52" y="-327.9" font-family="Times,serif" font-size="14.00"> &#160;&#160;&#160;quickselect(_a: int256[], _k: uint256): int256</text>
<text text-anchor="start" x="597.52" y="-311.1" font-family="Times,serif" font-size="14.00"> &#160;&#160;&#160;swap(_a: int256[], _b: int256[]): (int256[], int256[])</text>
<text text-anchor="start" x="597.52" y="-294.3" font-family="Times,serif" font-size="14.00"> &#160;&#160;&#160;deleteAnswer(_answerId: uint256)</text>
<text text-anchor="start" x="597.52" y="-277.5" font-family="Times,serif" font-size="14.00">External:</text>
<text text-anchor="start" x="597.52" y="-260.7" font-family="Times,serif" font-size="14.00"> &#160;&#160;&#160;requestRateUpdate()</text>
<text text-anchor="start" x="597.52" y="-243.9" font-family="Times,serif" font-size="14.00"> &#160;&#160;&#160;chainlinkCallback(_clRequestId: bytes32, _response: int256)</text>
<text text-anchor="start" x="597.52" y="-227.1" font-family="Times,serif" font-size="14.00"> &#160;&#160;&#160;setAuthorization(_requester: address, _allowed: bool)</text>
<text text-anchor="start" x="597.52" y="-210.3" font-family="Times,serif" font-size="14.00"> &#160;&#160;&#160;cancelRequest(_requestId: bytes32, _payment: uint256, _expiration: uint256)</text>
<text text-anchor="start" x="597.52" y="-193.5" font-family="Times,serif" font-size="14.00"> &#160;&#160;&#160;destroy()</text>
<text text-anchor="start" x="597.52" y="-176.7" font-family="Times,serif" font-size="14.00">Public:</text>
<text text-anchor="start" x="597.52" y="-159.9" font-family="Times,serif" font-size="14.00"> &#160;&#160;&#160;&lt;&lt;event&gt;&gt; ResponseReceived(response: int256, answerId: uint256, sender: address)</text>
<text text-anchor="start" x="597.52" y="-143.1" font-family="Times,serif" font-size="14.00"> &#160;&#160;&#160;&lt;&lt;event&gt;&gt; AnswerUpdated(current: int256, answerId: uint256)</text>
<text text-anchor="start" x="597.52" y="-126.3" font-family="Times,serif" font-size="14.00"> &#160;&#160;&#160;&lt;&lt;modifier&gt;&gt; ensureMinResponsesReceived(_answerId: uint256)</text>
<text text-anchor="start" x="597.52" y="-109.5" font-family="Times,serif" font-size="14.00"> &#160;&#160;&#160;&lt;&lt;modifier&gt;&gt; ensureAllResponsesReceived(_answerId: uint256)</text>
<text text-anchor="start" x="597.52" y="-92.7" font-family="Times,serif" font-size="14.00"> &#160;&#160;&#160;&lt;&lt;modifier&gt;&gt; ensureOnlyLatestAnswer(_answerId: uint256)</text>
<text text-anchor="start" x="597.52" y="-75.9" font-family="Times,serif" font-size="14.00"> &#160;&#160;&#160;&lt;&lt;modifier&gt;&gt; validateAnswerRequirements(_minimumResponses: uint256, _oracles: address[], _jobIds: bytes32[])</text>
<text text-anchor="start" x="597.52" y="-59.1" font-family="Times,serif" font-size="14.00"> &#160;&#160;&#160;&lt;&lt;modifier&gt;&gt; ensureAuthorizedRequester()</text>
<text text-anchor="start" x="597.52" y="-42.3" font-family="Times,serif" font-size="14.00"> &#160;&#160;&#160;constructor(_link: address, _paymentAmount: uint128, _minimumResponses: uint128, _oracles: address[], _jobIds: bytes32[])</text>
<text text-anchor="start" x="597.52" y="-25.5" font-family="Times,serif" font-size="14.00"> &#160;&#160;&#160;updateRequestDetails(_paymentAmount: uint128, _minimumResponses: uint128, _oracles: address[], _jobIds: bytes32[])</text>
<text text-anchor="start" x="597.52" y="-8.7" font-family="Times,serif" font-size="14.00"> &#160;&#160;&#160;transferLINK(_recipient: address, _amount: uint256)</text>
</g>
<!-- 15&#45;&gt;14 -->
<g id="edge20" class="edge">
<title>15&#45;&gt;14</title>
<path fill="none" stroke="black" d="M127.87,-964.28C138.27,-894.1 161.03,-764.44 231.55,-682.6 322.95,-576.53 453.02,-499.03 577.93,-443.82"/>
<polygon fill="black" stroke="black" points="578.23,-443.69 582.13,-437.62 589.23,-438.88 585.33,-444.95 578.23,-443.69"/>
</g>
<!-- 14&#45;&gt;4 -->
<g id="edge26" class="edge">
<title>14&#45;&gt;4</title>
<path fill="none" stroke="black" stroke-dasharray="5,2" d="M589.27,-462.13C489.4,-516.39 390.97,-588.7 325.55,-682.6 154.77,-927.7 422.21,-1128.4 217.55,-1346 167.91,-1398.78 103.78,-1325.39 58.55,-1382 -16.07,-1475.41 -22.43,-1563.05 58.55,-1651 239.35,-1847.35 2215.58,-1871.52 2673.99,-1874.49"/>
<polygon fill="black" stroke="black" points="2674.18,-1877.99 2684.21,-1874.55 2674.23,-1870.99 2674.18,-1877.99"/>
</g>
<!-- 14&#45;&gt;3 -->
<g id="edge25" class="edge">
<title>14&#45;&gt;3</title>
<path fill="none" stroke="black" stroke-dasharray="5,2" d="M1317.62,-646.35C1324.5,-658.21 1330.84,-670.3 1336.55,-682.6 1367.64,-749.57 1321.55,-1294.6 1374.55,-1346 1428.29,-1398.12 2648.2,-1367.02 2721.55,-1382 2745.29,-1386.85 2769.51,-1393.25 2793.54,-1400.62"/>
<polygon fill="black" stroke="black" points="2792.51,-1403.96 2803.1,-1403.6 2794.6,-1397.28 2792.51,-1403.96"/>
</g>
<!-- 14&#45;&gt;7 -->
<g id="edge27" class="edge">
<title>14&#45;&gt;7</title>
<path fill="none" stroke="black" stroke-dasharray="5,2" d="M605.65,-646.22C596.84,-658.2 588.44,-670.34 580.55,-682.6 439.34,-901.94 358.9,-1198.74 320.93,-1372.41"/>
<polygon fill="black" stroke="black" points="317.46,-1371.87 318.77,-1382.38 324.31,-1373.35 317.46,-1371.87"/>
</g>
<!-- 14&#45;&gt;11 -->
<g id="edge21" class="edge">
<title>14&#45;&gt;11</title>
<path fill="none" stroke="black" d="M958.55,-646.11C958.55,-648.31 958.55,-650.52 958.55,-652.72"/>
<polygon fill="none" stroke="black" points="948.05,-652.96 958.55,-682.96 969.05,-652.96 948.05,-652.96"/>
</g>
<!-- 14&#45;&gt;12 -->
<g id="edge23" class="edge">
<title>14&#45;&gt;12</title>
<path fill="none" stroke="black" stroke-dasharray="5,2" d="M1327.61,-628.11C1342.53,-645.86 1356.62,-664.06 1369.55,-682.6 1431.39,-771.28 1467.75,-894.3 1484.44,-962.55"/>
<polygon fill="black" stroke="black" points="1481.12,-963.71 1486.85,-972.61 1487.92,-962.07 1481.12,-963.71"/>
</g>
<!-- 14&#45;&gt;13 -->
<g id="edge22" class="edge">
<title>14&#45;&gt;13</title>
<path fill="none" stroke="black" d="M1327.6,-489.9C1426.96,-543.63 1530.62,-608.72 1616.55,-682.6 1680.85,-737.87 1739.05,-812.18 1783.19,-876.35"/>
<polygon fill="none" stroke="black" points="1774.53,-882.29 1800,-901.3 1791.94,-870.56 1774.53,-882.29"/>
</g>
<!-- 14&#45;&gt;15 -->
<g id="edge24" class="edge">
<title>14&#45;&gt;15</title>
<path fill="none" stroke="black" d="M589.05,-431.84C454.63,-487.63 311.77,-568.61 213.55,-682.6 146.34,-760.61 122.51,-882.05 116.79,-954.03"/>
<polygon fill="black" stroke="black" points="113.28,-954.06 116.07,-964.28 120.26,-954.55 113.28,-954.06"/>
</g>
</g>
</svg>
