<?xml version="1.0" encoding="UTF-8" standalone="no"?>
<!DOCTYPE svg PUBLIC "-//W3C//DTD SVG 1.1//EN"
 "http://www.w3.org/Graphics/SVG/1.1/DTD/svg11.dtd">
<!-- Generated by graphviz version 5.0.0 (20220707.1540)
 -->
<!-- Title: UmlClassDiagram Pages: 1 -->
<svg width="3277pt" height="1146pt"
 viewBox="0.00 0.00 3276.68 1146.00" xmlns="http://www.w3.org/2000/svg" xmlns:xlink="http://www.w3.org/1999/xlink">
<g id="graph0" class="graph" transform="scale(1 1) rotate(0) translate(4 1142)">
<title>UmlClassDiagram</title>
<polygon fill="white" stroke="transparent" points="-4,4 -4,-1142 3272.68,-1142 3272.68,4 -4,4"/>
<!-- 59 -->
<g id="node1" class="node">
<title>59</title>
<polygon fill="#f2f2f2" stroke="black" points="2331.81,-816.9 2331.81,-900.1 2686.9,-900.1 2686.9,-816.9 2331.81,-816.9"/>
<text text-anchor="middle" x="2509.36" y="-883.5" font-family="Times,serif" font-size="14.00">&lt;&lt;Abstract&gt;&gt;</text>
<text text-anchor="middle" x="2509.36" y="-866.7" font-family="Times,serif" font-size="14.00">BlockTimestamp</text>
<text text-anchor="middle" x="2509.36" y="-849.9" font-family="Times,serif" font-size="14.00">@uniswap/v3&#45;periphery/contracts/base/BlockTimestamp.sol</text>
<polyline fill="none" stroke="black" points="2331.81,-841.7 2686.9,-841.7 "/>
<text text-anchor="middle" x="2509.36" y="-825.1" font-family="Times,serif" font-size="14.00"> </text>
</g>
<!-- 74 -->
<g id="node2" class="node">
<title>74</title>
<polygon fill="#f2f2f2" stroke="black" points="2390.95,-421.3 2390.95,-521.3 2727.77,-521.3 2727.77,-421.3 2390.95,-421.3"/>
<text text-anchor="middle" x="2559.36" y="-504.7" font-family="Times,serif" font-size="14.00">&lt;&lt;Abstract&gt;&gt;</text>
<text text-anchor="middle" x="2559.36" y="-487.9" font-family="Times,serif" font-size="14.00">Multicall</text>
<text text-anchor="middle" x="2559.36" y="-471.1" font-family="Times,serif" font-size="14.00">@uniswap/v3&#45;periphery/contracts/base/Multicall.sol</text>
<polyline fill="none" stroke="black" points="2390.95,-462.9 2727.77,-462.9 "/>
<text text-anchor="start" x="2398.95" y="-446.3" font-family="Times,serif" font-size="14.00">Public:</text>
<text text-anchor="start" x="2398.95" y="-429.5" font-family="Times,serif" font-size="14.00"> &#160;&#160;&#160;&lt;&lt;payable&gt;&gt; multicall(data: bytes[]): (results: bytes[])</text>
</g>
<!-- 2 -->
<g id="node3" class="node">
<title>2</title>
<polygon fill="#f2f2f2" stroke="black" points="1806.49,-979.1 1806.49,-1137.5 2208.22,-1137.5 2208.22,-979.1 1806.49,-979.1"/>
<text text-anchor="middle" x="2007.36" y="-1120.9" font-family="Times,serif" font-size="14.00">&lt;&lt;Abstract&gt;&gt;</text>
<text text-anchor="middle" x="2007.36" y="-1104.1" font-family="Times,serif" font-size="14.00">PeripheryImmutableState</text>
<text text-anchor="middle" x="2007.36" y="-1087.3" font-family="Times,serif" font-size="14.00">@uniswap/v3&#45;periphery/contracts/base/PeripheryImmutableState.sol</text>
<polyline fill="none" stroke="black" points="1806.49,-1079.1 2208.22,-1079.1 "/>
<text text-anchor="start" x="1814.49" y="-1062.5" font-family="Times,serif" font-size="14.00">Public:</text>
<text text-anchor="start" x="1814.49" y="-1045.7" font-family="Times,serif" font-size="14.00"> &#160;&#160;factory: address</text>
<text text-anchor="start" x="1814.49" y="-1028.9" font-family="Times,serif" font-size="14.00"> &#160;&#160;WETH9: address</text>
<polyline fill="none" stroke="black" points="1806.49,-1020.7 2208.22,-1020.7 "/>
<text text-anchor="start" x="1814.49" y="-1004.1" font-family="Times,serif" font-size="14.00">Public:</text>
<text text-anchor="start" x="1814.49" y="-987.3" font-family="Times,serif" font-size="14.00"> &#160;&#160;&#160;constructor(_factory: address, _WETH9: address)</text>
</g>
<!-- 36 -->
<g id="node4" class="node">
<title>36</title>
<polygon fill="#f2f2f2" stroke="black" points="1564.52,-774.9 1564.52,-942.1 2094.2,-942.1 2094.2,-774.9 1564.52,-774.9"/>
<text text-anchor="middle" x="1829.36" y="-925.5" font-family="Times,serif" font-size="14.00">&lt;&lt;Abstract&gt;&gt;</text>
<text text-anchor="middle" x="1829.36" y="-908.7" font-family="Times,serif" font-size="14.00">PeripheryPayments</text>
<text text-anchor="middle" x="1829.36" y="-891.9" font-family="Times,serif" font-size="14.00">@uniswap/v3&#45;periphery/contracts/base/PeripheryPayments.sol</text>
<polyline fill="none" stroke="black" points="1564.52,-883.7 2094.2,-883.7 "/>
<text text-anchor="start" x="1572.52" y="-867.1" font-family="Times,serif" font-size="14.00">External:</text>
<text text-anchor="start" x="1572.52" y="-850.3" font-family="Times,serif" font-size="14.00"> &#160;&#160;&#160;&lt;&lt;payable&gt;&gt; null()</text>
<text text-anchor="start" x="1572.52" y="-833.5" font-family="Times,serif" font-size="14.00"> &#160;&#160;&#160;&lt;&lt;payable&gt;&gt; refundETH()</text>
<text text-anchor="start" x="1572.52" y="-816.7" font-family="Times,serif" font-size="14.00">Public:</text>
<text text-anchor="start" x="1572.52" y="-799.9" font-family="Times,serif" font-size="14.00"> &#160;&#160;&#160;&lt;&lt;payable&gt;&gt; unwrapWETH9(amountMinimum: uint256, recipient: address)</text>
<text text-anchor="start" x="1572.52" y="-783.1" font-family="Times,serif" font-size="14.00"> &#160;&#160;&#160;&lt;&lt;payable&gt;&gt; sweepToken(token: address, amountMinimum: uint256, recipient: address)</text>
</g>
<!-- 36&#45;&gt;2 -->
<g id="edge1" class="edge">
<title>36&#45;&gt;2</title>
<path fill="none" stroke="black" d="M1903.82,-942.24C1908.1,-946.99 1912.42,-951.8 1916.75,-956.61"/>
<polygon fill="none" stroke="black" points="1909.03,-963.73 1936.9,-979 1924.64,-949.68 1909.03,-963.73"/>
</g>
<!-- 33 -->
<g id="node5" class="node">
<title>33</title>
<polygon fill="#f2f2f2" stroke="black" points="793.89,-604.3 793.89,-721.1 1598.83,-721.1 1598.83,-604.3 793.89,-604.3"/>
<text text-anchor="middle" x="1196.36" y="-704.5" font-family="Times,serif" font-size="14.00">&lt;&lt;Abstract&gt;&gt;</text>
<text text-anchor="middle" x="1196.36" y="-687.7" font-family="Times,serif" font-size="14.00">PeripheryPaymentsWithFee</text>
<text text-anchor="middle" x="1196.36" y="-670.9" font-family="Times,serif" font-size="14.00">@uniswap/v3&#45;periphery/contracts/base/PeripheryPaymentsWithFee.sol</text>
<polyline fill="none" stroke="black" points="793.89,-662.7 1598.83,-662.7 "/>
<text text-anchor="start" x="801.89" y="-646.1" font-family="Times,serif" font-size="14.00">Public:</text>
<text text-anchor="start" x="801.89" y="-629.3" font-family="Times,serif" font-size="14.00"> &#160;&#160;&#160;&lt;&lt;payable&gt;&gt; unwrapWETH9WithFee(amountMinimum: uint256, recipient: address, feeBips: uint256, feeRecipient: address)</text>
<text text-anchor="start" x="801.89" y="-612.5" font-family="Times,serif" font-size="14.00"> &#160;&#160;&#160;&lt;&lt;payable&gt;&gt; sweepTokenWithFee(token: address, amountMinimum: uint256, recipient: address, feeBips: uint256, feeRecipient: address)</text>
</g>
<!-- 33&#45;&gt;36 -->
<g id="edge2" class="edge">
<title>33&#45;&gt;36</title>
<path fill="none" stroke="black" d="M1384.14,-721.19C1431.7,-735.75 1483.93,-751.74 1535.37,-767.49"/>
<polygon fill="none" stroke="black" points="1532.49,-777.59 1564.25,-776.33 1538.64,-757.51 1532.49,-777.59"/>
</g>
<!-- 76 -->
<g id="node6" class="node">
<title>76</title>
<polygon fill="#f2f2f2" stroke="black" points="2754.27,-612.7 2754.27,-712.7 3126.45,-712.7 3126.45,-612.7 2754.27,-612.7"/>
<text text-anchor="middle" x="2940.36" y="-696.1" font-family="Times,serif" font-size="14.00">&lt;&lt;Abstract&gt;&gt;</text>
<text text-anchor="middle" x="2940.36" y="-679.3" font-family="Times,serif" font-size="14.00">PeripheryValidation</text>
<text text-anchor="middle" x="2940.36" y="-662.5" font-family="Times,serif" font-size="14.00">@uniswap/v3&#45;periphery/contracts/base/PeripheryValidation.sol</text>
<polyline fill="none" stroke="black" points="2754.27,-654.3 3126.45,-654.3 "/>
<text text-anchor="start" x="2762.27" y="-637.7" font-family="Times,serif" font-size="14.00">Public:</text>
<text text-anchor="start" x="2762.27" y="-620.9" font-family="Times,serif" font-size="14.00"> &#160;&#160;&#160;&lt;&lt;modifier&gt;&gt; checkDeadline(deadline: uint256)</text>
</g>
<!-- 76&#45;&gt;59 -->
<g id="edge3" class="edge">
<title>76&#45;&gt;59</title>
<path fill="none" stroke="black" d="M2831.32,-712.73C2769.11,-740.7 2691.1,-775.78 2627.45,-804.4"/>
<polygon fill="none" stroke="black" points="2622.83,-794.96 2599.78,-816.84 2631.44,-814.12 2622.83,-794.96"/>
</g>
<!-- 1 -->
<g id="node7" class="node">
<title>1</title>
<polygon fill="#f2f2f2" stroke="black" points="0,-154.3 0,-321.5 730.72,-321.5 730.72,-154.3 0,-154.3"/>
<text text-anchor="middle" x="365.36" y="-304.9" font-family="Times,serif" font-size="14.00">&lt;&lt;Abstract&gt;&gt;</text>
<text text-anchor="middle" x="365.36" y="-288.1" font-family="Times,serif" font-size="14.00">SelfPermit</text>
<text text-anchor="middle" x="365.36" y="-271.3" font-family="Times,serif" font-size="14.00">@uniswap/v3&#45;periphery/contracts/base/SelfPermit.sol</text>
<polyline fill="none" stroke="black" points="0,-263.1 730.72,-263.1 "/>
<text text-anchor="start" x="8" y="-246.5" font-family="Times,serif" font-size="14.00">External:</text>
<text text-anchor="start" x="8" y="-229.7" font-family="Times,serif" font-size="14.00"> &#160;&#160;&#160;&lt;&lt;payable&gt;&gt; selfPermitIfNecessary(token: address, value: uint256, deadline: uint256, v: uint8, r: bytes32, s: bytes32)</text>
<text text-anchor="start" x="8" y="-212.9" font-family="Times,serif" font-size="14.00"> &#160;&#160;&#160;&lt;&lt;payable&gt;&gt; selfPermitAllowedIfNecessary(token: address, nonce: uint256, expiry: uint256, v: uint8, r: bytes32, s: bytes32)</text>
<text text-anchor="start" x="8" y="-196.1" font-family="Times,serif" font-size="14.00">Public:</text>
<text text-anchor="start" x="8" y="-179.3" font-family="Times,serif" font-size="14.00"> &#160;&#160;&#160;&lt;&lt;payable&gt;&gt; selfPermit(token: address, value: uint256, deadline: uint256, v: uint8, r: bytes32, s: bytes32)</text>
<text text-anchor="start" x="8" y="-162.5" font-family="Times,serif" font-size="14.00"> &#160;&#160;&#160;&lt;&lt;payable&gt;&gt; selfPermitAllowed(token: address, nonce: uint256, expiry: uint256, v: uint8, r: bytes32, s: bytes32)</text>
</g>
<!-- 0 -->
<g id="node8" class="node">
<title>0</title>
<polygon fill="#f2f2f2" stroke="black" points="1364.55,-0.5 1364.55,-83.7 1962.16,-83.7 1962.16,-0.5 1364.55,-0.5"/>
<text text-anchor="middle" x="1663.36" y="-67.1" font-family="Times,serif" font-size="14.00">SwapRouter02</text>
<text text-anchor="middle" x="1663.36" y="-50.3" font-family="Times,serif" font-size="14.00">contracts/SwapRouter02.sol</text>
<polyline fill="none" stroke="black" points="1364.55,-42.1 1962.16,-42.1 "/>
<text text-anchor="start" x="1372.55" y="-25.5" font-family="Times,serif" font-size="14.00">Public:</text>
<text text-anchor="start" x="1372.55" y="-8.7" font-family="Times,serif" font-size="14.00"> &#160;&#160;&#160;constructor(_factoryV2: address, factoryV3: address, _positionManager: address, _WETH9: address)</text>
</g>
<!-- 0&#45;&gt;1 -->
<g id="edge8" class="edge">
<title>0&#45;&gt;1</title>
<path fill="none" stroke="black" d="M1364.4,-51.55C1182.61,-60.76 946.52,-80.01 740.36,-120.2 705.07,-127.08 668.4,-136.08 632.42,-146.03"/>
<polygon fill="none" stroke="black" points="629.4,-135.97 603.43,-154.29 635.15,-156.17 629.4,-135.97"/>
</g>
<!-- 4 -->
<g id="node9" class="node">
<title>4</title>
<polygon fill="#f2f2f2" stroke="black" points="1256,-179.5 1256,-296.3 2070.72,-296.3 2070.72,-179.5 1256,-179.5"/>
<text text-anchor="middle" x="1663.36" y="-279.7" font-family="Times,serif" font-size="14.00">&lt;&lt;Abstract&gt;&gt;</text>
<text text-anchor="middle" x="1663.36" y="-262.9" font-family="Times,serif" font-size="14.00">V2SwapRouter</text>
<text text-anchor="middle" x="1663.36" y="-246.1" font-family="Times,serif" font-size="14.00">contracts/V2SwapRouter.sol</text>
<polyline fill="none" stroke="black" points="1256,-237.9 2070.72,-237.9 "/>
<text text-anchor="start" x="1264" y="-221.3" font-family="Times,serif" font-size="14.00">External:</text>
<text text-anchor="start" x="1264" y="-204.5" font-family="Times,serif" font-size="14.00"> &#160;&#160;&#160;&lt;&lt;payable&gt;&gt; swapExactTokensForTokens(amountIn: uint256, amountOutMin: uint256, path: address[], to: address): (amountOut: uint256)</text>
<text text-anchor="start" x="1264" y="-187.7" font-family="Times,serif" font-size="14.00"> &#160;&#160;&#160;&lt;&lt;payable&gt;&gt; swapTokensForExactTokens(amountOut: uint256, amountInMax: uint256, path: address[], to: address): (amountIn: uint256)</text>
</g>
<!-- 0&#45;&gt;4 -->
<g id="edge4" class="edge">
<title>0&#45;&gt;4</title>
<path fill="none" stroke="black" d="M1663.36,-83.73C1663.36,-102.8 1663.36,-126.33 1663.36,-149.18"/>
<polygon fill="none" stroke="black" points="1652.86,-149.42 1663.36,-179.42 1673.86,-149.42 1652.86,-149.42"/>
</g>
<!-- 5 -->
<g id="node10" class="node">
<title>5</title>
<polygon fill="#f2f2f2" stroke="black" points="2088.24,-141.9 2088.24,-333.9 2626.48,-333.9 2626.48,-141.9 2088.24,-141.9"/>
<text text-anchor="middle" x="2357.36" y="-317.3" font-family="Times,serif" font-size="14.00">&lt;&lt;Abstract&gt;&gt;</text>
<text text-anchor="middle" x="2357.36" y="-300.5" font-family="Times,serif" font-size="14.00">V3SwapRouter</text>
<text text-anchor="middle" x="2357.36" y="-283.7" font-family="Times,serif" font-size="14.00">contracts/V3SwapRouter.sol</text>
<polyline fill="none" stroke="black" points="2088.24,-275.5 2626.48,-275.5 "/>
<text text-anchor="middle" x="2357.36" y="-258.9" font-family="Times,serif" font-size="14.00"> </text>
<polyline fill="none" stroke="black" points="2088.24,-250.7 2626.48,-250.7 "/>
<text text-anchor="start" x="2096.24" y="-234.1" font-family="Times,serif" font-size="14.00">External:</text>
<text text-anchor="start" x="2096.24" y="-217.3" font-family="Times,serif" font-size="14.00"> &#160;&#160;&#160;&lt;&lt;payable&gt;&gt; exactInputSingle(params: ExactInputSingleParams): (amountOut: uint256)</text>
<text text-anchor="start" x="2096.24" y="-200.5" font-family="Times,serif" font-size="14.00"> &#160;&#160;&#160;&lt;&lt;payable&gt;&gt; exactInput(params: ExactInputParams): (amountOut: uint256)</text>
<text text-anchor="start" x="2096.24" y="-183.7" font-family="Times,serif" font-size="14.00"> &#160;&#160;&#160;&lt;&lt;payable&gt;&gt; exactOutputSingle(params: ExactOutputSingleParams): (amountIn: uint256)</text>
<text text-anchor="start" x="2096.24" y="-166.9" font-family="Times,serif" font-size="14.00"> &#160;&#160;&#160;&lt;&lt;payable&gt;&gt; exactOutput(params: ExactOutputParams): (amountIn: uint256)</text>
<text text-anchor="start" x="2096.24" y="-150.1" font-family="Times,serif" font-size="14.00"> &#160;&#160;&#160;uniswapV3SwapCallback(amount0Delta: int256, amount1Delta: int256, _data: bytes)</text>
</g>
<!-- 0&#45;&gt;5 -->
<g id="edge5" class="edge">
<title>0&#45;&gt;5</title>
<path fill="none" stroke="black" d="M1930.02,-83.75C1980.1,-93.85 2031.68,-105.95 2079.36,-120.2 2091.13,-123.72 2103.07,-127.57 2115.06,-131.66"/>
<polygon fill="none" stroke="black" points="2111.73,-141.62 2143.51,-141.79 2118.77,-121.84 2111.73,-141.62"/>
</g>
<!-- 7 -->
<g id="node11" class="node">
<title>7</title>
<polygon fill="#f2f2f2" stroke="black" points="749.14,-120.7 749.14,-355.1 1237.57,-355.1 1237.57,-120.7 749.14,-120.7"/>
<text text-anchor="middle" x="993.36" y="-338.5" font-family="Times,serif" font-size="14.00">&lt;&lt;Abstract&gt;&gt;</text>
<text text-anchor="middle" x="993.36" y="-321.7" font-family="Times,serif" font-size="14.00">ApproveAndCall</text>
<text text-anchor="middle" x="993.36" y="-304.9" font-family="Times,serif" font-size="14.00">contracts/base/ApproveAndCall.sol</text>
<polyline fill="none" stroke="black" points="749.14,-296.7 1237.57,-296.7 "/>
<text text-anchor="start" x="757.14" y="-280.1" font-family="Times,serif" font-size="14.00">External:</text>
<text text-anchor="start" x="757.14" y="-263.3" font-family="Times,serif" font-size="14.00"> &#160;&#160;&#160;&lt;&lt;payable&gt;&gt; approveMax(token: address)</text>
<text text-anchor="start" x="757.14" y="-246.5" font-family="Times,serif" font-size="14.00"> &#160;&#160;&#160;&lt;&lt;payable&gt;&gt; approveMaxMinusOne(token: address)</text>
<text text-anchor="start" x="757.14" y="-229.7" font-family="Times,serif" font-size="14.00"> &#160;&#160;&#160;&lt;&lt;payable&gt;&gt; approveZeroThenMax(token: address)</text>
<text text-anchor="start" x="757.14" y="-212.9" font-family="Times,serif" font-size="14.00"> &#160;&#160;&#160;&lt;&lt;payable&gt;&gt; approveZeroThenMaxMinusOne(token: address)</text>
<text text-anchor="start" x="757.14" y="-196.1" font-family="Times,serif" font-size="14.00"> &#160;&#160;&#160;&lt;&lt;payable&gt;&gt; mint(params: MintParams): (result: bytes)</text>
<text text-anchor="start" x="757.14" y="-179.3" font-family="Times,serif" font-size="14.00"> &#160;&#160;&#160;&lt;&lt;payable&gt;&gt; increaseLiquidity(params: IncreaseLiquidityParams): (result: bytes)</text>
<text text-anchor="start" x="757.14" y="-162.5" font-family="Times,serif" font-size="14.00"> &#160;&#160;&#160;getApprovalType(token: address, amount: uint256): ApprovalType</text>
<text text-anchor="start" x="757.14" y="-145.7" font-family="Times,serif" font-size="14.00">Public:</text>
<text text-anchor="start" x="757.14" y="-128.9" font-family="Times,serif" font-size="14.00"> &#160;&#160;&#160;&lt;&lt;payable&gt;&gt; callPositionManager(data: bytes): (result: bytes)</text>
</g>
<!-- 0&#45;&gt;7 -->
<g id="edge6" class="edge">
<title>0&#45;&gt;7</title>
<path fill="none" stroke="black" d="M1390.2,-83.72C1350.64,-91.93 1310.33,-101.55 1266.53,-114.49"/>
<polygon fill="none" stroke="black" points="1263.21,-104.53 1237.61,-123.37 1269.37,-124.6 1263.21,-104.53"/>
</g>
<!-- 8 -->
<g id="node13" class="node">
<title>8</title>
<polygon fill="#f2f2f2" stroke="black" points="2644.04,-179.5 2644.04,-296.3 3268.68,-296.3 3268.68,-179.5 2644.04,-179.5"/>
<text text-anchor="middle" x="2956.36" y="-279.7" font-family="Times,serif" font-size="14.00">&lt;&lt;Abstract&gt;&gt;</text>
<text text-anchor="middle" x="2956.36" y="-262.9" font-family="Times,serif" font-size="14.00">MulticallExtended</text>
<text text-anchor="middle" x="2956.36" y="-246.1" font-family="Times,serif" font-size="14.00">contracts/base/MulticallExtended.sol</text>
<polyline fill="none" stroke="black" points="2644.04,-237.9 3268.68,-237.9 "/>
<text text-anchor="start" x="2652.04" y="-221.3" font-family="Times,serif" font-size="14.00">External:</text>
<text text-anchor="start" x="2652.04" y="-204.5" font-family="Times,serif" font-size="14.00"> &#160;&#160;&#160;&lt;&lt;payable&gt;&gt; multicall(deadline: uint256, data: bytes[]): bytes[] &lt;&lt;checkDeadline&gt;&gt;</text>
<text text-anchor="start" x="2652.04" y="-187.7" font-family="Times,serif" font-size="14.00"> &#160;&#160;&#160;&lt;&lt;payable&gt;&gt; multicall(previousBlockhash: bytes32, data: bytes[]): bytes[] &lt;&lt;checkPreviousBlockhash&gt;&gt;</text>
</g>
<!-- 0&#45;&gt;8 -->
<g id="edge7" class="edge">
<title>0&#45;&gt;8</title>
<path fill="none" stroke="black" d="M1962.29,-46.06C2156.1,-53.05 2412.97,-71.89 2635.36,-120.2 2688.53,-131.75 2744.82,-150.01 2795.16,-168.69"/>
<polygon fill="none" stroke="black" points="2791.48,-178.52 2823.25,-179.38 2798.95,-158.9 2791.48,-178.52"/>
</g>
<!-- 28 -->
<g id="node12" class="node">
<title>28</title>
<polygon fill="#f2f2f2" stroke="black" points="879.52,-392.1 879.52,-550.5 1253.2,-550.5 1253.2,-392.1 879.52,-392.1"/>
<text text-anchor="middle" x="1066.36" y="-533.9" font-family="Times,serif" font-size="14.00">&lt;&lt;Abstract&gt;&gt;</text>
<text text-anchor="middle" x="1066.36" y="-517.1" font-family="Times,serif" font-size="14.00">ImmutableState</text>
<text text-anchor="middle" x="1066.36" y="-500.3" font-family="Times,serif" font-size="14.00">contracts/base/ImmutableState.sol</text>
<polyline fill="none" stroke="black" points="879.52,-492.1 1253.2,-492.1 "/>
<text text-anchor="start" x="887.52" y="-475.5" font-family="Times,serif" font-size="14.00">Public:</text>
<text text-anchor="start" x="887.52" y="-458.7" font-family="Times,serif" font-size="14.00"> &#160;&#160;factoryV2: address</text>
<text text-anchor="start" x="887.52" y="-441.9" font-family="Times,serif" font-size="14.00"> &#160;&#160;positionManager: address</text>
<polyline fill="none" stroke="black" points="879.52,-433.7 1253.2,-433.7 "/>
<text text-anchor="start" x="887.52" y="-417.1" font-family="Times,serif" font-size="14.00">Public:</text>
<text text-anchor="start" x="887.52" y="-400.3" font-family="Times,serif" font-size="14.00"> &#160;&#160;&#160;constructor(_factoryV2: address, _positionManager: address)</text>
</g>
<!-- 4&#45;&gt;28 -->
<g id="edge9" class="edge">
<title>4&#45;&gt;28</title>
<path fill="none" stroke="black" d="M1515.02,-296.4C1444.51,-323.73 1358.89,-356.91 1281.42,-386.94"/>
<polygon fill="none" stroke="black" points="1277.47,-377.21 1253.29,-397.84 1285.06,-396.79 1277.47,-377.21"/>
</g>
<!-- 29 -->
<g id="node16" class="node">
<title>29</title>
<polygon fill="#f2f2f2" stroke="black" points="1410.56,-412.9 1410.56,-529.7 2110.16,-529.7 2110.16,-412.9 1410.56,-412.9"/>
<text text-anchor="middle" x="1760.36" y="-513.1" font-family="Times,serif" font-size="14.00">&lt;&lt;Abstract&gt;&gt;</text>
<text text-anchor="middle" x="1760.36" y="-496.3" font-family="Times,serif" font-size="14.00">PeripheryPaymentsWithFeeExtended</text>
<text text-anchor="middle" x="1760.36" y="-479.5" font-family="Times,serif" font-size="14.00">contracts/base/PeripheryPaymentsWithFeeExtended.sol</text>
<polyline fill="none" stroke="black" points="1410.56,-471.3 2110.16,-471.3 "/>
<text text-anchor="start" x="1418.56" y="-454.7" font-family="Times,serif" font-size="14.00">External:</text>
<text text-anchor="start" x="1418.56" y="-437.9" font-family="Times,serif" font-size="14.00"> &#160;&#160;&#160;&lt;&lt;payable&gt;&gt; unwrapWETH9WithFee(amountMinimum: uint256, feeBips: uint256, feeRecipient: address)</text>
<text text-anchor="start" x="1418.56" y="-421.1" font-family="Times,serif" font-size="14.00"> &#160;&#160;&#160;&lt;&lt;payable&gt;&gt; sweepTokenWithFee(token: address, amountMinimum: uint256, feeBips: uint256, feeRecipient: address)</text>
</g>
<!-- 4&#45;&gt;29 -->
<g id="edge10" class="edge">
<title>4&#45;&gt;29</title>
<path fill="none" stroke="black" d="M1687.46,-296.4C1698.67,-323.14 1712.23,-355.49 1724.6,-385"/>
<polygon fill="none" stroke="black" points="1714.93,-389.09 1736.21,-412.7 1734.3,-380.97 1714.93,-389.09"/>
</g>
<!-- 50 -->
<g id="node14" class="node">
<title>50</title>
<polygon fill="#f2f2f2" stroke="black" points="2059.49,-604.3 2059.49,-721.1 2723.23,-721.1 2723.23,-604.3 2059.49,-604.3"/>
<text text-anchor="middle" x="2391.36" y="-704.5" font-family="Times,serif" font-size="14.00">&lt;&lt;Abstract&gt;&gt;</text>
<text text-anchor="middle" x="2391.36" y="-687.7" font-family="Times,serif" font-size="14.00">OracleSlippage</text>
<text text-anchor="middle" x="2391.36" y="-670.9" font-family="Times,serif" font-size="14.00">contracts/base/OracleSlippage.sol</text>
<polyline fill="none" stroke="black" points="2059.49,-662.7 2723.23,-662.7 "/>
<text text-anchor="start" x="2067.49" y="-646.1" font-family="Times,serif" font-size="14.00">External:</text>
<text text-anchor="start" x="2067.49" y="-629.3" font-family="Times,serif" font-size="14.00"> &#160;&#160;&#160;checkOracleSlippage(path: bytes, maximumTickDivergence: uint24, secondsAgo: uint32)</text>
<text text-anchor="start" x="2067.49" y="-612.5" font-family="Times,serif" font-size="14.00"> &#160;&#160;&#160;checkOracleSlippage(paths: bytes[], amounts: uint128[], maximumTickDivergence: uint24, secondsAgo: uint32)</text>
</g>
<!-- 5&#45;&gt;50 -->
<g id="edge12" class="edge">
<title>5&#45;&gt;50</title>
<path fill="none" stroke="black" d="M2364.96,-334.17C2369.9,-395.98 2376.49,-478.26 2382.36,-551 2382.97,-558.57 2383.61,-566.43 2384.24,-574.31"/>
<polygon fill="none" stroke="black" points="2373.78,-575.19 2386.67,-604.25 2394.71,-573.49 2373.78,-575.19"/>
</g>
<!-- 5&#45;&gt;29 -->
<g id="edge11" class="edge">
<title>5&#45;&gt;29</title>
<path fill="none" stroke="black" d="M2133.59,-334.02C2115.29,-341.44 2097.04,-348.72 2079.36,-355.6 2038.92,-371.35 1995.31,-387.54 1953.72,-402.61"/>
<polygon fill="none" stroke="black" points="1949.97,-392.8 1925.3,-412.85 1957.09,-412.55 1949.97,-392.8"/>
</g>
<!-- 7&#45;&gt;28 -->
<g id="edge13" class="edge">
<title>7&#45;&gt;28</title>
<path fill="none" stroke="black" d="M1030.07,-355.28C1030.9,-357.89 1031.72,-360.5 1032.54,-363.11"/>
<polygon fill="none" stroke="black" points="1022.56,-366.37 1041.6,-391.82 1042.59,-360.05 1022.56,-366.37"/>
</g>
<!-- 8&#45;&gt;74 -->
<g id="edge14" class="edge">
<title>8&#45;&gt;74</title>
<path fill="none" stroke="black" d="M2857.71,-296.4C2800.66,-329.65 2728.72,-371.58 2669.78,-405.94"/>
<polygon fill="none" stroke="black" points="2664.35,-396.95 2643.72,-421.13 2674.92,-415.09 2664.35,-396.95"/>
</g>
<!-- 75 -->
<g id="node17" class="node">
<title>75</title>
<polygon fill="#f2f2f2" stroke="black" points="2745.55,-421.3 2745.55,-521.3 3167.17,-521.3 3167.17,-421.3 2745.55,-421.3"/>
<text text-anchor="middle" x="2956.36" y="-504.7" font-family="Times,serif" font-size="14.00">&lt;&lt;Abstract&gt;&gt;</text>
<text text-anchor="middle" x="2956.36" y="-487.9" font-family="Times,serif" font-size="14.00">PeripheryValidationExtended</text>
<text text-anchor="middle" x="2956.36" y="-471.1" font-family="Times,serif" font-size="14.00">contracts/base/PeripheryValidationExtended.sol</text>
<polyline fill="none" stroke="black" points="2745.55,-462.9 3167.17,-462.9 "/>
<text text-anchor="start" x="2753.55" y="-446.3" font-family="Times,serif" font-size="14.00">Public:</text>
<text text-anchor="start" x="2753.55" y="-429.5" font-family="Times,serif" font-size="14.00"> &#160;&#160;&#160;&lt;&lt;modifier&gt;&gt; checkPreviousBlockhash(previousBlockhash: bytes32)</text>
</g>
<!-- 8&#45;&gt;75 -->
<g id="edge15" class="edge">
<title>8&#45;&gt;75</title>
<path fill="none" stroke="black" d="M2956.36,-296.4C2956.36,-324.81 2956.36,-359.55 2956.36,-390.5"/>
<polygon fill="none" stroke="black" points="2945.86,-390.94 2956.36,-420.94 2966.86,-390.94 2945.86,-390.94"/>
</g>
<!-- 50&#45;&gt;59 -->
<g id="edge17" class="edge">
<title>50&#45;&gt;59</title>
<path fill="none" stroke="black" d="M2426.44,-721.32C2439.73,-743.14 2454.95,-768.15 2468.71,-790.73"/>
<polygon fill="none" stroke="black" points="2459.95,-796.54 2484.52,-816.7 2477.88,-785.62 2459.95,-796.54"/>
</g>
<!-- 50&#45;&gt;2 -->
<g id="edge16" class="edge">
<title>50&#45;&gt;2</title>
<path fill="none" stroke="black" d="M2335.11,-721.35C2274.85,-783.12 2178.07,-882.32 2105.26,-956.95"/>
<polygon fill="none" stroke="black" points="2097.42,-949.95 2083.98,-978.76 2112.45,-964.62 2097.42,-949.95"/>
</g>
<!-- 35 -->
<g id="node15" class="node">
<title>35</title>
<polygon fill="#f2f2f2" stroke="black" points="1617.19,-587.5 1617.19,-737.9 2041.53,-737.9 2041.53,-587.5 1617.19,-587.5"/>
<text text-anchor="middle" x="1829.36" y="-721.3" font-family="Times,serif" font-size="14.00">&lt;&lt;Abstract&gt;&gt;</text>
<text text-anchor="middle" x="1829.36" y="-704.5" font-family="Times,serif" font-size="14.00">PeripheryPaymentsExtended</text>
<text text-anchor="middle" x="1829.36" y="-687.7" font-family="Times,serif" font-size="14.00">contracts/base/PeripheryPaymentsExtended.sol</text>
<polyline fill="none" stroke="black" points="1617.19,-679.5 2041.53,-679.5 "/>
<text text-anchor="start" x="1625.19" y="-662.9" font-family="Times,serif" font-size="14.00">External:</text>
<text text-anchor="start" x="1625.19" y="-646.1" font-family="Times,serif" font-size="14.00"> &#160;&#160;&#160;&lt;&lt;payable&gt;&gt; unwrapWETH9(amountMinimum: uint256)</text>
<text text-anchor="start" x="1625.19" y="-629.3" font-family="Times,serif" font-size="14.00"> &#160;&#160;&#160;&lt;&lt;payable&gt;&gt; wrapETH(value: uint256)</text>
<text text-anchor="start" x="1625.19" y="-612.5" font-family="Times,serif" font-size="14.00"> &#160;&#160;&#160;&lt;&lt;payable&gt;&gt; sweepToken(token: address, amountMinimum: uint256)</text>
<text text-anchor="start" x="1625.19" y="-595.7" font-family="Times,serif" font-size="14.00"> &#160;&#160;&#160;&lt;&lt;payable&gt;&gt; pull(token: address, value: uint256)</text>
</g>
<!-- 35&#45;&gt;36 -->
<g id="edge18" class="edge">
<title>35&#45;&gt;36</title>
<path fill="none" stroke="black" d="M1829.36,-738.07C1829.36,-740.22 1829.36,-742.39 1829.36,-744.56"/>
<polygon fill="none" stroke="black" points="1818.86,-744.61 1829.36,-774.61 1839.86,-744.61 1818.86,-744.61"/>
</g>
<!-- 29&#45;&gt;33 -->
<g id="edge20" class="edge">
<title>29&#45;&gt;33</title>
<path fill="none" stroke="black" d="M1589.23,-529.77C1528.37,-550.21 1459.32,-573.39 1396.26,-594.57"/>
<polygon fill="none" stroke="black" points="1392.86,-584.63 1367.77,-604.14 1399.55,-604.54 1392.86,-584.63"/>
</g>
<!-- 29&#45;&gt;35 -->
<g id="edge19" class="edge">
<title>29&#45;&gt;35</title>
<path fill="none" stroke="black" d="M1781.34,-529.9C1784.68,-539.07 1788.23,-548.8 1791.82,-558.65"/>
<polygon fill="none" stroke="black" points="1782.09,-562.64 1802.23,-587.23 1801.83,-555.45 1782.09,-562.64"/>
</g>
<!-- 75&#45;&gt;76 -->
<g id="edge21" class="edge">
<title>75&#45;&gt;76</title>
<path fill="none" stroke="black" d="M2952.2,-521.57C2950.62,-540.2 2948.79,-561.91 2947.04,-582.6"/>
<polygon fill="none" stroke="black" points="2936.56,-581.9 2944.5,-612.68 2957.49,-583.67 2936.56,-581.9"/>
</g>
</g>
</svg>
